<mxfile host="app.diagrams.net" agent="Mozilla/5.0 (Windows NT 10.0; Win64; x64) AppleWebKit/537.36 (KHTML, like Gecko) Chrome/127.0.0.0 Safari/537.36" version="24.7.7">
  <diagram name="Page-1" id="edf60f1a-56cd-e834-aa8a-f176f3a09ee4">
    <mxGraphModel dx="1434" dy="2446" grid="1" gridSize="10" guides="1" tooltips="1" connect="1" arrows="1" fold="1" page="1" pageScale="1" pageWidth="1100" pageHeight="850" background="none" math="0" shadow="0">
      <root>
        <mxCell id="0" />
        <mxCell id="1" parent="0" />
        <mxCell id="cYBV9e0mediagjX2XzrV-20" value="用户校验" style="text;html=1;align=center;verticalAlign=middle;whiteSpace=wrap;rounded=0;" parent="1" vertex="1">
          <mxGeometry x="355" y="-590" width="110" height="30" as="geometry" />
        </mxCell>
        <mxCell id="cYBV9e0mediagjX2XzrV-23" value="智甲激活" style="rounded=0;whiteSpace=wrap;html=1;fillColor=#0050ef;strokeColor=#001DBC;fontColor=#ffffff;fontSize=20;" parent="1" vertex="1">
          <mxGeometry x="320" y="-1010" width="180" height="60" as="geometry" />
        </mxCell>
        <mxCell id="cYBV9e0mediagjX2XzrV-24" style="edgeStyle=orthogonalEdgeStyle;rounded=0;orthogonalLoop=1;jettySize=auto;html=1;exitX=1;exitY=1;exitDx=0;exitDy=0;exitPerimeter=0;entryX=0.5;entryY=0;entryDx=0;entryDy=0;fillColor=#0050ef;strokeColor=#001DBC;" parent="1" source="cYBV9e0mediagjX2XzrV-26" edge="1">
          <mxGeometry relative="1" as="geometry">
            <mxPoint x="320" y="-790" as="targetPoint" />
          </mxGeometry>
        </mxCell>
        <mxCell id="cYBV9e0mediagjX2XzrV-25" style="edgeStyle=orthogonalEdgeStyle;rounded=0;orthogonalLoop=1;jettySize=auto;html=1;exitX=1;exitY=0;exitDx=0;exitDy=0;exitPerimeter=0;entryX=0.5;entryY=0;entryDx=0;entryDy=0;fillColor=#0050ef;strokeColor=#001DBC;" parent="1" source="cYBV9e0mediagjX2XzrV-26" edge="1">
          <mxGeometry relative="1" as="geometry">
            <mxPoint x="500" y="-790" as="targetPoint" />
          </mxGeometry>
        </mxCell>
        <mxCell id="cYBV9e0mediagjX2XzrV-26" value="" style="strokeWidth=1;html=1;shape=mxgraph.flowchart.annotation_2;align=center;labelPosition=right;pointerEvents=1;rotation=90;fontSize=11;fillColor=#0050ef;strokeColor=#001DBC;fontColor=#ffffff;" parent="1" vertex="1">
          <mxGeometry x="360" y="-970" width="100" height="180" as="geometry" />
        </mxCell>
        <mxCell id="cYBV9e0mediagjX2XzrV-27" value="&lt;font color=&quot;#3333ff&quot;&gt;参数校验ids&lt;/font&gt;" style="text;html=1;align=center;verticalAlign=middle;whiteSpace=wrap;rounded=0;" parent="1" vertex="1">
          <mxGeometry x="355" y="-930" width="110" height="30" as="geometry" />
        </mxCell>
        <mxCell id="cYBV9e0mediagjX2XzrV-28" value="" style="endArrow=none;html=1;rounded=0;exitX=0;exitY=0.5;exitDx=0;exitDy=0;exitPerimeter=0;entryX=0.5;entryY=1;entryDx=0;entryDy=0;fillColor=#0050ef;strokeColor=#001DBC;" parent="1" source="cYBV9e0mediagjX2XzrV-26" target="cYBV9e0mediagjX2XzrV-23" edge="1">
          <mxGeometry width="50" height="50" relative="1" as="geometry">
            <mxPoint x="520" y="-830" as="sourcePoint" />
            <mxPoint x="570" y="-880" as="targetPoint" />
          </mxGeometry>
        </mxCell>
        <mxCell id="cYBV9e0mediagjX2XzrV-29" value="&lt;font color=&quot;#3333ff&quot;&gt;存在&lt;/font&gt;" style="text;html=1;align=center;verticalAlign=middle;whiteSpace=wrap;rounded=0;" parent="1" vertex="1">
          <mxGeometry x="270" y="-850" width="60" height="30" as="geometry" />
        </mxCell>
        <mxCell id="cYBV9e0mediagjX2XzrV-30" value="&lt;font color=&quot;#3333ff&quot;&gt;不存在&lt;/font&gt;" style="text;html=1;align=center;verticalAlign=middle;whiteSpace=wrap;rounded=0;" parent="1" vertex="1">
          <mxGeometry x="490" y="-850" width="60" height="30" as="geometry" />
        </mxCell>
        <mxCell id="cYBV9e0mediagjX2XzrV-31" value="&lt;span style=&quot;font-size: 12px;&quot;&gt;智甲激活数量上限50台&lt;/span&gt;" style="rounded=0;whiteSpace=wrap;html=1;fillColor=#0050ef;strokeColor=#001DBC;fontColor=#ffffff;fontSize=20;" parent="1" vertex="1">
          <mxGeometry x="270" y="-790" width="100" height="50" as="geometry" />
        </mxCell>
        <mxCell id="cYBV9e0mediagjX2XzrV-37" value="" style="edgeStyle=orthogonalEdgeStyle;rounded=0;orthogonalLoop=1;jettySize=auto;html=1;fillColor=#0050ef;strokeColor=#001DBC;" parent="1" source="cYBV9e0mediagjX2XzrV-32" target="cYBV9e0mediagjX2XzrV-36" edge="1">
          <mxGeometry relative="1" as="geometry" />
        </mxCell>
        <mxCell id="cYBV9e0mediagjX2XzrV-32" value="&lt;font style=&quot;font-size: 20px;&quot;&gt;参数不存在&lt;/font&gt;" style="rounded=0;whiteSpace=wrap;html=1;fillColor=#0050ef;strokeColor=#001DBC;fontColor=#ffffff;fontSize=20;" parent="1" vertex="1">
          <mxGeometry x="455" y="-790" width="140" height="60" as="geometry" />
        </mxCell>
        <mxCell id="cYBV9e0mediagjX2XzrV-36" value="web端" style="shape=step;perimeter=stepPerimeter;whiteSpace=wrap;html=1;fixedSize=1;fontSize=20;fillColor=#0050ef;strokeColor=#001DBC;fontColor=#ffffff;rounded=0;" parent="1" vertex="1">
          <mxGeometry x="780" y="-810" width="160" height="80" as="geometry" />
        </mxCell>
        <mxCell id="cYBV9e0mediagjX2XzrV-38" value="&lt;font color=&quot;#cc0000&quot;&gt;&amp;nbsp;接口返回400&lt;/font&gt;" style="text;html=1;align=center;verticalAlign=middle;resizable=0;points=[];autosize=1;strokeColor=none;fillColor=none;fontColor=#009900;" parent="1" vertex="1">
          <mxGeometry x="595" y="-790" width="90" height="30" as="geometry" />
        </mxCell>
        <mxCell id="cYBV9e0mediagjX2XzrV-48" style="edgeStyle=orthogonalEdgeStyle;rounded=0;orthogonalLoop=1;jettySize=auto;html=1;exitX=1;exitY=1;exitDx=0;exitDy=0;exitPerimeter=0;entryX=0.5;entryY=0;entryDx=0;entryDy=0;fillColor=#0050ef;strokeColor=#001DBC;" parent="1" source="cYBV9e0mediagjX2XzrV-50" edge="1">
          <mxGeometry relative="1" as="geometry">
            <mxPoint x="230" y="-610" as="targetPoint" />
          </mxGeometry>
        </mxCell>
        <mxCell id="cYBV9e0mediagjX2XzrV-49" style="edgeStyle=orthogonalEdgeStyle;rounded=0;orthogonalLoop=1;jettySize=auto;html=1;exitX=1;exitY=0;exitDx=0;exitDy=0;exitPerimeter=0;entryX=0.5;entryY=0;entryDx=0;entryDy=0;fillColor=#0050ef;strokeColor=#001DBC;" parent="1" source="cYBV9e0mediagjX2XzrV-50" edge="1">
          <mxGeometry relative="1" as="geometry">
            <mxPoint x="410" y="-610" as="targetPoint" />
          </mxGeometry>
        </mxCell>
        <mxCell id="cYBV9e0mediagjX2XzrV-50" value="" style="strokeWidth=1;html=1;shape=mxgraph.flowchart.annotation_2;align=center;labelPosition=right;pointerEvents=1;rotation=90;fontSize=11;fillColor=#0050ef;strokeColor=#001DBC;fontColor=#ffffff;" parent="1" vertex="1">
          <mxGeometry x="270" y="-790" width="100" height="180" as="geometry" />
        </mxCell>
        <mxCell id="cYBV9e0mediagjX2XzrV-52" value="&lt;font color=&quot;#3333ff&quot;&gt;否&lt;/font&gt;" style="text;html=1;align=center;verticalAlign=middle;whiteSpace=wrap;rounded=0;" parent="1" vertex="1">
          <mxGeometry x="180" y="-670" width="60" height="30" as="geometry" />
        </mxCell>
        <mxCell id="cYBV9e0mediagjX2XzrV-53" value="&lt;font color=&quot;#3333ff&quot;&gt;是&lt;/font&gt;" style="text;html=1;align=center;verticalAlign=middle;whiteSpace=wrap;rounded=0;" parent="1" vertex="1">
          <mxGeometry x="390" y="-670" width="60" height="30" as="geometry" />
        </mxCell>
        <mxCell id="MKAhDb92WdTjs3Q1lOmZ-7" style="edgeStyle=orthogonalEdgeStyle;rounded=0;orthogonalLoop=1;jettySize=auto;html=1;exitX=0.5;exitY=1;exitDx=0;exitDy=0;" edge="1" parent="1" source="cYBV9e0mediagjX2XzrV-54">
          <mxGeometry relative="1" as="geometry">
            <mxPoint x="860" y="-730" as="targetPoint" />
          </mxGeometry>
        </mxCell>
        <mxCell id="cYBV9e0mediagjX2XzrV-54" value="&lt;font style=&quot;font-size: 20px;&quot;&gt;成功完成智甲批量激活&lt;/font&gt;" style="rounded=0;whiteSpace=wrap;html=1;fillColor=#0050ef;strokeColor=#001DBC;fontColor=#ffffff;fontSize=12;" parent="1" vertex="1">
          <mxGeometry x="180" y="-610" width="120" height="70" as="geometry" />
        </mxCell>
        <mxCell id="cYBV9e0mediagjX2XzrV-55" value="&lt;font style=&quot;vertical-align: inherit;&quot;&gt;&lt;font style=&quot;vertical-align: inherit; font-size: 20px;&quot;&gt;批量修改数量超过阈值50台&lt;/font&gt;&lt;/font&gt;" style="rounded=0;whiteSpace=wrap;html=1;fillColor=#0050ef;strokeColor=#001DBC;fontColor=#ffffff;fontSize=20;" parent="1" vertex="1">
          <mxGeometry x="360" y="-610" width="130" height="70" as="geometry" />
        </mxCell>
        <mxCell id="MKAhDb92WdTjs3Q1lOmZ-2" value="&lt;font color=&quot;#3333ff&quot;&gt;已激活数量加上本次激活是否超过50台&lt;/font&gt;" style="text;html=1;align=center;verticalAlign=middle;resizable=0;points=[];autosize=1;strokeColor=none;fillColor=none;" vertex="1" parent="1">
          <mxGeometry x="205" y="-730" width="230" height="30" as="geometry" />
        </mxCell>
        <mxCell id="MKAhDb92WdTjs3Q1lOmZ-3" value="" style="endArrow=classic;html=1;rounded=0;exitX=1;exitY=0.5;exitDx=0;exitDy=0;entryX=0.5;entryY=1;entryDx=0;entryDy=0;" edge="1" parent="1" source="cYBV9e0mediagjX2XzrV-55" target="cYBV9e0mediagjX2XzrV-36">
          <mxGeometry width="50" height="50" relative="1" as="geometry">
            <mxPoint x="520" y="-610" as="sourcePoint" />
            <mxPoint x="570" y="-660" as="targetPoint" />
            <Array as="points">
              <mxPoint x="860" y="-575" />
            </Array>
          </mxGeometry>
        </mxCell>
        <mxCell id="MKAhDb92WdTjs3Q1lOmZ-5" value="&lt;font color=&quot;#cc0000&quot;&gt;&amp;nbsp;接口返回400&lt;/font&gt;" style="text;html=1;align=center;verticalAlign=middle;resizable=0;points=[];autosize=1;strokeColor=none;fillColor=none;fontColor=#009900;" vertex="1" parent="1">
          <mxGeometry x="500" y="-620" width="90" height="30" as="geometry" />
        </mxCell>
        <mxCell id="MKAhDb92WdTjs3Q1lOmZ-8" value="&lt;font color=&quot;#009900&quot;&gt;接口返回200&lt;/font&gt;" style="text;html=1;align=center;verticalAlign=middle;resizable=0;points=[];autosize=1;strokeColor=none;fillColor=none;" vertex="1" parent="1">
          <mxGeometry x="265" y="-510" width="90" height="30" as="geometry" />
        </mxCell>
        <mxCell id="MKAhDb92WdTjs3Q1lOmZ-9" value="" style="shape=image;verticalLabelPosition=bottom;labelBackgroundColor=default;verticalAlign=top;aspect=fixed;imageAspect=0;image=data:image/png,iVBORw0KGgoAAAANSUhEUgAABrQAAAOICAYAAACXKBE6AAAAAXNSR0IArs4c6QAAAARnQU1BAACxjwv8YQUAAAAJcEhZcwAADsMAAA7DAcdvqGQAAP+lSURBVHhe7L0JtC1nWed9e/Xq9a1evfr7Vq9etDIEbFsQEggKThxAxDYhCVMSEqKEMCgcBoWEyDyFeR5OlMSbiCAQhhAkJMoNIQFEZQrIIIKBS6JAosygjBnrq/9b9dR+6q2nalede86+++7z+631y977neqtt/a5uOvvu/euovhO8cnzzirOOu+T5bOS73yyOC89v7K49CxXLlTnyr7zyfOKsy69sqpL7S8t/6unl7pyAAAAAAAAAAAAAAAAgM2z66yzzis+qXRKIZTCKunDqDrEOu+Tn5wFVnUIdl7qOOPKS+v+peRZAAAAAAAAAAAAAAAAsBXsqh8BAAAAAAAAAAAAAAAAlhICLQAAAAAAAAAAAAAAAFhqCLQAAAAAAAAAAAAAAABgqSHQAgAAAAAAAAAAAAAAgKWGQAsAAAAAAAAAAAAAAACWGgItAAAAAAAAAAAAAAAAWGoItAAAAAAAAAAAAAAAAGCpIdACAAAAAAAAAAAAAACApYZACwAAAAAAAAAAAAAAAJYaAi0AAAAAAAAAAAAAAABYagi0AAAAAAAAAAAAAAAAYKkh0NoivvCFLyAiIiIiIiIiIiIiIi61U4nG2B8SaG0RWkwAAAAAAAAAAAAAAIDtYCtyiM2MsSz5B4HWFkGgBQAAAAAAAAAAAAAA2wWBFmwJBFoAAAAAAAAAAAAAALBdEGjBluAv6D2f8fpN+Rul9ygFAAAAAAAAAAAAAADwEGhBix/84AfFj370o/rVePJA61l/XxSnfbIonl0+PuMTRfGUjxfFH36sKE7+aFE89sNFsf53RfHwvy2Kkz5YFMe/vyiOem9R3Oviorj707c/0PrMZz5TnHzyyfWrCpXd//73Hzz3v/qrvype+cpX1q9mqI/6aoyHPexhxa5du0aptuJb3/pW8aAHPWhT676/0Nzvec97NnPWOdz5zndOj0a0zh61velNb1r8v//v/5vajsWv91g0Xx3Lz2/Z2Io1BQAAAAAAAAAAAFhVCLQWwE9+8pP62XKjMOuMM84odu/eXfzwhz+sS8eRB1rP/VRRPL9Ujwq3nvqJonjiZVWg9fsKtD5UFH/2xaL45+8XxXHvL4rDLy6K33pPUdz1afsn0BIKFKLASmUyD7QUNCiI+va3v90bsKhsXlBm46iN2ivgGQrAthvNQ8FKNAdTa+GxNfLYOHm5Xufj9B0zP46hch/+DKHjqe155503us9Ws91rCgAAAAAAAAAAALDq9AVLz3nOczr2sd2B1uc+97nir//6r+tX1euNjY2Uu1x99dV1aT/q6/t7tj3QUpj1z//8z8XXv/71umQ5UYClMMsuthZ3yo3/PNB6ThZo6dECLe3Qev0Xq7YXX1UFWb95UVH8RuldtjHQykMF7di5z33u0woVvAoYFDapXV6nsi9+8YudQKuvfa7afPWrX+2EHCeeeOLcAGzR5DuHcnTOtpNIa+bPJ9cHMXpuIY7G1lpqDEPHVf1QyOfNd3rZ9fZBoMbT2vvj7A+2a00BAAAAAAAAAAAAVpW+YOnv/u7vive85z3Fa1/72uJ5z3veUgRa1157bXHmmWcWz372s4vvfve7xete97rizW9+c/G4xz2ueMpTnpLCLeUyqlfZkNZ+ITu0vvGNbyx1qJWHWZsJtfJAy75yUI8v/2xR/Pj6onjrFUXxuI8UxRv2Vu0UZv3fOsj69T1Fcbd3F8WvPnV+oKU5XXzxxcX115eDbgKFHrZDy0KTHAtbfOhirw2FDVGg5Xdb+Z1gdiwfVgi1sxDLP98X9nWNhOaqwMTO39Aa+FDI1khzv+1tb5vK/fM+/NpqvkOBll/Hq666KlwftVFb0Td3oTYKv/y1HMOBsKYAAAAAAAAAAAAAq0pfsPSpT32qCbJe8pKXpEcjv5e8XYGWBVgWQvldWapToGU7tN71rnf17tbq26GlMRb2G1pbGWpp4h/72MfqVxWXXXZZKp+KD7N8qPWa17wmPY4NtfJA6+mfKBr1+1kf/2ZV95FvVI/vuapsd1FR3GNPUdz93UVx19K7/FVR/MpT5gdaSlo1t3POOWdT4UIekCggUFCgch8s6LzzHVTepz/96XMDrXxnkUIKtfGBlo6pOh33Ax/4QLgbKd99NI99XSObU6Tf8aRz0LytzkIYH8r5131r+oIXvKA30PJYfz+HHNWdcMIJg9dOc9b1G9ollbOsawoAAAAAAAAAAABwoPLxj388/AkklanOEwVLX/va11KY9bKXvSzV/+3f/m26jyu+9KUvpYDL5zLbFWgZ+Q4tH25deumlrR1XamsB2DzVdmGBltiqUEthli7I+9///vRaIYhe5yHXPPIwS6/1XH7/+9+fFGrlgdaTLiuKJ5fvNX3N4BPKaWln1ofr077oqjrIKrUg61f/sih+ufSXRgRaChMUKmhumwkXFAYoIJL6ij8LsAwLFPIwRa8VShhqNy/QmrdDSx522GGpv37jyb5y8JGPfGTqLzRWHvbMY1/XKEdzl5qLdkjlaF2k5ujDGG8U2tgaR+eo9va7V9F4kX0Blc1vX1j2NQUAAAAAAAAAAAA4kLCsw/IJw2cXPveIgiXtdlI7/USQ8IHW3r1703O1MRYZaNmuLP9c2A4tayt0zq961auaddDXFNomJrVJgZad2FagsGqs+xpqKczS3F/96lenRwu3pqDvlVRf/2bRa1sTH2p99KMfTWV95IHWKWVz/V7W4z9S/WbWI/6uKI54b1G8+B9mXy+49ldF8WulCrLufGFR/GLpnZ487je0rrnmmmbr4Ac/+MG6dBgFBxaOWBCgQCUPCaSFXL5PXt/3G1pTAi0FFm984xtbfSzcsgBGfTYTXGxmjTw+SLHgSWguPjiK5mdl+bnaOWldFN5pbJVprCjQ8se1tbHjGnm7CH/sfWGZ1xQAAAAAAAAAAADgQMIHV5ZTRGVGFCypzYtf/OL6VRfdz1UbYxGBlnZUaVeWzHdaSduhZSiwytu89KUvbUI6Y78FWtqtta9YqLWZMMv40Ic+1HpDaDy/Jgq11GYe/oL+xjNeXzzmw0Xx6LLbeulJf1MUh73HBVmlCrJ+RTuyFGKV/sIFRXHou4riF0cEWvu6UyYPmowoGPFBi+p8+DIm0Jr3lYNnnXVW8dWvfrXp40MLfQ2igkQbewr7ukaag593pH0Nom9roYytlT9Xw+qkna8CPFtnw18PlSsIyr960frnqNzPNXJqELTMawoAAAAAAAAAAABwIJIHWP65zy5EFCzpa/0UWvWhOrUxtivQ8l8xaLuujHyHVoTqFMzZOVswpkehMRb6lYP6LsetCrOML3/5y/WzrUFvFDkVf0F//emvL+5eerfSuz7t9cVa6V1Kf+2pry9+tVS/k/XLpfp6wTs/+fVpV5aCrF940uuLO5bOY6t/Q8vwAYph4ZXCAwsUfJm12ewOLeH7WNAj1F8BRz6nMezrGuVoLvnuKD33X5WnNgrhdD7Rudp66Ler9FrnaeemsYYCLUPt/I45tRmDX9fNssxrCgAAAAAAAAAAAHCg4kMtGYVZIgqWLrjggtRHXy+YY185qDbGdgVahn2NoA+4ct/61rfWrasgSzu2onam7ehaWKC1HWHWdmBvmKmMvaAf/vQ/JfcF3fS/+OKLNx0q9IUAfQGKD7T0NXkKmfzXw+nRB1r2lXJDqo3aCj3qGNqNZeGFxtJxXvjCF24q1NrXNVJ/naOdp+ajc9RuMs3dn7/N1coUHFnQpHOx8EXn4AOoPNBS/3ydouuRt9OxNYchtiLQ0rGXfU0BAAAAAAAAAAAADkQs1OoLs0SUQ+jnnZ7//Oenr+j7/Oc/X5cW6bnKVOd/AmpRgZawUMt2Wem8tAtraKeW2vrAy7OQQOtACbPEdgRap7/hLwddJLr5rxDEwhQfjOTmQYHa+1DEAgq1teBBIYPtturDBxL2Wn1OOOGE9Htaebhhx1lUcKFztJDIr5E/vgUu2m1l52LzzIMjW3PpAyq7BkJ9+3Zo2bHUPwqv7Li2Zn7O88znul0sak0BAAAAAAAAAAAADlQU+PSFWaIvh/j0pz9dPO95z0vZhr5iUOq5ylTnWWSgZSig0k6rZz/72eH5qb3VWaBlO7d8uLXtgdY111xzwIRZYjsCLQAAAAAAAAAAAAAAgH1hKIdQBqOvFtSOKKnnfmeWsZ2BloIpBVd6tBBLWijlyzRHbXCx9tZX2o4uoecqU9+F7NBSqHWgsBWB1re/9x/F3q/8a3HZZ7/YfMXgPNVWfdQXAAAAAAAAAAAAAADAsxUba7Yz0NpuFvYbWquOv6DR1wpOEQAAAAAAAAAAAAAAwEOgBVvCslxQAAAAAAAAAAAAAABYPQi0YEsg0AIAAAAAAAAAAAAAgO2CQAu2BAItAAAAAAAAAAAAAADYLgi0YEvQBUVERERERERERERERFxmpxKNsT8k0AIAAAAAAAAAAAAAAIClhkALAAAAAAAAAAAAAAAAlhoCLQAAAAAAAAAAAAAAAFhqCLQAAAAAAAAAAAAAAABgqSHQAgAAAAAAAAAAAAAAgKWGQAsAAAAAAAAAAAAAAACWGgItAAAAAAAAAAAAAAAAWGoItAAAAAAAAAAAAAAAAGCpIdACAAAAAAAAAAAAAACApYZACwAAAAAAAAAAAAAAAJYaAi0AAAAAAAAAAAAAAABYagi0AAAAAAAAAAAAAAAAYKkh0AIAAAAAAAAAAAAAAIClhkALAAAAAAAAAAAAAAAAlhoCLQAAAAAAAAAAAAAAAFhqCLQAAAAAAAAAAAAAAABgqSHQAgAAAAAAAAAAAAAAgKWGQAsAAAAAAAAAAAAAAACWGgItAAAAAAAAAAAAAAAAWGoItAAAAAAAAAAAAAAAAGCpIdACAAAAgKXjf9/xdxAREREREVdaAJgGgRYAAAAALB3Rhz1ERERERMRVEgCmQaAFAAAAAEtH9GEPERERERFxlQSAaRBoAQAAAMDSEX3YQ0REREREXCUBYBr9gdYV5xeHnXpZ/aJGZUedX1xRvwy55PTisN1X1y88VxdnHPXE4oyy88WnHl/c5BYjbeZwWXHyvGP3Mjt2xBW7nxgfOzA+NwAAAADYSqIPe4iIiIiIiKskAExjWqBVojAqCnUUCqXyTqBlQdRAqDQmKPOBltoHYVMymHNF2f8WpxcX16+GGQ7AAAAAAGB7iT7sISIiIiIirpIAMI0w0DrjKB8SnV6cPLCj6uRL1ENhUVSvACkKtPra56q/+rXLDzv19OEAbCjwyqzmX3LJ6WG9t2kLAAAAANtK9GEPERERERFxlQSAaYzaoaVdWVGYo11ZKrfHxKgdWlZWku0Emx1LoZfbUeV3cfnnY+n9KsQaBVq9u7uycwQAAACAbSX6sIeIiIiIiLhKAsA0JnzloAKmKpCqfnPKwqbuDirvYbvPnx9oZX2iQKs6purLsqBP5cDXBE4NtLL2BFoAAAAAi+N/3/G3ERERERERV1oAmMZwoFWHRCef6gMsQ4FTsHOrExxZeLUvO7TU/onVriyNX3/l4BnlvGYBlsbP5+gg0IItZO+fn1fsOu3K+hUAAABsNdGHPURERERExFUSAKYx/BtaFvAo7Gl2QXktQOrbpaX6fQ+0qjAp62PhloVOrUCqbz6ZNp7IAq08wCLQAs/WBVpXFut3PqvY5Vz78+/UdRHfKTYeNK9Nlz2nnVWsf7B+0aEas1uv8kuLPfWrkC9/sli783nFxpfr1xEDbdI63nnMMea0GWLe8R/0yWJv/bqPeddb6zvlmkxtX3zw0mCeeu/MWfsOm3v/AADsD6IPe4iIiIiIuFye8453jjbqf6B55994ZPG8V+wu7nj3h4f1Kle92kX1uQAwjQlfOVgR/56W2x3VhExWNiLQyoKmPNC6eLfauj5N+KQ2GtOP3YMPvyKCQIxAa4eTgpB22DRWC4cUXET1MycGNQo2Joc73yn2frA+lyCUSXMMQ50q/BgMfOYGWvUYnfPWGnXDvEY/z06g1TdmvC79YVQ1Tn/QN2P/Blr9IdSYQG7+e9A5ItwDAFgU0Yc9RERERERcLqPgqs+o/4Hm81+5O53L6We/sRNq6bXKVa92vq5PAJjGAgItYyDQcseJv3JQzPooXGrCqToQmxs2zQu0HBpf4ZbmooBtbD/YCVS7YtZPU5BwXha0jGXkzpoUXgWhwxij8KUO6HyAkwKRwXOow6O+MGcw0HJBTBDENaFOPa/egKcn0GoFUVHQV4/bWRsLbfrqm/MZCNwGrfvvw/VrnZudf+98A931Gh2eab4EWgCwREQf9hAREREREfenCq3+6E/f0Am1fJil+jzs6hMAprE9gZZ+40q7rSy0SmSBVr0ba9gg0EoBVl1uYdbuEaHWmECrHs9/9aCwYGtuaAYrjQ9/Zjt2qtCjLzCo+gSBw4DDY2WhzRy25PidQMmR6uJAK+0McsFKmksTmJTr1gpPuiFVPHcda0qglZW50Ebza40hes4nzaUv1CsZHRoJF3R1jh+Qr+NUUv/WGg5IoAUAS8TPlB/uEBERERERl81Ds1Drrkc+thVmqT7qFwkA0wgDrdbOJH0Vn0KePvPQqxMcKciq2zYBl9uh1Uu8Q+uMFKjVgVgnMKvmY/MfZT2mPe+fUzU+odbOwwIBH1jkAUcTvswLHqLgZQz17pzRockc2uHSPjAQaBlxMNVjNKfOmm1BoGWPdXHDUKAVzdc57tooAL20WFcAdtqlxdq8a5Bf93Se8fEbszFHh219awIAsJ/4mUPLD3iIiIiIiLjUKsQZa9T/QPXQuz28+KOzq1DrjW//i/So1yqP2vcJANPo36EFsMOxIGv9tBEhQu5pV04LcnJbwcKEr74bGUjMD7Sq0KgZNwV1m5tHOtaYHUY9gUp1HbY20Noox9R17QQ9UZ+SeecwNjSydvaocYd2adl7cFQg1YONMcqR7x8AgEUQfdhDRERERMTl0gdW84z6H8je9YjHNmGWHvU6ajckAEyDQAtgHqN2rlQhy1DwkIKFMcFOCxcszek7P6SaMblt37F7djR5Uv88OOmzM6d2iFaFP1uwQyu9qMZujTMUaLl5RM4NndyxLdCyHVv58RKp/aXFuntfjVrLbA1nx5rDqPc5AMDiiD7sISIiIiIiLoPaiWVfM2ihll6zQwtgeyHQAphHCkuC4CCwLzgYHeq0AoU6zDptwm4v33/CvHP9eaRj72ugNSbICwIV9U1fzZdCHwugpgRawfn5Y+Tzj8YpmXcOc0Oj7Dit9sF5iz2nqf38oHQeKUiN1iEymAcAwP4i+rCHiIiIiIi4v/Vhlr5mUDuz7OsHp4ZaADANAi2AefQEDm36g4cmUJg3RnYcH3qMCYVSmzGBhAU9I8OLwWOPDbR8aDJka05a03LsD+oYPmSaEmhlZcG1TNfHytw4k+ad21qv7k6wVqBVkuYQrvHWBFqj+o96nwMALI7owx4iIiIiIi6XCnHGGvXfrNH4fUb9N2seZll4pcfNhFoAMA0CLYB5jLrRHwUPVVnqm4ISF3j02XOcrQy0bCwFHa1QqIfBY48NtObMPZGtc9OvE0wpIMqO6YKohpGBVmu8vmudxoqDoRRG5cdpqMKsvF83ZKrfK511yt5XY95Hc9dac+qbLwDA8hB92ENERERExOXSB0fzjPpv1mj8PqP+m/V5r9idxvRhlulDLbXzdX0CwDQItADmMSZEqPUhRWvXTV9Q4hlok8Kd4Hgd5x2jFUCNCza2JNCK5hrp5l995V75JA+monVK16huY89HB1qOTn0dNJVz8+FfvibNOfp1qkOwaO3iXVNV+NVuHwVa/dcsn9fsPehCuy9/p9iT5tsdR+3HhJwAAIsg+rCHiIiIiIi4P73zbzyieP4rd/fuwFK56tUuqs8FgGkQaAHMY14IksiCh5wURFTByKA9xxkMlWpSm6F51gFLa45zAhLROrbG8PNIYw4HWg196xgFT55Wfc86+/Ow40Tj9s2hxq9hCoPsmqSx3HXqqDWYhV9ar06g2enjtTXMd3TtQ6DVujYu0KpRWxu3mmt5nunrHQm1AGA5iD7sraK3usMDK29/fGX9OmqLiIiIiIirJQBMg0ALYBHMCVISA21aQUUPg23qQKUTBIlU1x9K2bgW8LTGaIUmbVK/FNZsQr8OLpiqxgwCnbyN1qEvhOq9DnUgNWedxeBaj0BrGV6LDpsNtPJzqYKyOKjK6rRu5RoBAOxvog97q6QFV7c85AHFQQcfUxxyl5OKx5/2+uKE9RcTaCEiIiIi7hABYBoEWgA97FMgk4cddaA014mBVrOLqLYbWFRhxVBglbDwJzh+c4xobqnfnLFrql1AQQjkwqgQqx88lp1nZVqHaNxWaOh2VDW22+frO8roHDP2LdAKjuntOf7g+7nnfQcAsD/5mUNPWDlvdQftwDq+uOXtH1Dc8pBjioNud7/isOOeVDz5JW8r3vXhf03+wt0fntpE/RERERERcbUEgGkQaAEsglaQ0sOYNhOwAGPK18c1oUcTigzt7CmZF2il+io0GR5jINACAIAdSfRh70C1CbIOObY46OCjizve7SHFI554RvGGd3++uOCjX2vCrLse8fupDYEWIiIiIuLOEACmQaAFAAAAAEtH9GHvQDMFWbc/rg6y7l/c/d6PK561cX7xzr+7KgVZ8sKPfT2FWac87/Up7CLMQkRERETcOQLANAi0AAAAAGDpiD7sHSjOgqzqawV/59EvKs4497LiLz/29RRg6dFUmKWdWmqnPtF4iIiIiIi4mgLANAi0AAAAAGDpiD7sLbMpxCrV72Npp9VtfumE4tFP/9MUVinEkn/18W8kLcyy3VnaucVXDSIiIiIi7jwBYBoEWgAAAACwdEQf9pbRJsiqfx/rTr/xe8WTXvzW4twP/EsTYr37E99K5oGWwqznnvFuvmoQEREREXGHCgDTINACAAAAgKUj+rC3TOZB1q8e/uj0+1gWWlmIlYdZFmjp97MUaGknl3Z1EWghIiIiIu48AWAaBFoAAAAAsHREH/aWwTzI0tcFKsh6999/pwqvysc9em6vewIthVmPeOIZ6Xe2CLMQEREREXemADANAi0AAAAAWDqiD3v72xRk1b+RZTuyUnBVh1jeoUBLu7POec/lxUG3u19xq9sfFx4LERERERFXXwCYBoEWAAAAACwd0Ye9/WXalXX741q/kXXRp76bQis95mHWvEBLu7OOe8SL5u7OSsdl9xYiIiIi4soKANMg0AIAAACApSP6sLdoLVBS8PRzv3h88fjTXt8Kssx5gZZCrAs/9vWkdmedce5lKRzLwyo7nsIz7QSTP/sLVblvh4iIiIiIqyEATINACwAAAACWjujD3iKtgiz9Ttb9026qcz/wLymk2vOpfy8u+nTpvEDLBVnv/Lurile/6W/Tb2bpqwpTmHX742YBlo6lAKv+Xa7b/NIJxVG//dTiRa+9pHjoH55NoIWIiIiIuKICwDQItAAAAABg6Yg+7C3CFDBph9Qhx6Tw6dVv+XAKsZogKwuz8kDLdmUpxHruGe8u7nG/xxc3//mjilvc9t7FLW533xRYKbhqdmHVIdYhd3lwceLjX5WOd8Fl3yze85nvp8dfuPvDCbQQEREREVdUAJgGgRYAAAAALB3Rh73t1nZKHXS7+xWPfvqfpvCqFWT1BFrN1wuWj6/48w9UIdZtjkxBlrzLvR6dfnfrnPdcXpyw/qIUYEl9jaF2f6XQ7NPfKy76xx+21E6tFH4RaCEiIiIirqQAMA0CLQAAAABYOqIPe9uphVm/8luPTr9xZUHWez6ThVmmC7LOeueniuMe8YIqxKp90O+/LIVbf1n/bta7PvyvaVwFXIcd96S0e+udH/la8d5/+nFHhVn3ecjz0i4xwixERERExNUVAKZBoAUAAAAAS0f0YW87VXCkXVNveM/lKcxSkGVGQZa+XvAPnv1nxS/c7aQUYN3sNkekEEu/laV6/XaWgiw9/v4zzi7ud9Izq/q3fLi45PJuiGUqzNJvZ+m3uwizEBERERFXWwCYBoEWAAAAACwd0Ye97VS7s+54t4em0MqHWRZoKaRSmKXASuHUzW9zr6SeayeW7dZSgCVfcvZ7igc+8gVJC7Lev/ea4tIv/CSpUCsPthRm6Xez9Ftbms9WBFpvetdHipeeeUFYtyiPOP6pxeVX/7A47ndfENYjIiIiIu5UAWAavYHWxaeeXlxcPy+Kq4szjjq+uMktvL7euKw4uaw7+ZL65RCXnB6MUR2n3b977JPLufnXM59YnHFFT59yzCt2P7FVdpOjzi9ScwAAAABYKm516AMX5i3vcFxx0CFHFw99wkbanXXxP3y/CbLSVw9+6rvFk17y1uKXfvPhxc1uc6/0+OTytYVY5l99/BvFU17+9uK+Jz2zuNdxT0g7uP7qU99qBVnzAq0jf/spaS6aUzTXKWoMBVpf/V5R3Ov4p4we8yVnvmtTPvOlb+mM5edw8jPPKh5+yquKh5386sbb3/XhrdfetSP+oDPemW+6pHjfZVdOdivWExERERFxqwWAafTv0Lri/OKwJvBRQGRhkVBwlYVRau/Doo55/6BNeYzOGDYHjX/qZal3CsPq5wqpqgDMz1HPZ/OzNno8bPfVdWk5BwItAAAAgKXkVncoP+AtyFve/rjiFre7X/Hn9dcNWpD1xvL1w055VXHrOz2guNmtD09BlcpSkFXv2FKQ9c6/u6p47DPOTvXyWRvnF399xbUpyPIOBVoKszbe9qE0D80nmmefz3zJW8IQ5/2X/XNSYZIe3/exK8J2/nh6nsrLttbf/Pg/fb0ZK1ftz3zjJZ2xNDf16VMhlx7T3Jwqe9mZF3TnVtbpeL93yqtbvumCj6Y+feW3X3t4ayxERERExGUQAKYx+JWDV+w+vQqIFCC1wp92oNXsfDr1/GpnlAVPog66ZkGSdn/Vbdy41Rgas2eXVx5oWeDVkh1aAAAAAKtA9GFvu7zlIQ8ofvEev9sEWWe981PFkSc8pbjZre9VHLr2oLQ7S+UKsWzHlp6/7QP/koKse9z3ccUDH/n8YvcFnyw+eOW1xQf2XtM4JdC69Z1PKOdy7KTgRW0V/ERhziOe8KrikadW6nlen4c9yXItDrrd/Yub3/Y+bX/+qOLlu6vjaDy99vUK4tRP/W0sC7N2v/nS4o53PbE47RVvTq/veNeTSh+SfEQ5D5Xp0cZSucpSoFWOZ+d50CHHVAHax/+5fXw3N43d1LnyQ+9GoIWIiIiIyycATGP+b2gNfDVgbyjkA6d59XNsgq1JO7S6zHZnKTDrbwcAAAAA+5/ow952qRDptD++MO2+utuRj0lB1i/d8+Hp97IUYKUQ69OV9jWDCrLufI+HFg94xAuKN3/gSynI0q4sH2aNCbSkwqxHPf3s4qCDj54UuljI87I/eVcY5px62tkpRNLuspvd5ohZXU/YkyzXQuGUtTHV/5VnVe3X//BV5esjW/Vqnwda+u2sCz7wD8X6qa9KvuXC6qsH1d+CttNeXoVcem5j6jxUpvnp/Gw8ja8w6/0fv7JqW5+Lnr+intuhd31Iq7wJunSOdTiGiIiIiLgsAsA0wkAr7aBSoOR3WvXS3Q0V7dBq6hRwXXJ6a8dWHxZWNfNJPrE4Y/fwDq3OTqwhy/kAbAl7N4q1XWvFxt769RT2rBe71jaKzXTdN/YU6+m45eOu9fK/XfZurBW7du0q1npOTPV9dQAAAJsl+rC3HSoo+dk7PrBYO+KxKUxRoHXGuZc1QZZ+S0vqucIsBVl3vNuJ6asFX3fR54q/+ecqyPKODbRsZ9a5f/eV6qsGJwYuKeQ5+Oj27qQ6zNEup8uv+mH6mkAf/lhYFYU9TXB0yDEpPDJTn3JtfKBlYzXtynn48EnB2AmPeEEKn+QHPnFl6qs5WZk8pw650q6veo6tQKsc28bU8RRoXXb511Odgjyp5xd+4B+aPlG51kNzitYREREREXF/CQDTGP4NrRRMBYFVbSuUyoOrjvmuqJ7f0UoGO6g2vUOrOo7m2nzVIcAI9qzvKnattyOeFO5kwVNTtiKBlgVYjdka5BBoAQDAdhB92NsOU4Bz8NHpKwdf/ucfaHZiWZBlu7JecvZ7UpClnVv6rSsFWdqVZc4LtPKdWe+67JvFq9/y4bQz65d/61EpbNFcojn2aXNX2JR2JpWPFjIpzFGQo11aTfCkoEqqTx1qKTxSvYVpDzv51cXDT35Vy/T1haUWPmlXlcrydvIBD39+FUDVO710DO0Qs68blBrnbkf9QdoJp3DMj5mO9YSqTOfQDbSurEMx9xtedcilPn3lBFqIiIiIuIwCwDRGBFrZ80QVcjVfByiyNrOv+Ku4+NQg0Or5Datu25LOHCpmgdaM9o6u7OsS8687ZIcW9NEJmfYWG2sKedqhlYKvfQ50lizQ6suwOmHXgIRcAACwL0Qf9rZaC17u/aBnNl8rqBDr4n/4flJl+p0s/UbWHe/64OIpLzuv+LsvX5/CrL/9l+taoVYUaPkga8+nv1c854y/Ku77kNOKW9/pAYV9BWAKm+qdTdEch1Sfux75Byn4aXYmnVk9KvSRrXJvvYNJPutlb07roN/SUvizL77vsivrda1/i6s8RwuztEvrcc9+XfHxy7+e5qavCdRXEeZjmJpbFGhJhWFp51k5vp6/4iz72sUTW+W2q4xACxERERGXUQCYxvxA65LTU2DkAyoFRp2vDFR7HxR1nLJDS2btXaA19JWCs91aQXkQZkWBGkCis+OqCn3W13e5wEch1yZ3ZXkOkECrQ1ojBVjx1xUCAABslujD3larkES7lZ61cX4KryzIkgq3tGNLu4v0O1l/vfdHKcTyRoGW35WlryR86CkbxaFrD0oBltRzjadwS181eOQJT0nziOY3T/U7/veeP9uRVGuBkIU/vk5fQZjqXNkZb7q02b1lu7G0S8qrnVT2tYF61FcE5m3UT/Oxry/Ub3O96YKPNn20w+2nf/aeaQ0UZinU0vnr9R3XHpx2izWWrxVK6fpoLGmBlsaqfhfsyMpOoKW1rsoJtBARERFxmQWAaQwHWgp9sl1XCoI6YZbIdlDtyw4t0WnfBGbt8miHVhVozXZmNW1av901fHyAKqxy4ZVCp/JF2qVkhSnQqcMc/zwFRGvFxkbZJ9yxpPr2jqZ2oJXXzwKj9o6wql1rjvU47d1UfYFT9zgb4S6sKLTT+lTt1zY2ivXRKRgAAMB8og97W62FJNqFpQDLB1r6msE73+OhxSnPfX3alWVGgZYPs/R1hCc+7pWF7cJSqKLQ5ikve3sKsPzvZ/35ey5vAptofvNUP/v6wLQj6TZHpqBJAc7uN1+awiMLflQvFWjZ72qlcvstrHIcG6uqqwK46hwOT+egcaWCqBTSlefm22l8v+NMu8cUmCm80nwURJlN2FYHVP612qbxyrnYWHatrE0VfD0k/f6Xns+Cq7o8eVI6NoEWIiIiIi6rADCN/kDLhz/NzqYnFmfsrp/nX/+3mR1aowKt2W6rbnA1FGi1j88OLdgMPrxSkJSeKriy8KkOuRKdQGtXVmehUBZClaTf62oCraq+FYDpOPXYrUCtLF9bm/2GVRN2teYyRHmsVpBWjb++Xo7bHL8KrvKxbD3UPrXVXPycAQAA9oHow95Wq4DjVw97VOtrBqXCrTe+5/IU4nzoKzeEgZbfnbX7gk+mnVg+4NFXC+o3svzXDnoVaOl3pDb7dYMyBVplfwU9VaB1RPrNKAVOdzvyMcVP/5/fqudThVf21X96rOZaBVr+97XSWHVAZqqdBUZvqX9HS69Tf2unPvVYtkNL46lMx1JodeEH/iH1y1XoZGr++u2rNJYL+3ygpeNPlUALEREREZdRAJhGf6CVsGAo+x0qYeGQBVvZDq2ccIeWD5c65u1r5gVnKaRihxZsEU145b9acPa8tVuqE2j5XU2uv9tF1eDLovrU3wVq9XH2rGtMC6X8HKtQLN5Z5bF20sYsj7Nh512i4/n0rcSfdxNolbTWAwAAYB+IPuxtpRa4/PajXtTszlKwpefanXXfk57Z2Z1lgZbCrL/48FdSvf86QYVY2qHlv3bQ68MshWAKaCyw2Yzqm36r6uCj01hrRzw2hUYKcBQMnfbyN6cgR3UnPOIFqVz12nGlEErlaWdWuQ5prDTesVW4Ve/YUkBlffXbV//rZ349jWFfF5jCMGurceowSzaBVrk2CqIUXqWvFkxfL3jiTFdW7cD652ptyrH8uarMdmg1X3l4yqvT83PqoK2vnEALEREREZdRAJjGnEALYKejwGe92NMEW3Vp2p3kA6SSbQ+0bDx7ngVZe9pzrFDdULDlx3CBVvkkPMd6PB9a+UBLqF+zgwwAAGCTRB/2ttIUuBx8dPGUl52Xfj9LQda7Lvtm+m2ruxz+6BTCvPcfv9sKsuQrz/mbtPvJQiw9V4hlXzmY2xdo/dYDntQESdH8xurDIwU+9hWHFuQoeNLvWOlRQZCCI+2sqgKjY5v+0ZjyiOOfmvpqLIV/+hpDPeq1vk7w9msPb7XvzOt290/hmY6tPmNUoJV2emXjac4nPPJFyeqrFOvdZ+Vz+w2t2VchVuXaBaff/8oDMkRERETEZRAApkGgBTCHFOy0voKvRKFTWdb6ur6xgVaqq0Kjijp0asaq6jvHc8dKIVI5ngVH9rrpU85lIxs/zJia3Vdqo7nr2P4c2vOwsCvNp9nZ5a3OMQ+1PvGJTyAiIk4y+rC3lSog+dk7PrB450e+loKsxz37dcXBv3ZiCj7kcY94YRNm/dWnvpXqLcTS72M96cVvTYGX/w0t/1tafYGWfj/rdRd9rgpYXGCzr6bw6OCjq68IVKBTeuppZzdhlNTOKu1aGhvuPODhz2/6V19TeHijdn+p/H0fu6K413FPCftrTgrNdDwFWgrZ1svjK2DSPLwqU539nla+Pq3zq4Os9FWH9flaoGWBXbUzzH4L7MhOQIaIiIiIuAxGn4UQsV8CLYB51OFNOxCqwp7WTqTRgVZJKxAqyzfK163dVfX4jTZuTTqWm1N67Y+nQ7j+7ck37G12V9WBVgrq1NZCtrLeHydgNgYAAMDWEX3Y20oVbhx6t4cXD33Ca4pb3/mEFJakHUulCrre+0//nr5WULudLMjSVwoqjPK/n2WODbS0O+veD3nuluzO8moshVQKghRk+R1aCqMU+Fg4pZ1Vz3zJW8JxpHZdvezM6jez1OfU085KoZEFRRYqWailNmqvfvlYmpcFWvrKQe2gqr5e8KS2ZZnqhgItXRsFU6qT6WsO6x1g+v2tFGiVY/m69Lx83Or1RkRERETcCgFgGgRaADuY6je49KwKtNb1WuFaJ4wbE4oBAABsHdGHva02hSSBd7zbw4v7PfQ5TXCj3VnapWVfO2j6YGtsoHXu332lCmu28OvvHnbyq4uXnPmu4oL6t61SaPXxK1OQdce7Pjh9TaBUYKQQ6uP/9PXURo/q68dS0GVjaDx9ZZ/CLK1FCofqrza0nVH6+j99RaAFW5qHH0/rqfaaj9qMMQq0bKxItX35bgu0HtKEV7l+LERERETEZRAApkGgBQAAAABLx63ucPx+8Za3f0BxkAKb2967ePqr31H89d4fNV896H9La0qg5X876+FPOqs46JCj03Gi409V4yiY0lf/6beynvWyN9e7yvS1g7OvCGxZ1r1897uK9192ZXHXI/+gmYsetdNK5dWurKr9zX9ev7l132oHW9mm+hrB+6Zya6OgTAHYEcc/pXVueq62Cqm0Q+uOayemkK2zQyuVneh2aJXHc+P0qTa6Xjp+0++QY8K2iIiIiIjLJgBMY1f9CAAAAACwNEQf9rbbFI4ccnRxwiNfWLzvCz9oBVljA618V5bU7q5XnvPB4ikvO6/4P7+g3UJbF2ZVX8NXBXApYKq/HlHqtcoV8shZG319YFlfvlbfNE49VmoXtanDrOi41fG0i2sWfPk5ql1qU4dfzdyceX0apz7ekGn8g+/fnFt+fERERETEZRYAprGrfgQAAAAAWBqiD3vbrcIRBSIKsz70lRuSYwItvzvrzR/4Ugqv9DWFxz3ihcXdjvr9FGIp1LGdWWOCmjGmsdJXAM7CqvRYqjIFPaq3Y+q55tG0L01tmvo60PJj9Owmsz7q3xpP4Zdrn9qUY+TjRqb6+hxsXv6YkX58ObYfIiIiIuIyCADT2FU/AgAAAAAsDdGHve1WwYgCKAuzhgIt25llu68e9fSzU98Uqii8Ovj+VRikQKne3bQdQYsFOul4rePOdlTl7VOwpT5Zu9ZYA2N4q/GODcdr6jvjak3aNvXWpu7nj9VnaqvjaqwJ/RARERER97cAMA0CLQAAAABYOqIPe9upQhCFKfrdrL5Ay8Is7cI67Y8vTDuwmt1XZd8qnKkCnUUFK/5YU47Z176vfJ7z+o0Z048xr23uZvogIiIiIu5vAWAaBFoAAAAAsHREH/a2U4Uh2l117t/+cxhoqVxhV2sXltuRRJiCiIiIiIhTBYBpEGgBAAAAwNIRfdjbThVMHfxrJ7bCrPf+43eLF772kuLIE57S/D6T/zo8QixERERERNwXAWAaBFoAAAAAsHREH/a2UwVaj3vun6cg63UXfa747Ue9sLj1nR/Y2YkV9UVERERERNyMADANAi0AAAAAWDqiD3vbqcKqo3/3BcW9H/QM95tYfJ0gLq+Hv/qTxVXveElYJx/zjquKj7z65LBunvvSd65PuKi46qqrJvm2JwTjICIiIq6AADANAi0AAAAAWDqiD3vbqQVX3qgd4rK4mUAr9ekERp8sXnrMS4q3pcegrwKoj76+ONzGOeb1xUeuuqh4jL1Oqn8+bmUnjNJ4bt6ak59n/lpzIdBCRETEVRUAphEHWlecXxx21PnFFenFZcXJtzi+uElk06ZG/cryw3ZfVpxxVND+FqcXF9dNLz519rworg7az6sPzOcDAAAAAAcktyw/3C3Sg27/gJZ9dWH5IccUtzj4/pW3u1+lvT7k6Ea1O+iQY8PxfJkvH+szzrikOOJBz2teb5z3D616r9qp/djyId/8wa+F5abNaeq4U8zPXc+Hzv9AtgqT4uBo2CqssnEsNGrGTYHUrI0FWqnOBVrp9TEnFy8t6/2Yef+qrGz30SqMsrJUvskdWn6MA81D7/bw4rkveW1xj3s/Lqzv8/4nPi0Z1Q05tp/aaF5RnXzC007f1PGX3a06L11XjeVfaz29vr3aDr0H+uof9tgXrtx10NpovXyZzt2vZ14Xradfa6m18m2k1i4ad+h4UnX5HKWOE5UjIm5WAJhG7w6tK3Y/sThs99X1q2HUtgqVLIRSAOUDKaFgzJW1QjO1f2JxRpNGZW1b4/nnvl35nEALAAAAYCWIPuxtlwqQmjCqfPSBkgIold38dvdt6pKu/K5H/X7xa4c/qvilez6suOPdTkzqucp+5bD14tZ3Pq640z0fnvy5Oz8w9Unjpd/nOqYe75gmDLMyP8ch1VYBjs3tGWdcWrzn8qKlgierr9pcUpz0hLOa53q0QEvPVWchkV77sVSusrxPPi+NoeP6NtYnmpfa++P06Y+l5/7cTa2BzdPPaZW0HVpRnfShlLcKmvLwaXygVbWvwio7fhVSVbu28jZjw6i++R6IRjfa+7Qb6pvpYzf5p5gHJj6EsZv0CgX0WkHAKt64t3XrO7doXaNASf3tWuSvo7BE9UPHVfv8+sh5/Q40o7UZKpc6d10DrYOVqa1fE/XPAy17L+eqbVTuj5+Pb1rfvBwRcbMCwDQGvnIwD5nm4cOlEYFWyRW7T6/Gv+T0bHdVFGhlu7EiCbQAAAAAVoLow952qMBDwdShaycWf/rODxVHnPDkFDZZMKLn9z3pGcXrL/xo8ev3fVwVRNVB1ovPfk/xgEc8v3jGK99SvOtDe0Mf+eSN4sW7z29eP/CRzylueuvDize8+xOp381ue+801s1+/sh0/D95+982x4/mm6t2Kbw58fnNTjCFRM8syzSOVJ3aKITTcx8OqbyqO6ZppzEefGoVaKV1KPttnPfZFLZpbLXxY3h9cKWgSWu18Y5/SPOxNhpbrzWexrX2FhKm8rqP5m9BX+qjnW7W3o5Rltnc7Rjqr7naa7WN1u9ANv76wLZhoKVdXp2Aalqg5bUdV/mxokBrM7uzzANhl5ZuuNtN+a0IHzReFKT0qWPqRrv10/Ox87C+1j9qc6DZF1oMqT52DW2cvh1SWjPfzr+2PtExvGofhS7z5j72ui6jOuf8fKJ1H9Ler75M/X2gpec2nh79NbTrI30fr/rYOkdz9urYeX9ExLECwDTm/obWxacGwZEz+nrBMV852KAwq1PuAqyekEq7wk6+pH4BAAAAACtF9GFvO1TQcfPb3rt488WfSoGTgqub3uaIKlg55Oi0u8rCqLe//3MpjFL4pDYqO/PcDxY//X/+b/HUF72u+LN3fbhpe+Zb3p/KVOfLD73rA4uTn3N2en7hh7+UdnNpzMMfcEoq0zGmBFrV7qcqHLIgRyHZ6e/4bHHUSc9N81Swk4IhnVMdxqmNhWkn/WG1M8qCsDSOgqb0FYnV1ymmccvz1rhaL2llNo7aVX2Obeb0kHLsI096Xmqj9mp35IOfl46jvipLIZWOUz6qrY7/sCedleauNkfVZRZwpWOU66NgTHPXcTR3Papez9VPc0z1dQgWrd+B7GZ3aOVBmNqMDbRU3upXfwVidBzZOtbAXOUq7NCyG+q6+a3n0Y3vXLvJbjfox5iHGXYsu3lvN+r13G7E991w98e1Ntan70b/gaLOx9ZkjHbd8n4Wftg6Raq91tL62WsbQ23y65Zrx9fzobmPGWtZtfebL7PzHjrnXLXL35/qP/SeteOqr/19SPWxdbfXamvqtfr0rXneHxFxqrCc3HhjUVx3/Y3Ft394XfH5r/+oePc/fad46V9fXTzgnC8WT3/PV+pWsD8IAy0Lk/xXDl58qu3W6vlqvxRMlf1Ovawu6KcJyUa0FbOvNBzhyDEBAAAAYHm55e3LD3gL8KCDjylueusj2ruoHvGc4uY/r9DmvmXdvVLIZHUKvhRSSb1WoKVASq4/eaNpd98Tn5zK8kDrbkc8Mo1vr1V3k1vdtXn9S7/xsHTcgw55QDhfr9pYGCUVFGneN7vNkemczvnbaoeSXmtMBT7yma+5NNU/68xLk9Y/twqJqh1TCrIe9sSzkuorVab10fOb1euV2h98dHo88sTnpTY2D9OOq3mlHVZ1nyMe1N49Zqp/OkZ9HrpmBx1chWaao9qk61VqbTWvox783PS66TNiTQ8kR+/Qcn1udXsFV2WdAqp6jBRMWXmfdXsbpwmfXNkUx8zd3Jfj7A91Azzd/L7rwzt1feV93v9BT0tGdfJhj4m/Tm1I9VFfjavXmpONpzKrl7pJrzbpZn1ddqCq8/LnqnPyr715nfpG10HX0rez13m51DrOu/bqY2s9NL8xYy2r/hxNOx+V63l+fv59bq/9+9RUH2tna2evx+rH0xj5Ovv5q31+LoiImxH2HzfeeGNxzfU3FN/8wbXFP/zbD4t3/uO3i+de+tXi3q+/vPjvz/54sespH+0V9h/9O7QuOX1SoHWxfnPrFqcXZ+hrBEvDsKm0GVO/oZXCp/6vE2z/hldPkFajkIwdWwAAAACrQfRhb6tVwKGw46Y/d3izQ0u+828uL9JOLAVDZZ0CLZVZ/elvuiSFUCqrAq0q4HnmK85p2ijcSuVlfx9oPexxL0wh1zNeMfuawre899PpUTu3dEyFL9F8cxXqKGzSDiaFVOqrYMl2NCk0UqCUAh+FTQqaStNOp7JdFUhVc9T56rXmVgV0R9QBVRWCWVs9puOUWuBkpt1W9TEUUils0lxS6FUeI41RPipoigItPapMx3/WmZfU4VQVmKmvzlFtdN5aI83vIaeeldR558FZM6/01YfaBbaCgZZ2PQV1MgqdmiApC7R8GzkvsPL188OpTxYvPbrdf97czb75Lbt2I1yP+Q3zXLW3cGmKPmDRzf2hG+uqsxv8Q+aB1qppgYfWY2hNVBett/R97BpHr/Xor0k+nszXWn3svTA0P9XnQcuBoJ2THu3c/Xn65zrH/PxV5l+Pdd7fh13bvFzHt3W2905+zaIyRMSpwvai0Oon191Q/Nt/XFN84qvfL879zLfSDqt7nv354v95xsfCsGqMsP8YGWj538RywZJ2ZaVQ6rLijN3n1797Vda7XVLaXdUOpmqaQCt7nqhCrnZAVY4bhF5eAi1YKfZuFGu71oqNvfXrKexZL3atbRSb6bqs7FnfVezatV7sqV/3s6dYb9rtLTbWoj5lm7Q+vm2bvRtr5fF2FWubugAAALCv3PL2x22r9ntNN7vNESmgUqB0/4c8qQmuVHbTWx9W/PT/+c30Wju4Hva4F6Tn8hkvf0MKuqp2Cl3uFQRaCnIOawVaD3zEaWW5AqPD0tcSWrmeq1zhkeYWzTm3CnXuU4dN90rnohApfeVe+dzmdbOfPyoFO+lrAMtzfuYZlxRHPvi5Tb88ADKf+ZpLyvko1LpvCoU0jvqor1ToZMe9eVlXBVrV1xpunKcA6pL0tYdqd++TntMETnotNV4VNlV9dBzfRmtk49s5aFydt9rbuatex0mPNq9y3e38NFe1H7uuy6yCpDg0GuE7dhcv/egni5e+uv4KwXK8KjB6fHGrU2ZldhyV6/mtbv/i6usIj27Pw+pTm6y/mYKrvvJojoH+OAeCusEtD73rw4onPG0jPfq6vK1/nbd/2GNeUNz/QU9tXt/j3n+Qyuy1qTI7bp8a29rrGFGbIf28DjQ1/3zd+tbS6vx6+eugcntu19ja+dd+DFtvayc1hj++XUPf39Y+8kC8Hjo3m7ee65z92kbr7tdI561HW88+NY71kba2Q/q/M1NzUZ3171tzfw6IiJsR9h2FVj+89obiqu9dU3z0y98v3vD33yye8Jf/UvzKH3+2+M9PiwOpfRX2H6MCrfQVgU3g1A601OYK7cq6QoGTC72CwOkmt7BdXiUWYpVjKIjywZeO1w3B3HED2KEFy04KZNbb0UkKTbLgqSk7oAMtBUVRGFSVKyjaNeHcmjUZdV6bC7QswGrMrlUbjburyJtUoVtg09Cff7d/Xj88BwCA1Sb6sLeVpjDo548qjn/E81KgpMBKu64UVFnIdLcjHlH81P/+jfT8T9/5oeJ//czd0m9sWf0FH/pS+p0shSZybKBlYZOeW/l9T3xSCm2mhC46B32tnwVQCnB0ThpHoY6VK+xR+GO7rR5y6u4Uailw0lzUVoGTHu9z0rPTo4KhKNBSmY6pMWQKm0oVGuXhlOot0NJ4VcB0WBM6pRDM9dHvgaXf/SrXTPU2f1PH11csPvgJu1N7m4fqmmCrHlvHsUBL535Q2qF14Ada3hQiXXVV8bZTunVVYNQOoUwfPm1ZoJXatOdyq6Or39fqnd87Xtwpz7X5RXXLqG5s2812Pfob+LrhbTfPrb0993Vj9TfQddz8Jr43Dwr61JgaK6o70LWAyK7HUAgRBSvW1sbRc7vG1i5/be2i9fdrbddPbfRoffquhT+PA1mdr62RjNbJ69vq/P3rvjJp65uX96n2GkfaOvuyyHwMRMQpwjhuuPHG4sfX3lC/KtLXA/7+u/65uMOrPxMGTtst7D/mBlrp96uC3VM+oLp4t4ImH2jNGNyhpTHc2PZbWWF7dmjBgU4njKlCkTzYUSiyz7uC9lugZee0Xqx3zqOqa8o0x57dUTPq8XywE/VT+Necb3+gpbWthooDrfH5UTWv/vZ+DkYVVs36tOdWnVc2ZlnGDjEA2KlEH/a2yrQ763b3LX7uF49NYZK+8k/B1Kf/9gtpF5b9ZpZ2ax269sD0WP121m8m7SsC5WZ2aFno5H9z65FP2qiClymBVn0eGkthjsbVGGn88rXNKwVdKdCqwinVW9ikdgqA+gIt62eBVvpNqvJRYyrESscs1XOFZBaaqU8YaJXr0RdoqZ8dI+3OcrusVNYEc0376lzUxx4154c9cXfZp/qKQ5Wp3SqFWRYe5WFWHjI1u6CyHVLbEWildilgq9rZHPvCqGZuI+wbY1n1N9V1c16vFV5YmZ7bTfv8Rnj+2gccsi/kmHezXfYFBX5MH7LY3H3bA01b9ynq/PNgRWUay48ttT6+nX/t3wfqb+tqarx8TPW16913zFXSn6/M1z3X1tPa+Pa23tF7Vmtp17fP6Lgqi8bTcfPriYi4L8KMG264sfj3H19f7P3Wj4tL9n6veM2H/6142NuvKH72pZ9KIdKvnfHZumXRCZgWLew/dtWPbfRVgpNDoomBltsBNjveE2e/v9UK0QQ7tOAAp7Pjqgo9FPy0Q45N7sry7LdAa0YnmEvn70OeOaFQHvD4cCeN5cf36+bDJB8a+fLy+aIDrVbolqP2Q+MBAOw8og97W6XCDQUjFlwptHr3BR8tPl0+12O+c+rCD3+peMdffz4FK1VQdFjz1YR/8va/SaGJ1C4v63fyc85qQiUfgFlwJdXGyh/79LNS2WYCLb+LScGOvnLQ71pSmdopMNIuKKtTSKTQyQInPVqwFQVa1W9iVV83qP5Wp0ftlmoCrTqc8oGWn6NeW1maWx1QafeVyvIwrvqKxsPTfDUHO4aO58fV8VRv18nmqHFPesLulQi1FCSloOcdL64DpHb4k6vAy/fRGHm/fQm0Uj+306oVVA3swErtVnCHllQIYTe7dUNcr/Ob5arXTXHdSLcyuyE/xr7xfJm3LyiwOdhNez93m88qhipaC51b35rZunijddAa+XW11za++tg62hqbqsvHVD+bk/r0zW8V1Lnm56/z9euZG10Lf63yNTbn/X3k19FUWTSmxrK/E0TErXAnceONRXHdDTcW3/nRdcXl3/hRcdHl3y1e8cF/LR745i8WP/X8vw+Do1wjqluksP8IA62LT7WvBpy/K6r1VYQp0PI7uAJboZS17QZhTch16vnD4+WW4wMsJ1kIosCmfJG+6s4KfejTCoAUeKwVGxtln13V19G1d+5UgYjVJVvhSV4/C1vawVMWrLhgrP2VfFlYE9AJtOrz9fTtRlN55+v2fKBVk9q5+VX1Ogebnwu0WsfvrsdG6/zMvnBxE4FWfcywj1tnAACoiD7sbZUWaL3h3Z9IXyWonUCHrp2YwqzDH3BKocBKdQqcmufPfV0d4NwvPR7xwCcVZ577wRScWKijUEohmXzYya9KZVK7uKz8/x77h1UgU/ZRGwVjUn1VPjXQUliTdifVwZUdU88V8FjYo3YWNKk+hXBlH6lwqQqQquDIwib1t/HSDq2yrdr53VI2vlSolc7h4KPTsXygpTVOluNbeKY5aAwLtDbOqwIolesYGrMKtKpwS8dXmGa/BZbWvT4PhW9qn9ag1s9Na7UKgdaQ0a6pSB9ebWaH1q1u//jipR9tB2KzdrNyP17uKu/Q8jfW+26Im2oblfepm+h5CLBZNU5+fJXlN+p1Dqtw817XwYIPW0Odl5X5wCMPVvrWPW+XByN2zChMUbt8TJWprcr9OKukrcmY9czr1M9eq79du/y57yf9de4zOq7Kor9fzWUV/iYQcXlcNfR7Vtdef2PxrR9cW3z2335YXPC57xQveN9VxdFvuLz4/077eBgOTdGI6hYp7D/CQAsAtgcfXimMSU/9zh0funQCrV1Znd+R1A5KfNBj9Z1wqR67FagpNFqzYKgaJz1vzWUcTd+a1nFq8jY5e9ZdoKS5DbRNc0zn7MOkWaDVrHeibJMFSJrf+ro/hgvDOmwm0CpJ666gLKtTOYEWAECL6MPeVpnCDYUudRClR6/Kcqug5pgmGKlCqWqnUDXeMVXbOkzROBbsqFyhS1Vej1OajuXbTwxcbB7qn8IhaXNWWXlMHxr5+bT61G3seerXzHf2NYVqb+VJO5b1LR/9elg/C6SqwGwWTqkunXc9r9Tejdd3vGpOVSjox2/a1u38mti8onU80Gx2XE1xzm6ofNdWVx9otb9O0IdTPnyazfOi4jF1mbmqO7R0M93f6I5uiPub6GNuivub8flN9zE36nPVpy84yOdvWp+8fNkdWrtcazvvPC1YMX2A4gOtKMxSnfXz8/GBjLWLgpQDXVu7vnNT/bzrZGvV186uo38fz3v/+usm8+vh30d9+uMhIk511fivz7wsDIC2SiOqW6Sw/9hVPwLAImhCFwUiFtbMnrcCnk6g5XcLuf5RGOLLwrDEBTLuOFWAZGGPn6OOP7RjqUsnrNI89jHQyndQtYez+fowSWV6ngdMdj7Szr0cb8OuT4nWpTexcusXkh+vTQr3dGwbILxGAAA7m+jD3laaQpeJRv07ZXVYZfWNrtz3z9v78eZp/X241mjhkAU6PkhL9XWfpAVE1fO8X2s8Z6ttqV77c+nrZ2pshVnNeTTzaveZzaGeY/l8FoJVO878HKydXrcCvYnri5XRVw7OytthV2QTbL1jd2tn12RHBGC4OXUz327MD934R0RExK131YjCn63UiOoWKew/dtWPALAQ6qCjCbbq0rR7yAdIJdseaNl49rw8RmpXv97TnmOF6hQC+bnEhIFWa7xqrP5QSF3cccr+Q+GXUFC0trHhwiQdo/o6wXZff64u0CqfhNeiw7y5DwdaFWpjY+TXFwAAog972NaCIwuE2q9ngU8VAGX1Xl9nwVLqU4dN1iZZljmbY5Ra+9bcgj6N1sZbH8fmkOYR1PvX7TnUdSqvy3x5voaIiIiIiPvTVSMKf7ZSI6pbpLD/INACWDApMGl9tV2Jwp6yrPU1eGMDrVYwIqqwZRYeVfVD4VIKgsrxbMeQvW76lHPZyMbvD3MqOoFW3i8M2tpMDbQqdL7tQKsz1Wb3ldX7PsF6dZi3Bn68muaYhtrMzq/atZWFWqPPGQBg9Yg+7OE0m9CnNmoTOdQvr8v1bX37vHxIP97Y/nlb/9qXIyIiIiIuk6tGFP5spUZUt0ih+r20z3/9R8VbP/2t4gvf/FF6vQgItAAWjYKcVgAlqhCl9ZV8owOtknrMyrJ8Iw+L6vEbg7ClLG8On163wxUFVE3//iSnoRtoldTHCecQsF2BVrWTS2PV9Vq/dE5VULVLYZ5fjw51u+Zc1Cdf7/i4vk9n/NZ1LB2xzgAAq0r0YQ8REREREXGVXDWi8GcrNaK6RboVnP+P3y5OfOvexjf9/Tfrms2hQOkx51/ZGvOa62+oa6fz7z++rjWWvOGGWWj1lk99q7Umf/6Jb9Q12wuBFgAsH3mwM2D19YBxXejaRrHRBGVVoLWu1woBO6Fh2Z5QCQBgvxB92ENERERERFwlVw0fcGyHRlS3SLeCT139g9aY/+M5H9+nXU7f+/F1rfHkZ/71h3XtdN7zhe+2xvrNsz9f11Th2f/zjI+16vV6Ebu0CLQAAAAAYOmIPuwhIiIiIiKukquGDzi2QyOqW6RbwbXX39AZ95s/uLaunc5Fl7cDKPm8S6+qa6fzkHO/1BrrvH/4dl1TBVr/5entQOu/PvMyAi0AAAAA2JlEH/YQERERERFXyVXDBxzboRHVLdKt4sjXXd4a94LPfaeumc6D3rq3NZa86Qv+flMh0w1BYPW177fDtjf8/Tdb9Rfuw9ynQKAFAAAAAEtH9GEPERERERFxlVw1fMCxHRpR3SLdKhQC+XGPfsPldc00rr/hxuI/PbU9R/O7P7qubjWeq753TWuM//7s7tch6uU/f+cnxXu/+L3i3/7jmrp0+yHQAgAAAIClI/qwh3ig+p9eWOAS+T9udXdExAPC6H9TEHG1XDV8CLIdGlHdIt0qvvOj7u9eXXfD9B1V//SNH3XGMRU4TeWtn/5Wa4ynXvTlumb/Q6AFAAAAAEvHLW//AMSVMQpVcP8Z3TRGRFxGo/9NQcTVctXwIch2aER1i3Sr0K6ng170ydbYl3/jR3XteF7ygaub/sef88Xi/zvt481r/RbWVA5/7T81/eUnvvr9umb/Q6AFAAAAAEtH9GEPEXErjG4aIyIuo9G/YYi4Wq4aPgTZDo2obpFuJS/961kYJV/1t/9W14wjD8U2yv73PPvzzev//LSPpt/EGst119/Y9DV/ct0Nde3+h0ALAAAAAJaO6MMeIiIiIiLiKrlq5EHIVmtEdYt0K8m/LvBnX/qpzu9VDZF/beFlX/l+8bxLr2qVffm7P6lbz+cL32zP59fO+GxdsxwQaAEAAADA0hF92ENERERERFwlVw0fhGyHRlS3SLeS62+4sfhPT22P/x8/ub6unc+Fn/tOq+/3y74f+pf/aJW9/hPfqFvP548+9G+tvud88pt1zfahAO/bP7yu+My//rD4yJf/I33F4VXfu6a4Ifg9sU0HWhefenxxk6POL66oXxfFZcXJtzi9uLh+lbji/OKwUy+rX3S5YvcTi8N2X1accVQ51i0C8/Fbr4WO+cTijHYhAAAAABzgRB/2EBERERERV8lVwwch26ER1S3SreZBb93bGv+vr/j3umY+93395U0/2931/Wuub403dpeVNoYd8qrPtPpe/e/X1LVtPvaV7xf32P25xiu//eO6ps2le7/X205h3ps/9c3ifz73E61jmv/l6R9Lvw92zfWzrzzsCbSu7g+Zak++pG5aU4VTV9evjGqcbrlQncIoe6yLDYVhcwOtErXLgzQAAAAAOKCJPuwhIiIiIiKukqtGFEpspUZUt0i3GoU+fvz1v7iyrhnmuhvav3el3VVCwdRtX9EOpsb8DtaPrr2h1ee/PvOy3q8/vOjy77bafvbffljXtHnLp74VtvvWD69LAZyv6/OmL/j79NWKYtQOre5urBy3O+uS08MAzGzCrSawmh9opeO7MU6+RMdrl1WyWwsAAABgFTio/HCHiIiIiIi4yq4aURixlRpR3SLdavQ1gX587Uy6oSdI8igc8v32fmu2++k1H25/deCnrv5BXdPPJ676QavPyRf+S13TZV8CLX294H971mWt8v/+7I8PBlwHveiTVYBXjxtTh1PRbqybuF1Rep3a+N1Sc3ZOzXZ0DewG692hFe/WuvhUAi0AAACAVSD6sIeIiIiIiLhKrhpRELGVGlHdIt1qlF0d/Mr2jqqvfi/+qj/PaZd8tWmv3+HSV/gZV3z7x63x1HYez37vbDz54X/5j7qmy2YDrfd96XtNcPU/nvPxNI7fPaYdYf/2H9cUx5/zxVY/+aIPXNUfaFWhVRAyydbvYrV3SzXBlg+c8td1n1mgZUGUyl0gRqAFAAAAsCOJPuwhIiIiIiKukqtGHkBstUZUt0i3g7M/9vXWMf78E9+oa2IU/CgQsvb6HS7PDTfcWPznp83G+6nn/33v1wcK1d3kee3fstJXEPax2UDL5nzPsz/f+m2sHM3nie/+l1ZfhXajvnJQpK/9S0HW1cUVQWg023HVDrha1kFYantU9JtbLtDqMBs3feUggRYAAADAyhJ92EPcyR75K79U/OTu9yyOzOvuvBaWn7J2h+In9/SuFa/RGK0y71pxymD/wLV7uWPep3jN3YM2ob9UvOYXZscydcyL7twt17lH5X1qnMt/5T5hnZnWszX/qmxev9Cea9DW1kfnfq/ionBdSueM0/s+qE310bhy7Z7BNZpd91HX3MzWDhERETfnquHDh+3QiOoW6Xbwle9d0zrGr53x2bom5ps/uLbV/j1f+G5dM0Mhl29jv0MV8d2yzrf9xdP/oRjIvzYdaEn9JtZQmGVox5mCuFb/uq4HHyLVRSWd39TSVxO2dm2VNGWzkMpCr4t3n1+q55f1f92gedTpxcnWxo6Zvs7QtWkk0AJYGvZuFGu71oqN9v9zwH5mb7GxtqvYtWtXsb6nLtpJ7OdrsndjrVjb2NNcg45rG+UVEnuK9axufU+3bFd4LlW7zvXds576rEUnX9aF5S007nr539l7qKvqM+rjyvacNE7QHgAaog97iDvVvqDhojv3BCNN4KEQZRYetQIbhTBNKKFxuoHWULgTBULj1LFcoKV5ROcQhi+V88KtMYGW2rTG+YV7FpcHx2rOMZinHaMzltMHTLM23fVOag4jg7G5wVt9fXX8/vVqz6N1Hq25tN9H7fcOIiIi7osAhnYk/ddntn9Xyn8VX847PvvtVtvv/bgbVl38hXboFIVexqV7v9dq+2eXfb2uidmXQOsfv/ajunY+2qnW6l+Xd0ihVRgaeasAqdXWQqdLTnc7trq7rmY7uoyrizNOLcvKMRV0dXG7sqIArYQdWnDAkIIFfyN8ZMjgbo53+/gb/v03+js37rO59Ac9diO/b6718S2UWMJAS4HKrslJll/X0gM5Cduv10TvHx3bHutiQ3PzgVbz3KNrYSGQD4TsvSltbF82fN32rI8JOP2xo/nN5pPeZ3bcrJ3qqmP5+QNAxEGHlB/wEDGFDCmgOqQOMn75Pq06vT7yl+twyfWrrIOIQ6vXqZ0LZNquFae4vjb2bKy2/cecZx1o1XNqvFMVGF1+97V2XV2ez6/x0Dp4cWXz5p76aLymr+aUH6NnnrXNMdJYfh2dbn3U/qI7Wf86SKrrGvNzac59pP56qG/5Wtdpdtzc9jw0x3DcyE1de0RERMwF8DzhL9tfsff3V/2grumir+yzdge96JPh1wkq5PLjnZh9LaFn/S+ubLXVjrEhNhto/cxLPhXOtQ/9npbvP/orB7u/aSWyrx9MO6eq8EohV7WrywVaqvdfO+gCrSqMqts2YZhnFmh1wzCAA4d0szu8Gd6ze6Qhu4mewq32Df2mf1Cn1+vr+TF0k97dzG/1y6mPsaZdNt15NjfxwyBiOVBwMZt7dT6DQUYdILbalGXD12mZGHGOi6IJrDSnCYGWrkF9AnqPta+ff4/n79ue45S0Aqd5rm+kNfRl1S6z7Hit+Rvd4ItAC2A80Yc9RLQAIg63usFFN9Bq+tSBR9WuG7CMCjfyUENjZuFS125QVAVt5dzSOd0rnZvOJc2hCWXULzjHTQRa6XjqU/d9jbWvw6mLyv8bIn01YE+YJe0YaSy/DmmM4ZDIziUvT+aB1tz1zKzPIRq7+/7oXvfcau3jOkRERNx3V41W8LANGlHdIt0uPvrl77eO86yLv1rXtNHX9fl2L/vrf61r2ig4Uthl7fSbWjcEYZLa/T/P+FjT7r88/WNhO89mA62+ufZx7fU3tvoPBFpXV18H6L/mLz1X6OTKhX0FoAucZjuoXKDldlbNQqnqOHn41R5DWKClNuzEggOU7OZ8c5O8vuk9bqeIoTCqvmGfdt74m+O6Wd4dqx3oCI3h+7kxO9RjbuTHEnV4sFGeX+em/vIwLdDSWixJGLRp5p3j4piFUdWcfECU/x1U7+dufdW/ui6prDmxfEy9h+v35Jw34+i/uexvbM96NnYYdJZzJdAC2DTRhz3EnelA+BHqA4rNB1qbchOBVgp86j56buGJD6V8qJLa5wFSdswoRJqtS72e6jOn71AoVs3vnrOxrC5cg+qYk4OhZqwR7wFbEzun+vra2tljd22qdVF9u3y+Q+uDiIiI41w1WsHDNmhEdYt0u/jxte2g6n885+PhbqZPXf2DVrt/+kb/V/gpQPJt//k7P6lrZuS7oB79zivrmn42G2j99RX/XteMQ+fv+4eBVgqTLDRSCGVfJ+gDpjrEOmz3+bPAqg6n8t1T/isJ7be4qkCr+g2t2e9zufBL1AFYNZ/6+OHuLYADgz3r1Q1s3URvfQXaXu1bEd0b4L2k3UP1DXEXlBnd8CoumwUNJcE4M2bhSGcc9dO87VFlnZDNBRGlVX8bs65rzr3dNt811goDB47h69Kat+qc0Zr7c+llaJ7RuWVlte0lnzqmitsBUDVeNo7azrkm3bWsQ8q6Pn/vjKc6zuyaWxik8vqYmtvc9e5DY87mXoVN1VrNzq3WH0PXOK93+uvi33OpvOzr10Pvr6p9z3FL1Z5AC2A80Yc9xJ2sgoihQKQVVtWvWwHE3e9ZnDIYWrhAS2FI2KZra06j+w3vfppkTyjVF7akdSr/b5HUx/fV83Ju6mdr2YQ/KSyKQ6Uq1JqtXVp3H7jJel0uv3tfqNS2WdMm0LKxyrl1drZl51qfk661nYvGs8f2+0jnNBxkWr+oDhEREffdVaMVPGyDRlS3SLeTXzvjs61jffMH19Y1M5560Zdbba67oX83lcIu3zb6baz897g+eOX80GmzgdZn/jVuN0Trt8XqMgDYdvYWGxvpTvjsJn6AhV6D1AGG3XBPN9v93feSKYFWftM9prpRbzfzZ+FHVt4KWayNDzQ8dvPfn3PQ1h+vE8oYc/qll77ezTvCn0vIvONF5xaUtfpscsz1PKRpt2/Ocd41CebSvK9S3/k7niL0Hou/qlLH8OcyI39fRrav5WycWaBl823XJ+q/oe6cKmYBlSjnqfmnudq4KnPv9eC9ks4hK1dZNW4wJwBoEX3YQ9zJzgtBZDfE2eQOrU6QEtsOR0pH9dOx8kBrxA6kZBCETQy0Tin/d7z57az6UV85WM27+irHal3a4VG+Rv4Ys+dV/zwAOmWtXHd9nWJ5Ldo76EpTkNYTKuXreSfNd7Ye4Tmm8VRfj6kx6vbdQCu3Pv+6fa/ZeiMiIuLmXTV8cLEdGlHdIt1O8gDows99p66p0I6l//7sjzf1x77xC3VNjMIuP94v/fFn65oZ93395a0237/m+rqmn80GWn3thvBfm0igBbAw9m5JoFXd6M+CBQURWTIzKtDqhBRViJENVaMb8FZXPU9j6dh2094/9+GJL2/hx6wJ2/p21RzDNRjspyZ5CNJ3riW9c66Ze7xo/Dllmxqzoh0A2Xsoaz/3mvj2Wme/xqrL1nwkezY2ShVo6benZoFUaD0nnU/rvVrOt/91Ne/ZOJqnn6+e+7+r6m9wo7VmXW3dqhCq+3droVc7/KrR+pZ/y9V7dfa+I9ACGM9BhxyLiM4qiIjr+r13HWgFdSnQOrxbbnUptJiVVaHNvVvtOnMK+m27TaA1K4vm2jILtI5M66Swpl4rC4Va4x5eB1r22plCo7LOHlv1Zb9yHIVmWqvOmqVjxeOmHVhrZd8xIVNpOudgPWys8PgtB94vjdX5LPQaIyIirrCrhg8utkMjqluk28nXvn9t61h5YJV/PeBffr4deEUc/YZ2YPXj626oa4ri+izwOviVnynm/HxWgkALYAewr1852OlndMKJ6gZ/3rQd6FQ318cEYRXZmPUxN3x7P48tD7TyMKXq2wRbI/q1zy04dos80MmYe7xo/DllmxkzrbM7L7/ueftRgZYda+sCLdEJqDTeunY9VUFXTnpv1mFQn+1rOQuHqh1aPoCK6qM5zdB7xdZNgdzetB6zMSpUVs4lX0etbWpb1td19t4j0AIYT/RhD3EnqyAiCjFadoIGH1BYaNOnCzJ6Aq08COmUTQi0qrDm8OoxnM+APogLAhzNa1KgdejhxSlRkJVeW9iUBVpl3UXuGHZ9+taotVYp+HLn03J2jN7zaM1Lam5ZGBfYmYdsXbN575HabL0RERFx864aPrjYDo2obpFuJ9qBpd/O8sdT6GTkAdG3f3hdXdOPdnn5Pn9/1Q/qmqK44ls/btW95sP/VtcMQ6AFsBPQje76LrlucDc3591N71ZY4WkFFTm6Oe76hmHF7KZ6QxrThxTVDfp4Dtkx6ratr7/zx23NNx93T7GRDpqPKaq2rXlm487yD99/Tr/0Mg9B+s61ogpVshCnHLMaY97xovGrMh8iVsdor9OkMbNzbI+XtQ+uSf+xVO/PXWPZ6/o8yv5D6+fJw6NW6NSs6Yy8vebW+1rn5dYgoXOZnXg5XzvvGdVa1X+Dge1zq+davxKzv+G83Nap7JPNS8esxvVzmr6eADuB6MMe4k62E0TkKsjoBA0+oMh2ASnI8MFQXufH8iGJ6zMcjgzbDWuqubZCnzRWVd4bUAXn3RsEmZ0+CoR8UFO/7oRG1WuNP2Z95Cm/XLXrvX6pb3Ztktl6eLM+aT523GA9ZO8Ordb7QMdkhxYiIuIiXTV8cLEdGlHdIt1uTrvkq63jffGbP65r2r+x9VPP//sUgM3jWz9o7/p61sVfrWuKYvdHv9aqu/Lbs2MNQaAFsENIN9Hzm+/1De38pn4L3aB3N9vN2T17hRVW3r15LzqBlsjG7b+hXs3R16dz8QUay86tFZ6UhPPrjllRhS2zeeWBgatrdZ7fz59/E2h0rocjX/fRx4vOrS5b92O257jZMa39Wjm2X/fWOebXZPBYqusJtCws0njtyfSieVRr789Bx6iOmb+XmnkPaNdyNrbh5prQa39uFd1+M/ReaZ/abK7V83IO1qB+b3eXomzX+95yc9rEegLsBKIPe4g72RRaWGjSpwsamvZZwNI4FGg1zgKxJiBSPzte3j/VReFMbhUYtcKr+hhHHuqO0zmfIGwJAhy1nRZo1TbnFoU6FnL5QMjWZ9a+b54qHxNONQ6tZV+fpq6aZ64FWn5tFHTNXhNoISIiLtpVwwcX26ER1S3S7Uahjz/ext9Wu6Z+fO0NrfLnXXpVKp+HQq//+dxPNP303IKwO58+C8j+89M+WtzgdoMNQaAFsJNohTvS33yH1cWHOQcy1XnovTv2XKrwqPoNrVkfHxKVWLBTMhQ2Jcq2Vt/53TlXVzEy0Gr9Xebt67lqjj1/rylobQVYUaBVh2GyqZu+ngA7gejDHuJOtjcQMftCmtpRX+1X9n9sq92ccMMFUVXZLACbax2GpXm5eVeBUGUnlEphTTUn3260FsBla9WMlQd0Xp2rq7f1jK9JHX659rPrNwvGei3n9pLgerfOue9a97wPbIdWN/DSek64bt7yOP4YiIiION1VwwcX26ER1S3S7ea67Hetfvaln0q/a/XRL3+/VT4lHMp3femrCn9yXTsgO+nc4IZXDwRaAAArz6oEWgAA20/0YQ8REREREXGVXDV8cLEdGlHdIl0Ex77xC61j/vi6G4qnXvTlVtm114/bTSU+86/tXV/v/eL3in/82o9aZZfu/V7dej4EWgAAKw+BFgDAWKIPe4iIiIiIiKvkquGDi+3QiOoW6SLIA6PPf/1Hra8NPOLP/qluOY5rrm/vxnrSu7/c+f2s7/34urr1fAi0AAAAAABqog97iIiIiIiIq+Sq4YOL7dCI6hbpIvjuj65rHfO5l7a/MvAdn/123XI89zz7803/tTP/sXjgm7/YvP6Zl+hrDcfv+CLQAgAAAACoiT7sISIiIiIirpKrhg8utkMjqluki0Dhkg9y/O4s+Y0fXFu3HM9bPz0Ll/7z0z5a/NdnXta8fuXf/GvdahwEWgAAAAAANdGHPURERERExFVy1fDBxXZoRHWLdFEoZIqO/z+e8/FJu6mMr33/2nA8+YVv/qhuNQ4CLQAAAACAmujDHiIiIiIi4iq5avjgYjs0orpFuij2fuvH4fGf8Z6v1i2moRDsvz/7453x/tNTP1pcf8O0gIxACwAAAACgJvqwh4iIiIiIuEquGj642A6NqG6RLoobbrgxfTVgfvxPXf2DusV0nvjuf+mMd+wbv1DXjodACwAAAACgJvqwh4iIiIiIuEquGj642A6NqG6RLpLnXXpVcY/dn2t5zXU31LXT+cev/agz3of+5T/q2vF87Cvfb41x5bd/XNe0uXTv90a1G+L4c77Y9B8daF186vHFYbuvrl9FXF2ccdTxxcmXVG1vcovcJxZnXFE3HUEa46jzi1mXy4qTb3F6cXH9KnHF+cVhp15Wv2hz8am+bTW39nzm1Qe25gMAAAAA20X0YQ8REREREXGVXDWi8GcrNaK6RQr7jzDQGhXumHXIc8XuJ7YCLwVSCrcqLitOboVB8wOkWd+KfPyKapwwaFPY1RxT7XyglodjqrfX/rlvl58DAAAAAGwX0Ye9rfDXj3xUsfGa1xa/ePeHdup+4W4PSXX3OPLRnbrt8A5rDyme8+I/TY9R/XZ7/995cjKqQ0RERETE7XfViMKfrdSI6hYp7D8GdmjlIZAnC3euOL84OYVKs4DJB1rtcKtLdzdWjguWLjk9DMBMH25dsfv0av7q0xo/CrTi8VoSaAEAAAAshOjD3lb4rOdtFBdeeGFxzpvPLe5x1KOLX/nN300q6FKZ6k57welh3+3woY95fnHKU18d1s1TYZT6R3VjnBJoWfj260c9NqyX+zugQ0REREQ80Fw1/svTPxYGQFulEdUtUth/zAm0glDHdOFOCqSsvP4KQJVV4ZIfx4dIJXU4Fe3G8m31OrXRrisr98+HSMfI27k59YRUzTEBAAAAYOHc4pBjtsVb3v7Y4oUvOyMFV5EvevmZqU3Ud1+83+88uXjOi8+e5MlPfVXq+9DHPC+sH1J91PcOayeF9WO8+1GPaZ2DtDqdjy/XXK2PjunrEBERERExdtW48cYbi2uuv6H4xvevLT79rz8o3vHZbxenXfLV4og/+6fivz3rsjAcmqIR1S1S2H+M/g2tubS+4i/addXe1VWFVhZ0ZbZ+F0u7qWZ1TbDlx46O3Rmnn8G55I4cEwAAAAA2T/Rhbys8/iFPLt51wQVhmCVV98CHPiXsuxkV/JgWMm2Vmx3TQi71tbBsaghlwZaZB1yIiIiIiDjfnYTCrmuvv7H49g+vKz73tR8Vf/n57xQv+cDVxQPO+WLxP5/7iTA4yjWiukUK+4+eQKsdIvVrX0kYfYXfE4vDjprtvlJoFP7WVU0KoVJYdHVxxSwFa5j1H5ibD5sUctXj9e00a8+nHbjlaH7s2AIAAABYDNGHvc36B3/4wuTJT35xcf757wqDLK/aqK31i8Ycq3YsaffSvgZatgNqjLazK1JzsHoL2vRcZVPmN+WYiIiIiIgYCzOuv+HG4ns/vq744jd/XFz8he8Wr/rbfytOOndvccsXfzKFSL92xmfrlgRaO5n+QGsg3DEuPrUOtFq/a6WyOuBqdk4pVIq+HnAWTvmwqLO7S+PnO6OasvpY5bNWaNYEWtnzRBVytQOq2Vz6JNACAAAAWAzRh73NGoVWU4zGHKvthrJAy3ZEjTH6yj/vlJDMAjE/pg+0pOrUpm9Mq4/mZudFsIWIiIiIOF4Yxw033lj86Nob6ldF+irD33vHFcVtX/GZMHDabmH/MTfQCr+Or65rAq0c9xWA9vV/+e6s5msBB63Gb7W1oOuS092OrSAssxCrbKcgyoddGi+fjz/nCPUh0AIAAABYDNGHvc26dvgjk+e94y9aQZWVm77uHX/xzqY8GnOKCnmGdkDlwdJYxwRaFjSprYVRY7Wx/VcU+rE1Zh5g2XH4HS1ERERExPnCvqOvMvzhNdcXX/7uT4oP/ct/FK//xDeKx1/4L8WdT/9sGEZthbD/GBVotYKcVljlAq1ml9bpxck+MKrL54ZBbtwZ2dcPqk0dXs0CJhdoWYhlzzUftzPLwrlumCU0jgvOAgm0AAAAABZD9GFvX/WBlZxavy8OhU8qV31U53dFTdXvotLzMbun1KZvLrlRoIWIiIiIiOOF7UVh14+vu6G4+t+vKS77yveLt3zqW8VT9ny5uPvuzxX/5ekfC8OqMcL+Y0t2aKUdVBZGKcBq6tVeYVMdFgVf+9f0awKtuq2VCwun6rI0p2YsF2jp2FZePs9DtbTja3f9vDUXMTvnCHZoAQAAACyOWxxcfsDbIvOgaqrRmFNU6KOA6aGPfl5xh7tUu53G6Me432/X4ZErU5u7H/mYVlkKpMq2vkyqXT5+n3n/qM0Y/RiIiIiIiNgV9h8Ku665/obiG9+/tvj0v/4gfY3haZd8tTjiz/6p+G/PuiwMskzYf2ziN7TqwCmZf9WfQiqFXFVYle+ESgHXqZfVIVm9u6sJm7KQqQ6xDtt9/iywqkOwcNx6jHboVIdmnXmW2HFPPb9uM9JyXQAAAABge4k+7G3W15z5umQeVFn5vPpozLEqxFKYpEcfaPk2CqF8MBW1Ucik/nlZHnLlY5kqy9tG9gVikdHxERERERFxvLCcKOy69vobi2//8Lric1/7UfGXn/9O8ZIPXF084JwvFk+96Mt1K9gf9ARaAAAAAAD7j+jD3r56wQUXtAKrvN7XqW1evy9aUJSHVX7HVl6m5+pj9VP1wRSBFiIiIiLi8gkA0yDQAgAAAIClI/qwt1l/9zHPTv7FX5zfCq2s3PR1amvl0ZhTVcCkUCkPtCxA8uFQtENLu7N80BS1kRqjb4eW2o9xKNDS+Dq2nvs563m+gwwREREREYcFgGkQaAEAAADA0hF92NusPqjajNGYU7QwSUGQD6IUBlkgZK/Hfi2hzEMuGbWTKvPH6lNt+gItzcmP7wMtzVnzsfP0/RARERERMRYApkGgBQAAAABLR/Rhb7Pe74QnJI898YnFm9/y9jC08qqN2lq/aMwpKujxwY9CH5VJ387qokBLr6eYj70vWiCXB10+0DL72iIiIiIiYlcAmAaBFgAAAAAsHdGHva3wroc/sjjnzeeGQZZUndpEfTejhVO2qykKq3ItFIrqhrR+OoaV2a6pzai+PmTzx7Kx+4Izv5MLt8MnFH9y5Y3Fe58W1Tmf9tHixve/Oq4rPeq1X+0ZY+T4HV9dvPfGjxan+rJsDqe+fzPjIiIiIq6mADANAi0AAAAAWDqiD3tb5a3vdELxqMc/r/iTs99QvPOd5xdvf/s7ijN2/3kqu82dfzvss1m1U8mHPn2BVh48jd3hpHab6bdZbf4modV+UiHRle8ojorqnD48Unh14403ln60+JPmubM1XjvQmvWN9AHWLNAa7lM74hwQERERV1kAmAaBFgAAAAAsHdGHPcSd6KhgKDftiFK4ZGVfLf7kuHK8bLdUs0PruHcUXxoItHpVvzrAUnjm59D0ZYcWIiIiYq8AMA0CLQAAAABYOqIPe4hYB1wDXyNoqt2XXut/A04h1VeLP3maQqh2+NRYjpsHU00Y5sZudIFWVRZ85eCmrAI1dnAhIiLiqgsA0yDQAgAAAICl4xYHH42IucedV3zpyvOKo6K6lqdUgVATStVfM5iCsFm7aodW+bwzbtU/1bn2HdUvBVhWZoGWPfdzyPX9cuv5jzpXRERExANXAJgGgRYAAAAALB3Rhz3Ene28gKjyS689Zdan+bq/o93Oq77f0AoCrdcqsNKuLj1m7RvzQKsqf+/TfLhVhWezubXrEBEREXeqADANAi0AAAAAWDqiD3uIO1cfFEX1lQqtLDTq/qaV2pTjuOCq2aFVvzabvvN2SLkdWj4wq4IqAi1ERETEeQLANAi0AAAAAGDpiD7sIe5MqzBLYZBCo7GBVrLZoaUdVx8tTq2/WvBPsrBrFl7ZVw3u768cRERERNwZAsA0CLQAAAAAYOmIPuwh7kS1s8l/beDmAq16nBvb9X07tLbuN7RmdezQQkREROwKANMg0AIAAACApSP6sIe4091soHXUa88rTk0h0leLPzmub+eUD5j2d6BVHX/uVx4iIiIiHuACwDQItAAAAABg6Yg+7CHudBVYdYOotp1AS+Up1PpqceOVXy2+5NqM26HVF4CZQ4FW1N4k0EJEREQEgGkQaAHsA3vWdxW71jaKvfXrsqRY37Ve/texd6NYW2+VAAAAwByiD3uIO92pO7SaXVEKtppwqA6LopDJgq/0Wru52uN3dDu0mrCtOc7QLqx5O7QQERERd4YAMA0CLYBe9hYba7uKXbv6zXOqvRtrxdrGLN6qqMbplgMAAEAf0Yc9RERERETEVRIApkGgBTCS7m6sHLc7a896GICZhFsAAADDRB/2EBERERERV0kAmAaBFsA86nAq2o21y329oF6nNvqKQSv3zwEAAGA0Ny8/3CEiIiIiIq6yADANAi2AAarQKt5ltauVcGl31qyuCbb8jq78NQAAAPQSfdhDRERERERcJQFgGgRaABNIXztYpVXF3iCZmv2GVjvgaplv9QIAAIAO0Yc9RERERETEVRIApkGgBTCXWTjls6jOb2rpqwnzsKopm/2+1iz0AgAAgD6iD3uIiIiIiIirJABMg0ALYIAUWvndVaFrhfKpVlsLuvasux1b/JYWAADAWKIPe4iIiIiIiKskAEyDQAtgCuHvYGVfP6g2dXilkKvatOUCLdW7nVyf+MQnEBERMfPmB98fERERERFxpY0+CyFivwRaAIPsLTbW3I6rJtCqv4bQh1spyJqV7d1Yc19B6AKt6KsJAQAAoEX0YQ8REREREXGVBIBpEGgB9JACqfrrBFMIZV8n6MOoOsRa29hwXylYhWD572T5ryQkzwIAABjm5rcrP+AhIiIiIiKusAAwDQItAAAAAFg6og97iIiIiIiIqyQATINACwAAAACWjujDHiIiIiIi4ioJANMg0AIAAACApSP6sIeIiIiIiLhKAsA0CLQAAAAAYOmIPuwhIiIiIiKukgAwDQItAAAAAFg6og97iIiIiIiIqyQATINACwAAAACWjujDHiIiIiIi4ioJANMg0AIAAACApSP6sIeIiIiIiLhKAsA0CLQAAAAAYOmIPuwh7kR/Zu1Rxe1P2l3c4Xf/fJRqqz7RWIiIiIi4XALANAi0AAAAAGDpiD7sIe5EU0D1K78b1kWqrfpEdYiIiIi4XALANAi0AAAAAGDpiD7sIe5EtesqKh9yap9zzr24uNM9Hh7WzfOVr3lrceRxp4Z1puqffNoZYZ186GOeP3cMHcfPUc9V5tvk9s1Nx+vrqzpprzXvfO5jzjnql6t1t+caT6/7zOebz3Mr1JranHXMvC4vk2rftxbWZ6zRGKbqx7xH8jGHtH42Tz368fquidVr/aP6yPxa6XV+TfU6n4NXffreU5prVBddA18/771s/fV8Xtux+jnlc9b4+brIoWNrnHzd8vZRG1NzsHnYvCJ9n82uRT6OxvBroOf5uHbd/bVAxNUSAKZBoAUAAAAAS0f0YQ9xJ7rdgZZunm72Jqn6Rjefc/1NWh8C+Oemjac+ed08/Y1hU+U6jr2ed75q69tLzcnKxq6X5hLNx9TNaTv//Ea7jjHUV0bz3Fd1TI0ZXVeVR3NSmV3bXJ1XPk409pgb9bbu+VrN084pqpOq07i5mmM0V9X5vvmaqCw/XjQHjePPxc4vsq+f+tjx/XO/7v55dD6q92Pm2tytna/L52xj6Bi+PDefg1d1Gjcvt2Pl5X11+Tiqj85R59Y37pB+fBujT9/PXs/rI22d7Fgyf78h4moIANMg0AIAAACApSP6sIe4E50XTh106AOLg094dXHw8a9qyob6jLmRmms3taO6Ie3mqy/TTeX8xqzGVpnq7CZursr9DemhthrLH3NItVUfzSevy8eVKs9vjGseed8+8znr3POb1Lbeviy3r010zHy+fVrbaGzNe+y62vlE10hj5GVqp37++RSHzm/MWpr5tYjmquPZ87y9leXHy+dgbexc7TEfS6+j8a1M84ueazybt3+uevW3deuzr2/ezh9T7dRez71qo7bWbki/3tZvSL+mGn/s+dk81d6ON1X10xyjOlPH0fH0XMfyc7C+evRro+f5uH6MecdExANTAJgGgRYAAAAALB3Rhz3EnehQOKUw65Df+aPURqGWlY/doWU3XKMb0fP0N9aHVDt/41nazWB/g9c7Zty8v7/Rq+f5GNE8ohvEKrN2evTHyLV20c1tjZPPQetsN9D9fOw6zNP6RHV2LD3311PH28z19ercbN650RqaY8/L9H3ysfpU26Hz89czsm89pfpG5WP65tocNFdbS5ubraE9tzp7bq/zMdUnLzPtGP54+XtB7YbWzuqlnqvM5qrnerQ55mNbHzu21+btz0+qrY2dl+dt55mPlZ+r1tquidpF84yMroMf1+vXzcxfIyJKAJgGgRYAAAAALB03v939ELG0Cqeq5wcf/8oUXB106PFJC7P0qNdRnyF1c7a6qTsre+Vr3lIcedwTWmW5d7rHw1K7qC5X7c459z2Ns5v2szYq0zHzcfO+3nwMr8aK+kTm56qyfE3mGa2Z5pfP0Z+fnutYeRvfT499c/F1fk01psa2djqef70ZNYbNW8eytevT+tk52mupdbKxTN8u6qNj5n1MtVUfnb+eT9HWzI8lbb2iuarenvt192XSl/lr5eepsW3uvq3q8jG80TH61Ph2nOhc7FxzNb7OP18Dzc/e63q0udsxrK+dY5/5cf1Y6m/H9M+l2vhzt/WSVibVx+Ypo2P6OjtPGyvSzyMfP1LHUz9f5l/7sSN9P0RcbQFgGgRaAAAAALB0RB/2EHeirUDrhFc3AVZfmJX36dNu4OblY27URjdfc/1NZ41nN6v9Dejoxnc+J5X5+ei1jSX13L+W/nimjuXnJNXGj63nNo+87ZDRmkXz0g3u6PzyICCvz8eWGtvmqEc7lh9P6nh9N/LHqLE1hs3bH0vquZ+fn390vmqbl6ldft5j6saovvnxcu0Ytp5qP+aY+VpYmY1j+mtlavz8uqhMqr0e/by1bjaGrbm171P9/TXQY36tcvPzsT5RW3/+dizf1/T9o3pp5yxtvho/6qMyfx5W5l9H5xrNT+X5tfH29dP4Nr++9TF9PyuzPlausfw88n6IuNoCwDQItAAAAABg6Yg+7CHuRH045Xdl9YVZcl6gpRu0umGqG6jzbsZK39fK8hvKXt2ctpuz/ka172c3raXNw17nqt/QTeW8bsw5mf64Gs/mntcNmd88lxpH+jLN05+319ZJzzWW76tyW09T9XZM1Vl7tfXroeNFazdWjevnbWszpPVVv6i+T/XRcaK6IfvWVOujOjuHqI3qNMaY87I1Nv26+zLpy9TGl2kse+3XyOpNzd+O66+BXufvt+i40vez9bDy/Jjq78/Htzf9sfVo7dUuX2OV2fx9uV7nZb5Oj35d+vT99HpMH6lj+LbRupmqz89L/VWer02uHUPPrY+9lv55fv18HSKuvgAwDQItgIWyt9hYWy/21K8qVLZWbOytXyZUtqvYtWvm+vp66/VM6xv0KQ+0d2OtVbZrbaNsCTCPPcX6rvy9CpPZu1GsNX+jADCF6MMe4k40D6cs1OoLs+RQoDXvRq5u0uY3y03ro5uzfW2k6v3Y0Y1vPfqbvKbdJFb/vG6edgx/PFPj5eerNnYedl7WTuV6jI5j2jiac1QfaecndQy9tmP7cr1Wnd1M13Pfxtf5/jqGleftNqtdL//anufH02t7Hl0HO2dfpv6+n5mvi6myqDxXx9Hx8vlH6lgyqpPRuai95j1GG1vjROV+vL65qk6Pqtc5aT5+rFy1yc9d5XqMroOOb+do18TaqNzWwMb3a2JzsnGszTw1hvpIX+7nYXPQuLZeKsv72nObu722epuf9OdjY0bm/ey4+fEj++bhnw/p+yHiagsA0yDQAlgkurmtlKlFFGjV+PZ71otd9XOFVNVT31fPZwGEtdHjWjP4nmKdQGvl2LO+y13jraIbaKVwNL3xuuGpD0rHz0fHcGPYe32bsPlrfq25t45v59YXQtVzrs937rlmgVaaQ+eYMZ22tdZleCy/tvm5DNVF9F2n7vtgNgX1CcbWeoz5NyitW3vs6e+pMYFs1b499rz1yc/bH6eq61zWdD7bERBvxfmKvvKIxZ1/9GEPcScahVMKsvrCLDkUaM27kdt3o1Zt7SazjZG3MfOx7Xh6rnLdrPX1ej7v5rDaaG42tsbwN5rnqT7+mLl+fkPtIqM103g2pqn5qq291nF8Gzs3Wy8zv7md3yj3c87XRcebsk6R+bztOuTluX5eps4t75Ofj1Q/leXno/KhY5q2dv51PhevP16ffjzrE5Xlx5l37FybSz62ztuvler1WmuqPv56WFtflvcdmruNbX312t6X9l6313pux9PzSN/Wa/1Ur7nlY/h+fn65dl5SY+bHisaWatc3puzrp2PYOvSpfn5e0r/2z/Nzy/sh4moLANMg0AJYJAqlmpuApenGrm4A9txU1k1AuzOY9220vvlNRnZo7RTGB0g9N5tDdIPb3YBuBRHdcVJI1BQMvKeN+v3cmktZNu48NkFr/kZ2jonq3NbK+Udzaf6eWmsx51wd469VQBYK9I9Vn4PVpbW2fkN1AYPXKTv3ND97rbUN1iW8Dm2qNe7OKb3Hhuaa5tNen6HAUNj1nK3jnPVJ55j/DZXnOvC3kciu3dawdeerc1wf895c8PnfrPxwh4hVOBWVDzmmj27kPuQxz++Uv+I1bymOOO4JnXKv+g61ycdWW1/2pnPfU/ziPR6WHiOtn1QflVlfP47mqjqNZe1V78cao/pYf41t4++LGtOPG+nXWo96bc/V18o0H6uTet03Z52PXw/18683o/r740sdX8caWis7B1/mz9O094Iv86q9Xau8b6TaRO1U1jdfv4aRdk2iOu+8cUw7J5vnmHPT8TW2tdNrrZ3mpnJ/nfSo11YmdQxrp+d69ONHc/fHsjWwa+rXxI5n/aSOEbXVoz2PVJ0/rs3Jz0/jWRs917H0XGXR2NH5Sj9+ZF8/HcfOrU9bZ1/mX/vn/tzyOkRcfQFgGgRaAAtkz3p28zfd9bMbij03Aa1QN1br57opWT1V3/6b6WpX3aDsubkMK8H4kKTnZnNIO+zRMWb9gnHc+zORv26hscfOY2toz99on2NFfW4b0Q34+u9tozw3H8oMnmubeB7jyPv2jtUJD9z1GqrrMO861evh3nqa0+C/OTr+UKCltbR6PS+Pb2GL5pECmf4JtfFjRdRz2WjmXJf1rs/QWhk9bTrjbgObOV/H7Nr1sfjzjz7sIe5EDzlpd3GrX3l4WBeptoecdFZY5+27kTvmRq366obrkH5su+Fsx9QxfBs95se0Y+RzjOZt46nOl3vVJ+8XObbdPDWXofnYzW67Wa7ntgY6vvVVuR51jirP+0m/JqrL9W03o/rr+Pbarqc3XzObpy+T6uvHkn1tpcb1x7Dn0dr691leZ6pObfJyP3afQ+OaGidfC68d318Te57Pweq9do5aQ42lvipTXz23tdWjXvsyqdfqrz5WZqpdPnfrq2Opj81fqq3q7bX1sfPwx7C+eq452Di+jY1jZWrj565xbX56VL0dyx6t7VhtjKhOakzNNy/XvGyeNu8+fT//Om+X6/sh4moLANMg0AJYFOmGnrvBuyff5VDdCLQbkrq5WN3MlfVN9OZ1Vld2sP/P+1HqGPl84IClfSO6DhLc+6Wqq8KJ1nugaT8rb49jN6DtPZpelOQ3ravXrZvh9c1zVzJj3o33RDbfMGSo28w9l3z+hj9HY3ZunRv8Nu98/kPn2rqRX40dn9McOms2MJbaZolCcy5DdTmdY+Z013U2ltY2WPOhtSpR/zS91rr5saJrFtN7Xome6zy0PnPmXjEbt4U7n/Df6k6H6WzqfB3D/Uv2w/lHH/YQd6K3WltPAZV2XY3xkJP+JPWJxvL6m8HzVNu8r78RnZvfJNZzqT7+BrW/GT50PG8+9lhtDlGd19rZjf8h/bnkap5D56Fj5P3V3sbuW9++G+lWr+f+BrzaRzfkp6j+Gkdz1vjReane5mLXSObt/Hsg76OyfN2jMaTG8f1s7fJ2kXYMfx598zV1PN++z3njjFVjaI52re38pI2vsvza+vWz17beVmdjSn8NrJ1XZTYX0/pHa6LXvsyPH62LjefPRa+j9lZu9vWbp5+fnufH8W3zNfFrYcft09Zbz3WcfDyrixyqQ8TVEwCmQaAFsCB0E299ffaVans31usbtO2bwq0dCLoJaM/djdY0Vnra7jujurGvY+kmZXizMN1gjPrCgUb7RnR17VvvoeY65zeb89DB1/vgIA8RqnazG9J978Ge4GFuUFKdQ+vmuvo049nx/fhjz8UTlbt+wTGb8tb8B87V3cjPSX/rcwMC4c8lxo/V+jekxt4jQ3Ud5l4nzcuteeu9ll+PGrXpHXO2jprnbE46jr8OPWst0hyq9+XQevlz9s8H1ydfD3es7nszMpj33DWewz6er6evvGE/nH/0YQ8REXGZVeARBTcHqlHIZVqgFNUhIuJ4AWAaBFoAC6K6Cbun/q0RexTZTWGPbhgGdyl10zUv1s3I3huHumnobyzuyw1UWDraN6LzIMG/v6qbzc17J39f1FZjzcKF9D5svWfa46T3Xud9OvC+nncTP6z3x8zOQwydS2f+hjvHhu5x0hh+Tp35DZxruukf3MhP+Gul5zbvbKzBMQw3luaXXY/mPTJUl9M5z5xqfWbr7eftz83Rey3E7Hq0/42blbefD5Pel9GxsvNqnf+8tQvn7ucUvDdFdA1HXdfxbOp8HX3lDfvh/KMPe4iIiIiIiKskAEyDQAtgwaQbtevr7obfnJvhdcO0c6C5cdy2apLfXK7LdRPSlcU3JOFApn0jWjeX/fvJv7+ym829N6jFUIiQ37RWfX4TO+/jyeeYEc5r4DzE6HPxROXxGrV+d6hzrIFzHbxpP2cdauYGDQk3Vmd+7pyG6jrMm5+/Jjk94w5ep9l4fqeUdrOu2a4s9Y8nGxDNv5pX699EU/MaXJ++9VC5XeOe8+68D+at7WbYxPnWrcT899nizz/6sIeIiIiIiLhKAsA0CLQAFo1umLZu5OkGYM+NvXQTUDcf2/XRDq1qnNkNw6ZNebxW2GE3MdPY828owvKz6UArtW3ffN6zbu8hf5M6GrPdLwUQ/gb5YJBTt8/ff817tZpX6+Z6K2joHt/69J9L9F7352jEa9Ta9ZiHHkPn2qrbW+xtnVI3VOjSN/ehsbJzGFq7/Fwyhq+TxormVlH19etSrWXrumakPmly1TwVvKh9Ndac9dJauzdA6mPtB/69a//9DK9PuB7pvGbXuP3+qcneB2GbqWzJ+c7oK/cs+vyjD3uIiIiIiIirJABMg0ALYIGkm4HpLt68G7vVDT/dwI1u+mmcbvmsj1kdar1VNuaGJxxYtG9E5wGI3hez19UN6fx9MHt/zN5X/iZ1dYxZXXRDun7/WaHed+0GXfL3Zqt99Tcyq5/NJT5+Se+55PM32udY0R179ndbk4Ucg+ca3MhvzsmP0Uerv2fOWK21yPoP1UX0XifNYfjfEK277zsvMBGpz5i1CWje30l3bumc47m2/35K5q1Pq75y1n/ovVmNla9Jsu/9M4ctOd+avvIOCzz/6MMeIiIiIiLiKgkA0yDQAlgQ0c3C9s3IgZt7wQ3Elunmr24kzm5oauw0zJ6eHVoAU9B7cPR7Z37QsXAmzX8KS3iuq0AeojX/zsFOIvqwh4iIiIiIuEoCwDQItAAAYBSdnUo9jN7psWDGzn8Ky3quAKvAzW5bfsDbZg9dO7F4zgtOT97hLg8K2yAiIiIiIm6XADANAi0AAAAAWDqiD3v74q3vdHxxx7s+uPj1I9eLE3/vacWLXnZG8a53XVCc+/Z3FBdeeGF6/sKXvqZ40O8+NbVRW/WJxtoqH//kVxb3OeEPw7pFetKjnpOM6kzNs6+N6nQuUR0iIiIiIvYLANMg0AIAAACApeNmt73vlvr2t/9FCq7M3We/oXj0yc8tbn2n41rl3ref9xfhWFvl3e61Xpz2ot3pMarfjCc96rQ6JJuV6RhetfH11ibv560CrW4/8/FPfsVgPSIiIiIidgWAaRBoAQAAAMDSEX3Y2xfP2P264ncf88ziV3/z4fXOq1ldFGZJ9fHtNuMhv/Y7nUBprOrb178vBOsLtDSOnit4kvl4kWpnY+SBll5HfbzWFhERERERYwFgGgRaAAAAALB0RB/29sVnP//VxcMe9YywLgqzLrjggtQnaj9FC6Siuj6tjw+0LJCSer3ZQCsfS6HV0A6xKLiyY/jAy2tzjuoQEREREXEmAEyDQAsAAAAAlo7ow96++JiTn1s8+/kbYV1foKU+Ufsp+nDHvmKwrz4v06N/bvV6PWaHlAVOeq7+On4eQs0LtEwdL9+hRaCFiIiIiLhvAsA0CLQAAAAAYOmIPuzti8c+6NTi7Ne+MayLAi2pPlH7fdFCLQVCej0v/OkLtPpCqKEdWn11BFqIiIiIiPtHAJgGgRYAAAAALB3Rh7198W73ekTxrnddUPzMHY7p1EVhllSfvO1WaUGSBVxRG2nhUK76RaHSUKCltj6UsrrIfAwLtGwMAi1ERERExH0XAKZBoAUAAAAAS0f0YW9fvPWdjk8h1Z+/8S3Jt517XvEXf/HOVKb6W93h6OLnfvG44g53eVBxnweenMrVJx9ns0ZBkxwbaOnRyvRa/axOz61uKNCy5759PrZUUOXH0HO18219WZ/WHxERERERYwFgGgRaAAAAALB0RB/29tW3vu3tze4rb97uhIc9ObXNy/dVhU150KNgqG+nk7TQyodOem2hlAVLVjcv0FK91PNobKn52Pg2nrR+Mn/ttXGjOkREREREnAkA0yDQAgAAAIClI/qwt6+++OVnjAq0XvSyM4qXvvJPOuVbYR72+IApMgqd9Lpvl5UFUFaX1/sgSmNEYZoPtMw8wIqOg4iIiIiI0wSAaRBoAQAAAMDSEX3Y21ePPfEP5wZa1ubYE09tlW9WhT4KlDaj+o4JtLxTAi09+pDKHBNoDc0BERERERHHCQDTINACAAAAgKUj+rC3r978dvcrnv/iP+4NtBRinX/+u4oXvOSPU1vfdztUQKRgKKozLdDKnRpo2bGkxoyCMt9+KNDSc7Xx9YiIiIiIOF0AmAaBFsDC2FOs79pV7Jrj2sbeun3O3mJjba3orXbs3Vgr1vfUL8TejWJtbaMcIScacx+O04eOv2u9XAGAnYD+huK/79D6j0h/T2F9S/6OYOcQfdjbCn/mDscUL3jJa1qB1s/94nHFM57zqvT8Ja84M7WJ+m6VPqSycMie97X1wZNe9wVa2l0VBVp5cKV2fseVGR1P+kCrb66IiIiIiDhNAJgGgRbAEqEb2v2BVsme9WJXGEyVKDRyN8ZHBVquT0NU1sNQoLVnPboZ36ObW7qpnwYNQoHeUK6s60zE+veFc3XAWI+p+Q6u/TKTAsN6jUr7L58PVfN1GaqLyK9PO2jpXP++963Drn169H1rw/PqOfdJYzRs/Tn1EvxNas6t92Dnb1Hzq+Z0QL9fAUYSfdjbKm9x8P2KR/zBaWk3lkKst77t7cW73nVB8dgnPL846OD7h322Qh9eRYGUQibV6TGv69MCKG8eRuVlGt8fw+/ekj6syucsp8wPERERERH7BYBpEGgBLBDdhB66od66oZ3dqO/XhQ8KvMoDaJz1PQM7wnQjXW1b5dU43SDAxs9v9vfYOUHNY0xAUtK6yV8dzw+XAoV8/NSnXLfOzpWqf6oLDt6cZ+t4I+e5VFTXuVmWdF3ztRD1etgJttoN1QXU7832pSjn4QKaPHAJr52nde0z0vGi+Yw995LeMWq245yGCM53SqBVPT8Q368A44k+7G21v3zPhxavPP3s5F1+63fDNvuqD4TG7mqyPn27sKaqsSzQUnhFIIWIiIiIuBwCwDQItAAWiG6AD9/TzwIt33jv3vBm/551f1O7usGvoKZ9H7x781w3/2c3z+3mePsGvpiN72+mV1TBWf1CdG7AlyhkWN9IgUkTerWcjdlenypkaQ2XxmqPb2vWXdu6/0Y5p06QUZ/vRjmeP99g/OVH19yfn14HQYeuTaudW9+hug5DdTPy8CcFiAOdhv42+utGnnvJ0PjbdU6pPn+/W/vgbzJs39Gd7wH5fgUYT/RhDxERERERcZUEgGkQaAEsEN0Qj29Sz/Q3zGdUN9zn3zyvbnbruZr2HS8NEwRa6+vdrxDsD7SqPq3pdgKtoI2hm/E2l0TeVq/z+nx9XB+N1woIZv3zIKJpm/fxIUMKeXrmvmToejfnp3PKL6IIypt1GarLCYKYiHb//FrmuOuYk1+jjNHnPjTnbTmnbG7C/30Exxxsn9Ax3d/gyHkDHKhEH/YQERERERFXSQCYBoEWwALRDfFxN8Crm+V5ENVrcGNcxxk8nm7yt8apAoW8T2+g5fo37bMb8JpH9BVwqbxzIz7fbZOvQRB4tIKKfHeOCxzSXG3srLw1DzcHncsBFGjN1ikOolIbf2FLLKAZquuQr1laJzv27Pqpv59T93p78mtvuGvVw/xznz/G9pxTNbfWfPzfh55n/dW+NU/fPqFz8evUt24Aq8FNb3sfRERERETElRYApkGgBbBA8rBoFMGNb5GP1bnZPqTG2xN95WD1yo8dBVpViGA30qvAIAUi+Q37dLz1YiMLHTpqPp3zbAcR6fz8CZeozAcG7de+f/U81fnwohNoqd2BEWI1pHX2c1bIEbzPdK596zdUl9NZM6MdrnT6q19f+NLzHq/ObSCwGXPu88YQ23FOJZsJtMK/j5b+eAfg+xVgAtGHPURERERExFUSAKZBoAWwQHRDvBM05Pib3umGum5iZzetgwAip7r5vlFsuI7phrn1K8eY3WzPb4zrdXXjPA+01stxo5v/6dz0e1X1+FW/diBgdHaiJPK2Op5frzyssLXJtTGy/nVoseFDiU6QEc93mWld05pO8CI65+rWZ6iug9YoClHaa9edQ18/Ea97eB6OMec+b4yK7Tinen75+9PmGwRaGr91Oq1/C0T1NzgridcNYFWIPuwhIiIiIiKukgAwDQItgAXSuWEdoXCh06gKGDo3xQPsJro10eu1taqsdTO+PM7stcaPbsz78vxmekDnBnx8w11z6p5CHg5U5+zbpXOzEEDr1BlbY1ifvH9V1+qTBzmav9Wn5/1hxdLQmadbg1Zdth6tcx+q61K9x/K1aV/rTvgTXi8jv/YiKivx5zR07omeMQK2/pyqMdsBmENzb61x8PelNrOTKcnapPPvPz7AgU70YQ8REREREXGVBIBpEGgBLJA4yGkTh15V4NAEWsn2zXf1s9CqGqO6ua9gYk+6WZ/d+E434/vHq/A39IMb7jmdG/DtQMDoW4f2uWchS6Jeh7IwnW8wyKy82z+FFr4gD2702uo7YckSk13L5hTzc0ivrV12XYbqIlrtK314Y+/HmcNjtq99SRo/6JOfU9+5i74x+tjicxpExxp6L4q8TXpPu2P69yvAChJ92ENERERERFwlAWAaBFoAiyS4Yd7Rbmq32kbBSh3u5DfBS6ob7/nN9jrgkroJvqdvh5ZrZ20T2c10h7/R396R0g60Zu16giKdc3A+i8GvASyc/XrtF0X9Nxv8rXQCPWGBlv+3oFkj3q+w+kQf9hB3pE/9SHHjjR8pTtHzB7y9+NKNN5avh/Rt6+e3fWXx3rBt2/c+tT5m6RGv/Upx4/tfOZtHXfal1z6+Vda1Otb8doiIiIgIANMg0AKApaKzi2pBKFBoh3GwaPbXtT8Q4f0KO4Howx7ijtXCKT1e+fbiiKhNUmGShVh1KJVet8u7Pr4488p2oHXK+9uve8O0LPRSv06bHgm9EBERcacLANMg0AIAAACApSP6sIe4452yQ6tWAdOXXvv2aYFWJ0CzHV5+DJV9pTjzAfa6GuPGVlmk2s1rg4iIiLgzBIBpEGgBAAAAwNIRfdhD3ImmkMh2Qc3doTWzvcOq3qGVvr7Qgq+ZX3rtK1uBVtrZpePUxzszhWKPbwK1975f47RDqSo4q8aJjtF2TOhVtht5roiIiIgHqgAwDQItAAAAAFg6bvrz5Qc8REwe8ad1wHRsFSjFIZHzfa8s+1W7qr70p4+vn3+kOCUYu9Lt0Kr7NcfTo2t7yvtmx6nGntVV43ylOPNYX5Y7tk09h7AeERERcTUEgGkQaAEAAADA0hF92EPc8QYB00216yoFWK6s0YKsWaDlA6lKlc8CLYVnX3rfR6rj+OPVYZpCrNSmfGzGao5fB1Gt8SPnBVqIiIiIO0MAmAaBFgAAAAAsHdGHPcSdatqhpdBI4dWVby/O7IRS3igsagda1U4sXz4LtE55X/nagqz6MR0vBVt1YJUCrMeX9f4YzhR+EVohIiIizhMApkGgBQAAAABLR/RhD3FnOgubbDfWKe/7SnHmn9Y7s3zZsQqkXJCUfjNLgdX4QCuVZ4FWE2RZSJUCKwu5bCzXtxOy5RJ2ISIi4oHnzW5737B8XwSAaRBoAQAAAMDSEX3YQ9yZKnSqAqDZV/3NXr/3fXWwpXZpN9UsLGp2dmWBVjtcGhFoHfvK4pQoyEqvq3Gb45X16SsLo9Cq7t/97S1ERETE5fQWt7t/cfBdHlEcerfHNN5+7ZHFbe78kLD9VAFgGgRaAAAAALB0RB/2EHek9dcM2i6p6msBv5J2aKVgKO3QentZZ4GVBUk+pOrboWX2BFpNvfq7IMteuzArBWWtPm5X11OzIGyudd/R7RERERG3wdvetzj0ro9uhVm5Yb8JAsA0CLQAAAAAYOm46c/fGxFLU1D0vle4rw9UmUKrqq7aoVXWH3tu8aXy0erS67RLSuO8og602mPPfFwdaNWv1ffKc4sj8nZpDnVIlcbt13ZrddRcg/Ztq/ncGM0BERERcUHe5pceEoZY3v/zi78T9h0rAEyDQAsAAAAAlo7owx7iTlbh1Zf+9HH1cxcopR1aCrIsNKqCqxQoNYFQHGjN+sz6pbos0GraDYZRdQhVj2dzzW0FXaPCLURERMT94x3u+qgwxPKqTdR3rAAwDQItAAAAAFg6og97iIiIiIiIizIKsCKjvmMFgGkQaAEAAADA0hF92ENERERERFyUUXgVGfUdKwBMg0ALYInYs76r2LW2UeytX5clxfqu9fK/jr0bxdp6q2TGnvVi1661YqMeYM/67Hk1lnud2pbHy9XxVZeOsbfYWMuOD6tNc+1r9Lr1nnSUdWuzN1v4fuq8VV2fvRtrs/6bYJ//XjaDP2dH91z0t9Ndj459a7sQNEf/b4SIyozo34O+Mdrnub7e8+9N829S0Kc8kNbVl+3f9YJFE33YQ0REREREXJRReBUZ9R0rAEyDQAtgYXRv2Obm993jG/7VOH1BQLoBXN/0nQVautGvPnuKva1uLgBQIGETaJ7rWARaBwStQCm6ZvYeiN83RjsErfDvqRY+3PHvnxr1y9/Ts/H13uoea8Zi/l5G01rfYXuP5ddrX9mK6x2FfUMBYFg3cB19e/f+mL0vfF89n52HtWlf0/KcCLR2FNGHPURERERExEUZhVeRUd+xAsA0CLQA9hPd3SU5WdjU3Lzu2nfTOgon2hBorQS6XnNu9CsYGHqvVNSBwZz3m94b6f1rrwf62FsqoYDD5jl0jOBcFvH3Mopy7Kh/HKZl9PSdjM5vcC1GXO/OGlX/Vli/vDzsk+YwIdDyfRt9oNWuU9fOfOacN6wW0Yc9RERERETERRmFV5FR37ECwDQItAAWTX1jt3Wjv6S6cdvdoZBuClu5f57RChjmqJ1aQ7tf0teDVQcn0Fp6BgIFow6SNsr3yFCgkt6D+RtziPK9PCWgmY2v8Kn+G5g3xjb9vWya3mBmRFA2cb1ituh6t+ZiY9aBZl0qfCjeCsh1jGrBm39L8ms0a1OidaufN9dqzrmoXTVHvV/mnDOsJNGHPURERERExEUZhVeRUd+xAsA0CLQAFkh1E757IzzZuhtc3fC3ulRV36Ru7unmrxuqvroR3IRcrbEdfgx3w3n2XDecfTjATeWlo76GCi/s/dIOMarAQZdT74fegMPec/V7QG07bxu9L/x7TqHIeuXs/ar3i3//2ntmNv4sqFBxf8izmL+XifTMt3VO9Zq35jtkMK/q3GdhXPpb1olt1fVunUcVLK2vW9A0owmx8r//pn/Vd2Nvfc71uTT/9iTL+o2+ILAac/Ba55bHgJ1B9GEPERERERFxUUbhVWTUd6wAMA0CLYD9SHOTutib/bZVxewmefuGfcu6/+wG+uwmuPqn6j3ZzeT6rnXrhrfa5Hez07gEWktNfW2bS5ddJ3+NhwKO9F5bW5u9B4IAqN2/fk+mNuXzJsioA6369d6N9SawWN8ox8zfY/l7059Lxtb9vUwnHTsaLzJbt4YmBBpHs95aIxtzi663jTOzGkN9/BJZoJWun8LLejy7rroWfpeV2rXeQ/Zcx6ufp7HS03bfGdX107HSuvsJwY4i+rCHiIiIiIi4KKPwKjLqO1YAmAaBFsDCmd1s9/dp041bfyPc3QBuaMo0RhU0zW7idxn8Da18/NZrFwj03ZyH5UDXLbtGTZCR1Q0FHCmIar0H8rBh9p6r6qr21Xju/dKzQ2vPRjkPH3AYzRh9zMZqv13Lsi3+exmHxsr+rlKoZGszwNxzzbFzd8fTOW3B9W7PpX2t1c+Wsvo3pL7emk8a3x5FXyhVEl3vklmgNSNdz+Y9k62lzqupKy2PDTuD6MMeIiIiIiLioozCq8io71gBYBoEWgALpH3Tts/q5nCrrd08bm5Cz27QV+imsms/x76b3NGNZlhyFBq4EENUQcbA76Rl7RsUHLg3QCv8yeoSrVDEsPAjYGKgtX1/L5tEa1COb6fQWR9XFzJwrjFBoLVV17s1lzyUml3DPBRP/0boKyab8xwXaKlfOLfSqkn337BUXq9rY997F1aSny4/3CEiIiIiIu4vo/AqMuo7VgCYBoEWwP4kuDmtG7utr1NTm/pmvG5cVzd/3Q36KCQQuhG8tja4c2RUYGDzS/PouXEN+5EqCGjCiYHrVAUfAxdQ7xn/XnLvz3C3Xx2KDIUVSRszeq/mgUVp7xzdfGbs29/L3DWpqf5WtAYWMuWWdXt07PJ5fo5GvV5jsbml9W3Oe4uud2sufaFUUJ6uly/r61uS5lavjatPoVhniTTO7N+qpk1rnuXad64/rDLRhz1ERERERMRFGYVXkVHfsQLANAi0ABZKdTO6FRKl5/VNcn+z1m4G12XppnZzF9jdoNcNZn93ON1w9mPZDfj+YMuIbzTXDNw4h/1NO2Tpu4Zzw5v8vWQ079OMVthQktqtF+uyPFZnKNXnhfkYLbb772UgjBmBjjG4njmD59omBWjN+dXr0Dqf8vW+XG+tgxsjD50q3LqVzNa0Ov7c69Yzt/jfmVkfszpUNk9/zWHliT7sISIiIiIiLsoovIqM+o4VAKZBoAWwINLNYLtp7G/S+ju79U35tY0NdyO5utGb3zxON7zrMdb3uJvBvTd83U3wFDrUz8fITeSdQR32+PdWqHv/dN97el29d5tx7P0zIdDa3r+XulB/E6Pf2+0Qqd9ZAFTh1qc0P/39RmvdNUcLtLLzrCcchWPVNXJtsz4NFjb2mb1vqi7s0AICLURERERE3L9G4VVk1HesADANAi0AAAAAWDqiD3uIiIiIiIiLMgqvIqO+YwWAaRBoAQAAAMDS8dM/fxQiIiIiIuJ+MwqvIqO+YwWAaRBoAQAAAMDSEX3YQ0REREREXJRReBUZ9R0rAEyDQAsAAAAAlo7owx4iIiIiIuKijMKryKjvWAFgGgRaAAAAALB0RB/2EHeit/y13y0OPvHM4vYPf90o1VZ9orEQERERcbxReBUZ9R0rAEyDQAsAAAAAlo7owx7iTlQB1UG/dFJYF6m26hPVISIiIuJ4o/AqMuo7VgCYBoEWAAAAACwd0Yc9xJ2odl1F5UOO6XPSo55TPPFZf9Qpk74s8k3nXjSqXZ+/cPcHpzH0GNXPU/1e/sfnpOd6zM9jSDu2OdRX52jH2azROpsqt3kcfuzjU9u+edk85s1fr6Pj+WONNR9Hc8zLNC/Nqe+4Nt+8XG2H3kN946lM84jK8/nPMx9f56LyfI29894PW/GeQUTE5TEKryKjvmMFgGkQaAEAAADA0vHTtyk/4CFiFU4F5UOO6ZOCgWMe37z+hbs9uHjT2y7qmG76Z/2idpEpsHB9vRonH3usNld7reP4Y/Wdi2ntrK0913pE7SNt7fqOZfWaV995qlz91Ubt7TxUZn00lh5f/kfnpEfV2XNrr+f2WnXSX9s+7XyjOrPv/KT661hqo7Z2fN9f5+HnKG1MXxZpx/BlGm/MuXk1js0xV3Pz52Pl0fz82g+pNvk5IyLigWkUXkVGfccKANMg0AIAAACApSP6sIe4E50XTt3skGOK2x7/iuK2D3h5UzavjwUK/ga93dT37ayNvVbbvCxS7ayNhSZTtGBhal8Lgfx5TVHHG9NPbXz4MaSCDZtXrso1V7XReHqUKrM+Oi892rz8uekxX2c9l3o+b455n3mqfX4ufWuheWnsXNXpHKO6efOVOv6Ydl6NbevUZz6u+vh66ddeqr2f/zzztUNExOU3Cq8io75jBYBpEGgBAAAAwNIRfdhD3IkOhVMKs253wqtTG4VaVj4v0FKgYGGIHnWj3YIUu/GuRx8CWBu19zfp+7S+uunvQ4B5qq0FC3qMQgCbZ15u2nlFdUOOnaufY599oY20vjo3zVVtVaZHuw523mqvR5uXnZs/R7teeu5VfbR+po4Z9fPa2FPM52eqTuX26OusT3Q8v9aqn7f2udHxzL7j5WWmPye1y88RERFXyyi8ioz6jhUApkGgBQAAAABLR/RhD3En6sMp7cJScKUgy4dZetTrqE+k3ZiPQgd/g1/hiq+T1i8v9/o2U2/6q60FFnrUfPI2UvOz5/kxdGw7hzHaMTROVB9pc5yn1tCfgz8/lWuumwm07Jxt/Hx+pur92njtfFXf18artnZdTR07Wgubpy+zY2lOvtzq8rHtHH2Zjjd2vmY0dq7aROcxpJ+f+g9p1xMREQ8so/AqMuo7VgCYBoEWAAAAACwd0Yc9xJ1oK9A6/hVNgNUXZuV9ci0A0Y14HzrouW68q960oMTfjFd7f6O+zzxAsLHm6ftY4OK1uei5HUNz8mGEP68pRgFKpD/e0Hmp3tYy76vHqI/XxrZ+evTnpno/tsyPN6Str8a0Y/l19G0i7fh2PD2qTM+ja6A+erTzz+vsekqNZW38MeyYNgdrP2Q+dq6do46n57YWfdoaReeRn4Pa29wREfHAMwqvIqO+YwWAaRBoAQAArDp71ou1jb3pcdeu9WJPXQywzEQf9hB3oj6c8ruy+sIsORRo6Wa9hQ32qDK7MW+v9bwvBFC5btT31W+VFi7YawUD9lrzVL3KbO5mFDSMcWw/O7Yv0zyi4ELz9eXqa+umOj1XvZ2LVJmdp9bZ+ulRdfbc5istbInM52qqXPX2WmPrtY3v21mZb291fq52bjZWrvVTH/9az62vb2/nZuegfvY8r+tTbWzsSI2psWw8X2fn4ctMvy7+tdrL6P2AiIgHllF4FRn1HSsATINAC2CR7N0o1jo3k/cU67vWCt1rjlH9rmLXYJsajb+2UUTN9qzvKtbzu9hqnxcOjAFLSCeg2FtsrOn94h0IMCzoCInGGrB+L+3dWIvrW9qcRh4jek+25q5xes4zrVEwprM9TtymZTOfbnstQ2cNWvNXn/zvOSqr2dS/Gxl+rfK/++3+dyNqn85Xa9N/DmkNO/1gJxF92EPciebhlIVafWGWHAq0pG7S68a7ParMbsSrzG7i+5v1vq/dsB9S7dReN/mj+iEtCNCjhSX22upUbqFIHmj4oMHOq08fOkyZa35MlfnXpo7v2+q1rY3mr+eag9rY+anMztvGtfNRXfTctDF8WZ92vnm5ra29tnPOtflrDnrujxvNTX38a99HdXbeKvPXws9Fz/166rWvj7Sxozpp89e4+fjql8/b1DzVXv1trkOOvS6IiLg8RuFVZNR3rAAwDQItgAWim8Otm9y6mbsR3Gxf31PdzK1fz+7pxjfbrb41fnZzefSN6RK17Q85YPnw4YbeIz78UF1/oBW+L6YQBBl677beP533WT7HjMGQzTEh0Bocb+zxQtrH1bnrVNtrUF4Dv0bR313P36KY8u9Gt+2A9Zxafbbj341sfat/2+z9WgX2PaeerSPsNKIPe4g70SicUpDVF2bJqYGWHk3deLcgwl5bP92Q12vdxNej6q3Otx+6ca++vt6Pn5u31XN7bYGHvdaxbd4qU189t/PT89x8fI1pYwypNj708PPyY9ocrZ3062ZzU3u1tUeV2fytv81LdSoz1cfKbCwbZ965RPObZ9Rex8mPpbnkZUPHyus0N38NdU56rjLV+bbztLWJ6mw8P66tS5++r83La9fDl+l13xwQEXF5jcKryKjvWAFgGgRaAIuiufHvb27rZnh1YzfdVM5uJgu7QV7RvWnf3HDes97sZpjdhFZ7d7O6dn1PXr5erOv4ro2372YzLCNZeJICg3bgEl3j0DEXvnlfz+iEEJ0ApPs+bjEYMM3+Ztrt2mO2ghj9bUTn59x8aNL9G9NxO+tsa9SZS3Uu3etSn+Mm/93o4P59aOHKt/7fjXictXLu7bJ6nPA8ZucKO4/ow95W+sqNs4oLL7ywpcqitoj703nhVOTYQMuX6Ya7L4tu3ud99FptLADI63PtRr+/se+PIRUQ2Dh5Wx86+GPrtR6tnx59u74gIQ8k/BhD+vHtnPRcZXpur9UuDzz8OVk7tVFfzUd1Us99P5uX6vI5+vloLDtmdM28Nt+ork87P2nXw56r3uYXzbPvWGqb19l6+DJpx8zLh9TYOkZU59cqGjeam+nX3Zv30djRuSAi4vIbhVeRUd+xAsA0CLQAFkTrBv7ejWK9uhtdrK2Xupu7+Y31sYFWurHtxqnG2tPcDLZ2rfFc0DC7md2mfXxYNnTd/Hsmf129Z+r3RBYY9F3znG7YUmodewKtTvuO2xVoVTt+Wv0HxyuZVz8RnX81nuaShTGdOas+DyHVTOXZ3/uofzfc9fZ17m+9mlc1rt4Dvm3Vfiv/3ajOUSFWM8VJVNdzVLgKK0f0YW8rVYD1vw89unmt5yrzbbbbZ7/wT4q1wx8R1o3xcU96WRojqsPV8eATzywO+qWTwrpItT34wWeGdWYUNkgLJ4YCAFNBgLX19t24t7HzAEBl/rXd/Fc7m6Mf315bmGBlFuT4Mql21jfSAg1pfcdo5+HXwc7dyvI19kGH+vv2ft5ql6+jr/Pjqp0/Bz33r/N6b75WkeqrNt68Ts/1qPHs+HauudbXG83Dr49XZarLy/u0eegxqjf7xrX+eXk0Z7OvDyIiHnhG4VVk1HesADANAi2AhVHfmM3t3ZXQbVvdaI4DrTS+xtpT77hIN87H35iu0Byr9lUo0b6ZvpbfnIelIF2r8jra4yj0PsneX14/jMZtBT7+faPnQaDV2z5hQU38Pu81HacKSNLw/hzK8dbTWMF7dM65ymq+0+ezJ/2dBHWR9d9nO3wq/x7Xu6FxFWilZxP+3RC2tvUruxbuOrWvzwL+3VjfaMar6rvn0Brfk+Y16w87i5++zZFb5v+973rxxnPe2tqNNUb1Ud9ozH31dr/ywOLex59SPPuFZxZrh/9e2GbIBz/yWamvQi09j9qY1naK+ZhTxpg3H5zmLX/14Smguv3D/2yUB5/4mtQnGsvUDfcqFKle62b+m962pw4Quu3NKhzakzzpUaeFbVRubTSeve4b249pHn7M41L7KoRot1e9P7baWj+1Vz+VWb3Gj8aRNj97rX5+XfpUG3+M3CrQ2NO81nFsjrYOdn52/pqHtLZ6buNIm5f1sbFNtbe2Q3Pz2tpFdX1aex3Pz8PPVc+jefpj2Xmb+Zz12tbKq7J552draEbj5Ppxfd9IzT2ahz9udI0QEfHAMwqvIqO+YwWAaRBoAew34hvV7Zu6VZtZWftmtWgFWtlYo25Mp7bVTfXurhl3/NSWm8orQX3dW6GTY/aeqtB7ptXWBxp6noUrnXDCt09038ctWqFPThUCpepOODQw5j5R/h30Bkie6u9Fc9IahuGiApr0N2e2/z6NWaCV0/07l7O+PYFWcw75OnXH28p/N6rjz8brzKe+hp33TEJzrc8tBVudBrDiRB/2Nuub3vy2MLAao/pGY04xCn3GGI0lLVyy13qucMy3GaPGGRs+jW07ZUxERERExGU2Cq8io75jBYBpEGgBLIrmJrBzzk1y3dSubhj7HSTtm8ezG+GzG8TtnRbZMUtbv21jN4k7N9rN7QoJYMtobvZ3wwmzev8ItVkvNjbcTplAnx3MQoiaEYFWNGbbgfdVeu/2/WXovTsl0Kr/LtJz17e3vKY19qxtvhYpuOo7p/xvqv77bM95dlwfajWB1uR/NzRmu311vOpY+vfEz785N81VB0/z27p/N9rrM/v3LOnWIwy0NHZzrsE1gpUn+rC3WaOgaorRmFNU4DRlF5Z2b/UFWgqLorrNhFpTwic77hgJtBARERFxFYzCq8io71gBYBoEWgD7Dd1IXuverJbNjeXZjd7qZrdu6rZvmrcCrWycaKdFCx9MOMK2sLS0wgCFAK2Lp/eFD02q53kw48mvv9r691XSGgSBVuf903mfdd/HLer3fowLNlrtsjH9MZs18aFIf0jVPadZ2/SqdX4as702qU7HdGVNMNOZ8+zaVK8tCPLlnjn/brgxhD+36jpanZ2T3h/tcbb+343Zec7mUx+/Xg+Vt/tW82qVNdcRdgrRh73NGoVUU4zGnKJCnjzQUuijrwv0ZWZfoKWyvj5SdUP1uVMDrTFtp4yJiIiIiLjMRuFVZNR3rAAwDQItgAWhm73+pnFl/039PetVXftGb/tmtWhuIttNZrvp27pxbu3sJnbNlBvTastXDi4h3fdEeg/ovZUe42tWhRvRe7LSX/9ZCBHQCX+C+XTeZ0EbT/bebTMLR9rtsjE773/1cX3LlhaotEMS38bI/m5abdrHbf5eW8d3/Ttzzo8lZuVT/93oomBI7fXo+tp1s2tj69BZt338dyOh86nmvlaeV3Me9frreHmgpbH8PIy+clhNog97m/Vt5563T0Zj7osWWI3dtWW/tTVmB9aU3+WaEj6pncYdI4EWIiIiIq6CUXgVGfUdKwBMg0ALYL9hN5rb5DszuoFWfTPYmertRvTAjelWezHlxrTaEmgtH9E11HvA3h/B9RVDIVV/MBGQH1/HboU/JZ05tkOgDtl7t80s7NE5zM5zozVmfH6zvuVBspCqove9H51TKuv+Tab+/hpI65+Xh39T8b8NFUP/bkT/Pqit+lTzSmumuWgeKrC1zl/X7Nu/G34+s2tWjd9ef5VXfes+wfgVVX3/+wNWiZ8qP9xtpz/980cl+15vpyc+8lnFHzzpZWFdrrW97a88sHjWC88cpbVV32hMU/Xz2phj204ZExERERFxmY3Cq8io71gBYBoEWgD7EX+zuDG7cT670St0M7d9M7u6iezLZzeR1zY26l0Z2c3o8hgb9bGbm9l1u9Dem8uwv2neH7qu0fXy19aVz4KFGt+/N0wxZu8xmQcgnbeLBSD+GNn7PB+zM0aN/5vJQ43231MVoIR/Y31mcxo61oz232RzPVrBkAtvWuXq6wI2P5e+BSgJz6mznka1rrPhZuu8uH83ZueZ3nfr5RpYfTPG7Hr1r7VRzXV+OzjQiT7sbdZo19W5b39HcdtfPq54wUv+uHj+i/8oPX/bue/otJPRmGNVuJMHTmOdF3rta3g0pf+U89iXOSEiIiIiLotReBUZ9R0rAEyDQAsAAAAAlo7ow95mjX4XS77o5WcUt7nzA5J6HrWR0ZibVYHPUcef0im3XVV6zOv6nBJIRU7pP7btlDEREREREZfZKLyKjPqOFQCmQaAFAAAAAEtH9GFvs0Yh1RSjMTejgp6+XVdDdVL1fhfUkFO+znBs+DS27ZQxERERERGX2Si8ioz6jhUApkGgBQAAAABLR/Rhb7NGIdUUozE3o3ZmWeh0l8N/r1M+ZXeW3NfwaEx/hWM256kSbCEiIiLigWwUXkVGfccKANMg0AIAAACApSP6sLdZo5BqitGY+2oeFPmAa6yLCLQQEREREXeqUXgVGfUdKwBMg0ALAAAAAJaO6MPeZn3Tm98WBlVjVN9ozH1VQZIPtMZ+TaB3fwRaCt7yAM52mEW/DYaIiIiIeKAahVeRUd+xAsA0CLQAAAAAYOmIPuxt1v9730cVbzznrWFgNaT6qG805mbUVwr2BVgWFElfLq18qjqe/5rDqfqAysqGgjcf0k39+kRERERExGUzCq8io75jBYBpEGgBAAAAwNIRfdg7UB0TBpkWei3LbqdoR9Y87Rym9EFEREREXDaj8Coy6jtWAJgGgRYAAAAALB3Rhz1ERERERMRFGYVXkVHfsQLANAi0AAAAAGDp+KnbHIGIiIiIiLjfjMKryKjvWAFgGgRaAAAAALB0RB/2EBERERERF2UUXkVGfccKANMg0AIAAACApSP6sIeIiIiIiLgoo/AqMuo7VgCYBoEWAAAAACwdP3Xr8gMeIiIiIiLifjIKryKjvmMFgGkQaAEAAADA0hF92ENERERERFyUUXgVGfUdKwBMg0ALAAAAAJaO6MMeIiIiIiLioozCq8io71gBYBoEWgAAAACwdEQf9hARERERERdlFF5FRn3HCgDTINACAAAAgKUj+rCHiIiIiIi4KKPwKjLqO1YAmAaBFgAAAAAsHdGHPURERERExEUZhVeRUd+xAsA0CLQAAAAAYOmIPuwhIiIiIiIuyii8ioz6jhUApkGgBQAAAABLR/RhDxERERERcVFG4VVk1HesADANAi0AAAAAWDqiD3uIiIiIiIiLMgqvIqO+YwWAaRBoAQAAAMDSEX3YQ0REREREXJRReBUZ9R0rAEyDQAsAAAAAlo7owx4iIiIiIuKijMKryKjvWAFgGgRaAFvKnmJ913r5X4/K1oqNvfVLAAAAmEv0YQ8REREREXFRRuFVZNR3rAAwDQItgD72bhTrPSnUnvVdxXo7tSrZW2ys7Sp27Wq7trbWKdu1tlG2tj6zAGzvRta2e5CabQrJ9qwXa9Gg5VqslXOJz1tz0XznzcfazTMLBN2ctD7h/Bq0nuPXZc+6P1Z0/ebVBzbXFgAA9oXowx7ijvWYtxVfuuJtxeHp9WOLM674SnHGMVb/suLiG/3rYQ8/+yvFl85+bFiX1LFuvLG4sfHDxclNvY59Y3Hxk137lv31J7/vxuHjIiIiIi6ZUXgVGfUdKwBMg0ALYIA4wInLVVaFLX6XVvncAo4960HY0Q20mnHrEKnLcDA0HPjMYU6g5c/Nh2+zacahT3gaJfMDKk3JAqoRYVVr/j0BlL8GOq9WuOjH99dR+Gvln/dcbwAA2Cf+163vhYilj3+fD5cy3/fS4ia3fmlx8Y0fLh6f9bvJrR9bvOaKoE+v1Rg3OeZtxd4UnpXPn/zh4sb6eTOu6m/8cvGaY9rHS3X1MS9+clA30A8RERFxGY3Cq8io71gBYBoEWgCDxAFFX9CVApI8QMm0fhqjVVdWzAu0LETqPfa+hikWCM07DzeB1pxbQU9F71qVzA20/DkpEIzmIus2zY4rtV3f6MylrOhcz70b61WIpT6tuijQCo6du6/XAAAAEtGHPcSdaitkSqGRgqH+wCoKlMzDz/5ysffsx4Z10h9LYdres99WXBwco2XZ/qWd4O3DxeMViLXKvIRbiIiIuNxG4VVk1HesADANAi2ATTAYaPWlNyXt8KckBUez0GQo0EphVhPcZDuVOmHMVLKwJh/LB0sZ2xlopXNOnRUu1eNY6JZTllfHsTl055LGic5D69cKr4Rbk1HnDgAAW0n0YQ9xp1rtborDIL9DaxZ2lc8Hw6RYBWGzQGs21uw4wyFUvkMr2uFVtRseq9ldFvRFREREXJRReBUZ9R0rAEyDQAugh1aYkQKP+nWkBR4poArqnT4ASYFNKq/ClFZAMhiOzQKetNNrq1KVJiyqxq/mpvBsFgRVAVUWgNWubezphEibD7TqOZSdW+16Aq20DvU8quPFc7Rr1bQfuXazazXCrboeAAA7mOjDHuJON9pdVYVdPYGWC4TU17+uvsrQ98sCLbdTKx2HQAsRERF3mFF4FRn1HSsATINAC2CInp1JvSHNYAhVhSKz6r3Fxvp6sa4AqO43PtCqxlJ4MtBkOq1AS8GUQqE60NLrznpUoVPrnLYo0EprsRGsQRAuzprsKTaa8bpzSfP182/WuCf8Km3PL+ufMXSuAAAwjejDHuJOtAp/ZruoZga/eRUFWinwCvq3wqog0MrDqb55vO+lbq51n7N1zPorB4NQakw4hoiIiLi/jcKryKjvWAFgGgRaAEN0ApyKwUArCEW81q8Kr9qhS+urBHsCrWZnUY99AdEoendoVfNcz85b810vnR136wKtPRvlukdr0LNDqzr2bB3yta3oC7Sy54lqvPbh/brE9p0rAABMI/qwh7gTTeFPHQrZDq0qEKoDLRcaDQVFza6nut5ehzu+bDw/dgrGqmNa27TrywVa1a6vUt8/D8AaCbQQERFxuY3Cq8io71gBYBoEWgBDKOSYGmgNJBpViFU9T4FNCk0sdMkCmGYshShVmKTAZG1t4Gv6esOekaj/emnPObd+S6o+lp1TtSbdEGmzgVYiWs++cyzLq/Ctfp3Wsx02JaNAq+yrBz8fzbt7HHZoAQAsiujDHuJOtHdnVB0u+VCpL9CyoMl2W5mzkGsWVLV3fMXBmfX3x9YxLn5ytqtLfVzgZQ4Fb4iIiIjLYhReRUZ9xwoA0yDQAhiiCbTaQU0UXKisE5702YQibtzmWDU+0HLlgyFQX9gzCtt9NDtPHUvzXdvYSHVp7Hqe+rpEtbNAq2IxgVa+nu0xqiAr+j2vfC3T+BrDHWN2ztG8bI36zaf7iU98AhERN2H0YQ9xp2s7tHxZFSRVz30AVb22wGqEfidWsCsrhWJZOJXPp/nKwXo+6pPPFxEREfFAMQqvIqO+Y40+CyFivwRaAENY4JEFFcM7capApV3fDXoqZuWdMS3MyUKdvXXg0ucsiKnCl/55ejSP2e4mC+eqserz0e9Z2e9oZfOZvaza5nPqm4P6bibQ6utTzdvOI1rzLNDyYzVBWdl/o37emXjWP2P4fQEAAFOIPuwh7kRtd1Xk3vd9uPU1gHmg5cewYMl2TTVhVxZSVYHWh4uL6yBM/apgq7ujaijQquYyC7em2Mwt2xGGiIiIuEij8Coy6jtWAJgGgRbAEAo5goSiL7hoByqeKFwRdbmCm05QMtsN5AOcwRDIBzR7ta+sCph628+l6t+cax36+HPvBlrt87S1qtZmpDbghECrtS7qF41rtta6Oke/M63BQq71jbrNSMvxAQBg34g+7CHudH2AZKFPK1DKvhYwfSVgHUq12rgQy9pYmd+h1bwOgqnw+C7QSuNuMpAi0EJERMRlMAqvIqO+YwWAaRBoAQAAAMDSEX3YQ9zp+kArBUZ+p5VCKRc8pZ1ddSCUt/EhlGlfKegDrTzMyseJwrPq97jUjt/IQkRExAPbKLyKjPqOFQCmQaAFAAAAAEtH9GEPERERERFxUUbhVWTUd6wAMA0CLQAAAABYOqIPe4iIiIiIiIsyCq8io75jBYBpEGgBAAAAwNIRfdhDRERERERclFF4FRn1HSsATINACwAAAACWjod+sO3/+rnyAx8iIiIiIuKCjMKryKjvWAFgGgRaAAAAALB0POSv20Yf/hAREREREbfLKLyKjPqOFQCmQaAFAAAAAEvHQ97f9n/93OGIiIiIiIgLMwqvIqO+YwWAaRBoAQAAAMDS8eD3tY0+/CEiIiIiIm6XUXgVGfUdKwBMg0ALAAAAAJaOEy9pG334Q0RERERE3C6j8Coy6jtWAJgGgRYAAAAALB0nXtw2+vCHiIiIiIi4XUbhVWTUd6wAMA0CLQAAAABYOn7nPW2jD3+IiIiIiIjbZRReRUZ9xwoA0yDQAgAAAICl47f3tI0+/CEiIiIiIm6XUXgVGfUdKwBMg0ALAAAAAJaO33532+jDHyIiIiIi4nYZhVeRUd+xAsA0CLQAAAAAYOk44S/bRh/+EBERERERt8sovIqM+o4VAKZBoAUAAAAAS8fxF7aNPvwhIiIiIiJul1F4FRn1HSsATINAC2Cp2VOs71ov/+tR2Vqxsbd+CQAAsIIc/6620Yc/RERERETE7TIKryKjvmMFgGkQaAEsir0bxXpPCrVnfVex3k6tSvYWG2u7il272q6trXXKdq1tlK2tzywA27uRte0epIaQbPVYpmvK+wsApnPcO9vepPywh4iIiIiIuCij8Coy6jtWAJgGgRbAAomDq7hcZWspAfC7tMrnFl7tWXdBltENtJpx924Ua2GgpfFd6JVZzQEOPAi0AODA5ti/aBt9+ENERERERNwuo/AqMuo7VgCYBoEWwEJxgZSjL+hKIVQQMnmtn8Zo1ZUV8wIt28HVe+xgrnCgQKAFAAc2x57XNvrwh7gTvPmvPLS43YP+uDj4Ya8dpdqqTzQWIiIiIo43Cq8io75jBYBpEGgBLAGDgVZYUdEKrEQKwMbt0EphVh1Y7VnPwoZw9xccWBBoAcCBzTFvbxt9+EPcCaaA6k4PCusi1VZ9ojpEREREHG8UXkVGfccKANMg0AJYEM3vYSkoUmDkd1PlWpiUAqqg3ukDLdtxtasOtYYCrTYKHKqx0k6vqF2aC6HEsjG75s50/eoQacO91/x1zd5bs6puv/bXTlbvlaqubufCz/Z83Fdl9s0lzWMWwrZfz5sLAKwy939b2+jD375666OeWBz9nmuSt77vU8M2iPtb7bqKyofcTJ83vPXdxR8+cyOsG+OJj3xWb/87rP1OGl+Pvvy3jv79VJ5r9Rozqo9UWz/2PDWXl53+xrDO1Jjz2sxzaF0idS7bcR3sGnh9vc5T18OXmfla6bm/lhorv7Z9an7zrpXGz+faZ359xvTN+yAiIvYZhVeRUd+xAsA0CLQAFolu1gc7n7Zmh9beYmN9vVjXb2jV/cYHWtVYCgx6m6SgYY1Aa5lp7ayrgye7oK3rp/eKex+mgNWHSH39qrrZe0S/2Va2bQWwLpxqGBgz79N6PTQXAFh17vfWttGHv6n+9CH3L/73b/1BcZNb3yu9vsvzLy7uf0mRvNtL/yaV/a+y7n//1uOLnzr4vq2+2+0j3n5VcdVVMz/88t/L2pxWvLUsf+vv+7LK1Pftp3XKt8zf/8vW3MYYzRM353YEWn1BUp/qEwUi0kKQviBF5VE/hQrqm4cLqvN98zGjQERtrCw6t7y9zEMaOWVd7Lw3uy5yyvGk+mz2eP581TY/dxtXj75cY+XHMu04eu77mDpG3mfIaAxTx+pbR6+OmZ+D168DIiLiPKPwKjLqO1YAmAaBFsAi0Q35qYGWbugPOLvXr/BKAcMsHGh9laDGCg7S+e2tTHbEHCC0giChMMiHP3pvtMOgwd1UUb/oqyijEK0TOg2Mmc+79Xr+OQDA6nK/N7e9yc8dtk/e9NBjinv+2RXFvS8uiru/5jPFoY95bXGvd34/vb73e4riiPN/UNzhUWcXv7H7n9Lre5z5ueKnDr5PONZU87Aq8q2/H/c17/HyjxdXfeSs4h5B3U2OOqv4cDlGFYL11V9YPKJVXgVko+by+xfWgVn1WnPxx8pf63znnQ+O9+CH/WlYbv7U7e5T/PxxLy1uc+yLm7J5fX7r6MfWN/Xjem8VNMR13hMf+cziD5/56rDOzNtE8/DHi8ZUmfRlamNl+Zi+znuHtd/uHHvsuqiN2kZ1udE5mIu8Dv58bU0sSOrT2udrpedWFvUbWhsdN7oe89Sc+9bR2zcnrz8XRETEIaPwKjLqO1YAmAaBFsAi0c36qYFWWFHhd2Dt2dC4PtDyz0uasRQSrBfrdZC1trbWH1rtWSfQOiDIgx8xL0RyYeXYEGluoGWojw+25s2FQAsAutznTW2jD39T/Ln7PbM4vPzH5fB3F8W9AlVudfb4M791cjjWPjsvgOqo8OnjxYuO0vPfK170kTiIym3GP6rsk0I1GyMf06zGDgOtYPwhCbS2zqFwKoVZD3xFaqNQy8oXGWgNBSM6zlC9AoqofMzYuRaS5Oc2Jryx9mPXRW2GQhs5b13UZuzxpPpF5ea84/lQSo96bX3Vxr/OVV0+Zt7fntvYOmbeZ55Dazol0Jp3LmPXHBERMQqvIqO+YwWAaRBoASyS/7+9e4+RrL/rOz+LohAtNhdfuARjwDZ+/DgYWJMQux+DwRgDAZwABmwQNsbQdjAYWAcMGAKOwRgCuDFG2ME3QjD3RIDUSwKrDU6U/QcRaSWk3R1ZirUr8l8i7ebCBsln63uqflW/c+p7qs6Zma75TffrJb2Z7qo6p073jIWqP6p+4of1/Q//4wfzux/iZ4PWsXdODdoOCtV5t8+1EZ+XQau6PUaxWYNWPzQYE9qzHo/2d8/5w9T6nVpzRqS4r36u9XNvz7X6N3Ixum/92APnHP27mn8twHX3Zf94WPbib0kf99CXdo+88//unvc7XfcFv9t1z1v1BfFx9XncV25/1s//n93Hflr8GpD8fHfa9DutylA1Hpk27/Cq3iG1a3PM1Du3Bm0eW87Tj1Tjd21NDFoTxXXNH+V0p9XjVLwLK4arGLIGY9bqz/g8OyZr6diQnWNcDCr14BCjwXigKOcrg0PcPx4X6ucbn7PcFtW3ldEqPh6fs76vLhs2lnxfxl/bVOOvof6+LHm+qJzjUFPPV77e7OuOc5e/k0PFucffyziuvrbyHPGc9fPEcfXncY3j4w59T+Px9dc1VZynfL+mqq9DkqRDZeNVVnbs3IBlDFpwSv0P79cjVD1ATL5Dq1cPA0XcthvEdna3752zDFrlz43hr53bz6DVtnT47P9+D41B639T5fFn5+fz3xVV/Rvu34F1MRzHBtez/Xd2+Jz1v8FF1wJca1/23mHZi7+lPfyqX+qe89vdtkd+6y+6z3zD+7vPeuO/6R75jb/oHvmnq9s3PfQt70rPccdt3pWVvZup7ldf/YruufWgNRieNr8mcDNKrX+VYT1KZe+6Stq842p/jEoGrTt4d1bJu7TuTfU4FWNWGbCmxqzxMVnjsWFOZYDIivvHY0c9UJTRo9xfRofy2Kni8eMRY/w8UTym3BbPWV9bed6o/pqzYWfu96X+2u7m+zL3+eru9Pnqr7e+hig7V/19z+6P4r7x9zE+rget8nc/rj6mHFdf07i4nvqapirPmd0Xja9XkqRDZeNVVnbs3IBlDFpwSvHOmMHKtDY1aK3HgewH+PGD/QODVowO9buzejEObEaD6oSz36EFmfRXDgLcvS99z7Dsxd/cnvjF39M9/H3/ovvs9/4/3ef8erfuV/5b94TP//btY57w3G/r/vov//n2/njsw6/7F/2x9bnuqGoU2o1Iw/+G1dT4s/ff39q8G2t/zFr1t17RfUu8A6y6vT6+f+4jv+6wfwdZea70XWG7vEPrNNXjVP2urKkxK7qKQas0HkxKMTaMh5QYD8oAE/eNR41x48EijsluGz9//dzjr62+L24vH2fDxtzvSzxmPL5k1xXVzx/FsWVwOeXfQ/311s8bt8f3vjw+iuPr73t5bP2c5Zjx1xC3l69vXDyuvj8+z76GrLie+pqmKs9xqPp6JUk6VDZeZWXHzg1YxqAFwEzjIXU9kho9gavwJe8alr34m9tnvvfPu8/8lW7QQ69//97jPu37/ufus0aPi2PHj7u7yq8WjKp3U6W/AnBX/asKB6PTVKNfQ3i349Os59xk5Lq3jcepMmpNjVnRsUGrDBZlzDjU+If/cVv9eSkeV4888Xk9bNRjSFYcOx4s4vHj65mqnHs8sMQ56/visfFxXNv4ayv3z6n+WqO4rf68dOj7Etd1qr+H8ddbjo/Hjs9drqt8Xl9H3dRjy9dXivvj9vH3LIrnLuc6VJyjfp6pyteb3ReNvw+SJB0qG6+ysmPnBixj0AJgvsGvHDRmAVfnS945LHvxN7envfsvuoff23UP/9Km1cdPev2/2Xvck173R7vHbB73tHf9xd7j7qxqyEre+fTcv/WK7Tu59t6tFe+qyv47Wf27rTYjWP3x5t1f9XnqQev4OLX/awv7Y468YyuKxxm07m3ZOBVD1tSYFR0btGIYiCHi2A/3x/fHMVF8XM4RH8dQMR4lxsNGPDZuO9R4sIhjstvK85bG11Jfc31fXfa1Z+NOVjymHmfqa1ryfSmPPcXfQ32O+Lg8Lo6P6mPq8x+7PY6tvxfj54/njNuOdejrj7LrrJv7PHXHnlOSpGy8ysqOnRuwjEELAIDmfPE/Gpa9+Jvbxz//dd0T/94fdU/6+f/cPfmdXfek6O3/X/fxn/vq3WMe+bvdk3/hz/v7o09dPTaOiWPrc91Rd/LfodqOR8NfTRhth6o4bxm6BoPWfnvv0KqPreqHq6nbR9cxlUHr3nZsnMo6dkz8MD9GiCVDSj2ClOGkfB6PGQ8dcV8cUz6fGklKcc5Dg0VpznnKtZWyx2dfexw7Z+SIx8Rj4+O7+b7Ex3FMdi119f13+nzlHFHcFo8r54o/62PivnKe+DspzzGu3FcfO/48iseV88U1l7/nuJY5f+dRPG7uYyVJuldl41VWduzcgGUMWgAANOeL3jEse/G3tE/4xl/qPuntXfeE6Be67hN//i+6v/pd/7L7xNf+q+4JP//f+vs+aXV73P8J3/Ce9Bz3sqnxaD1Obd4ltRnDspFocPzSQSt5F9f6HPl/z6t/Lu/Qui89/PU/133iM1+S3pcVj33aN7wtvS+KQWE8jhyqPDYGiXJbGRbKbeUxpXLe+rb6+KnmDBZxnjKOZNVfXxTnzB4/fly5LbuurHhsHFN/XUu+L6f+e4iP6/vLfeXrqIvHZd+zuK2+ffy48fe0XNf4MfXfc3nMsb/7uP/YY0pxvvHzxrHl9uxrliQpKxuvsrJj5wYsY9ACAKA5X/QLw7IXf0v62Kd+afexb/y/uo97W9d9bPRz6z8Hn9f90P/RPf7TXpCe644bvSuqHqQmx626zeBUBqPBSDUatMbnS/8bWv1YVn694Hrgmhqj+vOt7p+TQeve9omf89J+oIp3Xc3p4a9/a39Mdq4ofrBffqA/HjnGzbk/BoLyeT0ajMeHGBfqgWHceOiY6th5DhXPUa4vGp8n7j/09ZbiMYdGkTnfl/jzlH8P9TnK4+uvIe4rx0w9V/29jz/Luetjyznjvvo89WOyv794fKk8bm5xTJyzfD4+97hyLYf+DiVJirLxKis7dm7AMgYtAACa8/yfH/b4J69e8N1Fj/vC13cfc9F1H/OWrvvo+HNV/+fq8/62+HNze3nc457znem57qQyCP3qP3zFemQqt5XRafV5jE7bgSk5tn7seozaDFjxeT1olWPiHVWbc2wHrTiuun0wVFW3jxufb6p4XP88yX3SvWg7qiT3SZIk3cuy8SorO3ZuwDIGLQAAmvO8tw3LXvwt6ulf2T36+z7QPeqnuu4jX/u/dR/9ond2j/qx/7f7iNXncdtHvOk/dR/zol/sHv29//v6MX/vT7vHPfTl+bmW9JRXdG/6X2MwqsanTf1IVI9UUf0rBlefb4eocv+q9Qg1Gr5Gg9bguO01rNvdPvrvc42vpWowfB3JoCVJkqTrUDZeZWXHzg1YxqAFAEBznvfWYdmLv6U97qEXdo959mu6xz/lBf3nj/rm/6n78J/o+h71qvevH7e67zFn33lvxqxV/buu6nc2bX5tYBl/+v9eVfX4+jF795VhKhueRqPVYPCqf53g6vN6nKrHp/U7xKKJ8c07tCRJknSDysarrOzYuQHLGLQAAGjOF/zssOzF3932MWff1f2lf/Dn3V9643/rPvq5P5A+5lq1fUfW/q81rNsOW7/xs6ORbGEzBjBJkiSp1bLxKis7dm7AMgYtAACa89y3DMte/EmSJEnSVZWNV1nZsXMDljFoAQDQnM/7mWGPf/LzJUmSJOlkZeNVVnbs3IBlDFoAADTn835qWPbiT5IkSZKuqmy8ysqOnRuwjEELAIDmPOcnh2Uv/iRJkiTpqsrGq6zs2LkByxi0oGmX3fmt89X/rcVtZ93F7c2nAHANPfITw7IXf5IkSZJ0VWXjVVZ27NyAZQxacCq3L7rziRXq8vxWdz5crVZudxdnt7pbt4adnZ3t3Xbr7GL16HLMbgC7fTF67P6TDMR13Nob0DJGtfa19Hfk3wuw3CM/Pix78SdJkiRJV1U2XmVlx84NWMagBSeUD1f57XHbWb8A1O/SWn1cxqvL82rIKvYHre15b190ZwcGrX78ivOl563F9VQj2aj1NXP/GbSAB9uz3zQse/EnSZIkSVdVNl5lZcfODVjGoAUnVQ1Slamhqx+hktGorhy3fndV1eqOeYPW5p1g9X0xaiXv1Crv+MpPszr/wSGM0zJoAQ+2Z/3osMetXuxJkiRJ0qnKxqus7Ni5AcsYtKABBwet9I61wWAV+gFswTu0+uHq8JhW3nG1fQfX6uPL89E4cfRdXZyeQQt4sD3rjcOyF3+SJEmSdFVl41VWduzcgGUMWnAi2/8eVgw/myFpsjIObUal9DGb6jGqvIOqvLvq0KDVv6Pr/CL973TtOu8uqiFrJwaK9XOvz1NdRNFfuxHjqu3+zqv6v4/NiHRR/Vur/55G/7Z2d+0fN/w1kuu/+/V9m8dV/z6G11P9qsypa+mvo3o34ODzY9cCXGd/8w3Dshd/kiRJknRVZeNVVnbs3IBlDFpwSvHD+uSdTPfmHVq3u4vz8+48/htam+MODVqZePzcwaAMF5On7IeJM4PWKQ3eKbcZnspf0ODvI/6tVP8OB79i8tBx6/t2f+ebX1c5GGCrcWrrwDnHxww+P3QtwHX3N35kWPbiT5IkSZKuqmy8ysqOnRuwjEELTil+IL900Iof6B9o97P+GK9iYNiNA4NfDRjnSp9kZ86g1b8jK7mOknfQ3CeDISjEGFSPP/FvYzgGlVFyXT0iTRyX/WrJbETbG50OnHN83YPPj38NwPX1N/7+sOzFnyRJkiRdVdl4lZUdOzdgGYMWnFL8sH7poHVghFqPWOuPLy/ivPWgVX+8sj1XjASb24/96sNVZaAqQ9bZ2YHRa3U+g9b9MB5+wrERqRof545IRwetIo6Jfy/lPMeuZfTv1KAFrPz1HxyWvfiTJEmSpKsqG6+ysmPnBixj0IJTih/W9z/8jx/M736Inw1ax94JNWg7KFTn3T7XRnxeBq29AWJtzju0Dj6mHrT6YcL4cPXW49H+7jl/mFq/U2vOiBT31c+1fu7tuVZ/5xej+9aPPXDO0b+T+dcCXHfPfP2w7MWfJEmSJF1V2XiVlR07N2AZgxacUv/D+/UIVQ8Qk+/Q6tXDQBG37Qaxnd3te+csg1b5MzF30Nob1KoMWqeVDp/93++hMWj9b6o8/uz8fP67oqp/w/07sC6G49jgerb/zg6fs/43tehagGvtmd8/LHvxJ0mSJElXVTZeZWXHzg1YxqAFpxTvjEnGpKlBaz0OZD/Ajx/sHxi0YnTYexdWjAOb0SBOGNey+fxY9ch1cPSq36HFzTB6txfAvfI/fN+w7MWfJEmSJF1V2XiVlR07N2AZgxYAM42H1PVIasQErkL2Yk+SJEmSTlU2XmVlx84NWMagBcB8g185aMwCrs7jnvyFkiRJknTfysarrOzYuQHLGLQAAGhO9mJPkiRJkk5VNl5lZcfODVjGoAUAQHOyF3uSJEmSdKqy8SorO3ZuwDIGLQAAmpO92JMkSZKkU5WNV1nZsXMDljFoAQDQnOzFniRJkiSdqmy8ysqOnRuwjEELAIDmZC/2JEmSJOlUZeNVVnbs3IBlDFoAADTncU9avcCTJEmSpPtUNl5lZcfODVjGoAUAQHOyF3uSJEmSdKqy8SorO3ZuwDIGLQAAmpO92JO07ove8cHuQx94X/dFyX17vfB93e0P/evuNU/68e6ff+hD3Ycmuv2O8+q48+5tH/hQ98+/pzrPptf84fixVd/zr1fniucqt63Ps/d8f/jjg+PinHuPmWp0rCRJ0lWVjVdZ2bFzA5YxaAEA0JzsxZ50Y+uHomTcSRqPUDF+rQeoGLTqsSl7TLltetBaD2Qf7N72wv37vuiF5+uxbfs8cZ7RY+NrSQat7XPF+bdj3ej45FhJkqSrKhuvsrJj5wYsY9ACAKA52Ys96cYWQ87Rd2RlI1Q9CM0btPbfLbU65uCglo9bfdt3h1W3TQxa+bmTDFqSJOlEZeNVVnbs3IBlDFoAADQne7En3djudNAaHHcX79CafP4459SgtT7H3gCVDFpZcU3pO8QOtnnOo98rSZKk42XjVVZ27NyAZQxa0LTL7vzW+er/1uK2s+7i9uZTALiGshd70o0tRqDs3UpJuxFoPO7cxX9Da8agtXuX1Xo06z/Phqv+XVubx67O+ar+VxSWY+c1vNY6g5YkSbp3ZeNVVnbs3IBlDFpwKrcvuvOJFery/FZ3PlytVm53F2e3ulu3hp2dne3dduvsYvXocsxuALt9MXrs+Ekuz7uz+ppWn28fs7res/rxcd/euBYuu/N4/nj89jq4/1oaPo2wwHLZiz3pxjY5KNUNR6j+v2X1gQ9W/z2q+h1a+49NB613bH5l4Ox3aNXPcXfd2Tu0JEmS7l3ZeJWVHTs3YBmDFpxQPlzlt8dt67GpfpfWZjzqPzyvhqxif9Dannc8UIXtoBXPUQ1f48rzxDmyd4zV15R9gdwHLY1ILV0L8KDIXuxJN7Y7GLRe84f/untNvBsqPW742HHbd1uVYw++Q2xi0KrfiZU0fO719WSPG3T0eyBJknTvysarrOzYuQHLGLTgpKrxpzI1dK0HpGRgqirHxTkG963uODRoDR6fDVLZAFb079aqjh81dRinZNACHmzZiz3pxnZwUBo2GIrKoDX3+NVj3/yHcY7R4BXHp//dqyPv0OpHrdE7trLb+kFr6r/FVVqd26AlSZJOWDZeZWXHzg1YxqAFDTg4aB1YhwaDVRi9g2r+O7TuXD+MJSMd95tBC3iwPfZJz5NU2rxD6/nZfdu+tfu5foSqbtsMWoPj+kEpfhXhh1bFr/Wr7ts2PNd3/GH8d6u+dfSYrDf1g9Z39MfHn6vb6mvfPPfPvbA+Jlo/Xzqy1R39HkiSJN27svEqKzt2bsAyBi04ke1/DyvGnyPvcBr+ir/k/qp6o9r9N7PWo9asQes8ukj/e13rYojY/fe8xv/NrbOLi67/dYXjUau/diPGVdv9nVf1f8+bEemi+rc2/Mcy+Le1u2v/uOHoGfeX4zaPq/7uh9dT/arMqWvpr6P6NZaDz49dC3CdZS/2pBvbPRu0YnCKQak8Nv6cHpjW54pjRuedbP3YGJ8GA9j2HWLZc0VT11G3OvfM74HhS5Ik3Yuy8SorO3ZuwDIGLTil+GF98m6me/MOrdvdxfl5dx7/Da3NcYcHrc0w0V9PDFZn2/Hp8jz/eD1gbT7Zfi2r86z+vIwho/7a4v4YI7Y3cOViKN3+HWz+fsvf+eDvI/6tVH9X/cBaj0hTx63v2/0z2gyd5Tn7x1bj1NaBc46PGXx+6FqA6y57sSfd2LaD0PEmB63+HGU0qger9cfDd2Dt7n/+Oz44fyDqn2PzzqxV/bGb67r9jvflY1efQUuSJLVXNl5lZcfODVjGoAWnFD+Qr0efjYODVvxA/0C7n/XHeBUDw24cGIxRca7tk2wetx2oNsNEcv71O7TWR20HrfHoUL6mwTDCSQ3+TkKMQfX4E3/HwzHo4LupsuMGg9nG4LbNALU3Oh045/i6x/+2jnwNwPWVvdiTbmx3+Q6t7+iHpd3QlD02fq3gh/7wTdUIVX514LGhab/tOSauuX+uuP8P37keoDZD1+wMVpIk6QRl41VWduzcgGUMWnBK8cP6pYNWesda/Q6sy4s4b/zAv4wB9ccr23PFSLC5fTBo7YaCw+/QuhyNCqvz1V9TDBwHrpmrMB5+wrERqfr1fXNHpKODVhHH1MPWsWsZ/Ts1aAEr2Ys9SZIkSTpV2XiVlR07N2AZgxacUvywvv/hf/xgfvdD/GzQituG75Q60HZQqM67fa6N+LwMWuX2Oxq0yidFdb5aP0wYH65e/N1lg+j8YWr9Tq05I1LcVz/X+rm351r9nV+M7ls/9sA5R/9O5l8LcN1lL/YkSZIk6VRl41VWduzcgGUMWnBK/Q/v1yNUPUBMvkOrVw8DRdy2G8R2drfvnbMMWuXPMBi0qoFsUBkQ1mNG3DZ9rZXRUMHVSIfP/i/o0Bg0/Ps+O1/9O5g7IlX/hvt/GxfDcWxwPdt/KIfPWf/qw0XXAlxr2Ys9SZIkSTpV2XiVlR07N2AZgxacUrwzJlmDpgat9TiQ/QA/frB/YNCK0WHvXVO7QSpGrDI8rJ93eigo79DavlNrMGhMlH0xXE+jd3sB3CvZiz1JkiRJOlXZeJWVHTs3YBmDFgAzjYfU9Ui6/2soAe5e9mJPkiRJkk5VNl5lZcfODVjGoAXAfKN36BmzgKuSvdiTJEmSpFOVjVdZ2bFzA5YxaAEA0JzsxZ4kSZIknapsvMrKjp0bsIxBCwCA5mQv9iRJkiTpVGXjVVZ27NyAZQxaAAA0J3uxJ0mSJEmnKhuvsrJj5wYsY9ACAKA52Ys9SZIkSTpV2XiVlR07N2AZgxYAAM3JXuxJkiRJ0qnKxqus7Ni5AcsYtAAAaM5jn/QFkiRJknTfysarrOzYuQHLGLQAAGhO9mJPkiRJkk5VNl5lZcfODVjGoAUAQHMe+6mrF3iSJEmSdJ/Kxqus7Ni5AcsYtAAAaE72Yk+SJEmSTlU2XmVlx84NWMagBQBAc7IXe5IkSZJ0qrLxKis7dm7AMgYtAACak73YkyRJkqRTlY1XWdmxcwOWMWgBANCc7MWedBP7hM/+hu6hF/9s9/BL3zGreGwck51LkiRJ88vGq6zs2LkByxi04GQuu/Nbt7pbRztfPbJyed6dXdzuP7x9cbb9OHe7uzg76w4+BAAeANmLPekm1g9Un/k16X1Z8dg4JrtPkiRJ88vGq6zs2LkByxi04D46PlDFnlUGqhljVTV+rR+fDGZnF6t7uC4uz1d/p+eDCbT/dzX+e9677fZFdzb4tzH+t5X8+xmdM5578NTlnMMbR+epB9vjz9E7eq0xFif/24jjtufbf67Rtw1oTPZiT7qJxbuustsPdeiYv/asF3W/9L7fW1Qck50rivu/+wd+Or1v3E9cvHd7vvr8dfGY7NjSS17xA0cfM27JMeXa4uPxtdXFOevj4vzP+4pXDm6L4nszfuyc4jkOfV/j/vrzeI54fLn+Q39nUVzv+DHjc04Vj8u+VkmSrlvZeJWVHTs3YBmDFtxHRwet+gfyl+eDH8YP2jzm8nwzFsRjzy+6i7PRu73iB//ZYMCDK/6uB3+nZbgZDjwxPm3/rfX/lkYD0GY02o086/PUo894PBsOWut3IA5Gor1zhvrf4PHnmHetcwet6jH9OZJjgGZkL/akm9i9HrTq6vGmbmqcidvi8XOLY2JoKZ/X5yz318X1zBme4jGHRqIl1zn+OuO85dxxf31fqX5Maep7Nndgqps6V119beO/x7i28RgWt8VjljQ1qE39u5Ek6bqVjVdZ2bFzA5YxaMF9dGzQ6t9V0//UvhoLLut3YVVWt69/wB8/uI8hq/xZM2hdO3vDTPxbWf1bGIxN9ZhT/Vsa68ej8m9mf2zq769u2A1a63MO/10mx+859hxzrzUet3DQWhmMfEBzshd70k3s2Dj1+Ie+pPu0r/rx7tP+zo9tb7vKQWvO4BSNzxvjSH3O7Hnjeurzx+PjcXMrA8zc68y+zritjE9xzvq+Uj1oxXOOr+PYdZfzZx279vHzxXXE4+vbxpVrrau/zlI8tv78UHEd2XklSbpOZeNVVnbs3IBlDFpwHx0etNY/zI8f7g8ed5kPWv07W+Lx2wFgPRYM3skVlR/we4fKNTEahTaD0G4MXen/rjfjT9w/OWrWw9B4bFp/Xv/bWw9a+7f3BmPSlCPPMftaDVpwHT1m9eJO0nqcym6PHvfQl3RPfdFP9o+JUavcfuiYuqc/60Xde9/3e3u3v/nivd0XfMUr926P2+K+8e1Z5bwxfMTHdXGe8W2l+vxLnq9u7nHjr3N8XFxP+biuDFr1bfW5Dj1/nDO+79l90fiapirXVr6/9TFxjvFzxP3xuCWNv8a6OP/U1yhJ0nUpG6+ysmPnBixj0IL76NCgFfedX1x0Z7uf9q/170wZjlS7h1x2F9vzxQ/wD7xDy6B1bdTj1fZdU/WYsxm5egdHonpgWn+8+3e2/29lO6Jm5xs/T//vrZxr+C6wyeeYfa13MGj59w/Ny17sSTexepx6yt/5sX64iiGrHrPiz/g8O+ZQdzJojUePQ9XHxudzhpq6eHwZTcbnHhfDTn1c9pis+priueqRJnt86SoGram/j6xynnLN5bqy6q8ximuvv193Wpx76muRJOk6lI1XWdmxcwOWMWjBfXRo0Lq8uOhuxw/dyxBRXE78ysHROLB+58yBQYvrYzvc1KPN7uPBO5GOjkT18buxtB+vRv8Wy3jW3zc+5+TzxPg0HLQmn2P2tc4dtHb/+8gGOqAt2Ys96SZWj1MxZpUBa2rMGh8zLnvH1LHK+HFoqDlUHBfnKaPPsWsoA0z2fPWAEsNMPH48Ls29znI98XGcIz6vj4tzTz12/Jxxf7meQ88f90+NQHOvOyrnie9lfW1RfD71HHF7+brimPg4a87gNX5eSZKuW9l4lZUdOzdgGYMW3EeHBq3ekkErfvg/+CH9+Af4myYHAh5cm5FoMODEP4kybNb/LuKxuxFpoP83lI9N2XFl0Nr+WxucdGJkKtfaf3zsOe70WjcGg9j4+wC0LnuxJ93E6nGqflfW1JgVHRq06upxo25qqFgyuNSV0SUaP9/UNUTj5yufl9FlPCqNH5fdVxePKV9nXGNcy9Rx9WPHlYGuHBuPK9eYNTU2zb3u8fONry0+n3qO+risY/fXjZ9XkqTrVjZeZWXHzg1YxqAF99GdDlrjkWp4jvUP988uLld/lh/4F5d+5eA11Y9L56OxM/6trG4bvyuv/xWF47/7/t9DPQrtj0T9cXuD2eaTzfhUj1rp8/SPmx6ixs8x71rL4+p/7+vr2X0/DFrwoMle7Ek3sfE4VUatqTErmjtoTQ0oU0NFDEhl+CnjzFT1eePjOC7OWf4s9x0atMrzxfHj82eVgSvOn92fNb6W8rVnjx1Xf13luPL8cXs5b10cdzeDVnm+OE+57dj3p1xXfBzfo6nniPuz26eqv2ZJkq5j2XiVlR07N2AZgxbcR/FD+DsZtKaO6X9l2/aH//EDfIPWjbEZOof/XPZHpq3NKLQbRsf/FvbHpnJbOd9w0Aqb56sHtL3nGY9Mh5+jd/Ra19b//ncN/3cS5/XvHR4kj/nUz5e0aj1ODW973ENf3De+vZQdk/WSV3x/990/8FN7t7/54j3dF3zF+d7t8dg45unP+ur+MeP7S/X9cUycq/wZt8Wf9eAyrpynPF/5vBTnrx8Xxedxe3wc5z90faXx15l9XeW54vbx4+vq+6au+1jZ1zVV/bjxdcXn5XtRKt//8jWW5zpUHFOfY1w8Zvw8kiRdp7LxKis7dm7AMgYtOJHxD9sPVn6Yv2DQGoxjyYgwaPSOHQBoTfZiT7qJzR2n6uYcUwaNbJCYGm7i8fUoMr6/VN9fhp160Kor1zG+PZq6jvExce56fIljDl1faXz+7Osq36Py2PgzPq8fE9XnKt+n8WPmNHX+cfXXXz93+XzqHNnXWJr6e8gq34vsPkmSrkvZeJWVHTs3YBmDFgAAzcle7Ek3sYdefNF9/GfGr6jL7x8Xj33oJT+b3leKMeLQ6DIeSKJ6wIhRJI4/1HjsWDpolWsc3x5NHVMqx86pvqZ67CnniNvi8/p7Eh+P34FV7o/bx1/7kuL4Y++MiuLaysfxfPXXNK6+nvprHBePzW7Pimu8k3ehSZL0IJWNV1nZsXMDljFoAQDQnOzFnnQT+/jP/vp+oIp3Xc3poRe/pT8mO1cUI8Sx4aKMM/Vt9SB1aBSJsvvr4+uxJSuOzQawuK1+TH1fXRx36P5SPKZ+jnLd2fdo/Ni4lqg8tjw+HldGsDtt/Fx15fniMeW2Q48fN/67Kdc+Pueh4hzl65Uk6TqXjVdZ2bFzA5YxaAEA0JzsxZ4k3YTKYDR3pDp1LV+bJEn3smy8ysqOnRuwjEELAIDmZC/2JEmSJOlUZeNVVnbs3IBlDFoAADQne7EnSZIkSacqG6+ysmPnBixj0AIAoDnZiz1JkiRJOlXZeJWVHTs3YBmDFgAAzcle7EmSJEnSqcrGq6zs2LkByxi0AABoTvZiT5IkSZJOVTZeZWXHzg1YxqAFAEBzshd7kiRJknSqsvEqKzt2bsAyBi0AAJqTvdiTJEmSpFOVjVdZ2bFzA5YxaAEA0JzsxZ4kSZIknapsvMrKjp0bsIxBCwCA5mQv9iRJkiTpVGXjVVZ27NyAZQxaAAA05zGfsnqBJ0mSJEn3qWy8ysqOnRuwjEELAIDmZC/2JEmSJOlUZeNVVnbs3IBlDFoAADTnMZ/yXEmSJEm6b2XjVVZ27NyAZQxaAAA0J3uxJ0mSJEmnKhuvsrJj5wYsY9ACAKA52Ys9SZIkSTpV2XiVlR07N2AZgxYAAM3JXuxJkiRJ0qnKxqus7Ni5AcsYtAAAaE72Yk+SJEmSTlU2XmVlx84NWMagBQBAcz5m9eJO0nO7j3/mS7qnvviie9pL3z6reGwck51LkiRJ88vGq6zs2LkByxi0AABoTvZiT7qJxUD1cZ/xovS+rHhsHJPdJ0mSpPll41VWduzcgGUMWgAANCd7sSfdxOJdV9nth5pzzMN/86u7977vd9P7XvzN39d91/f/1N7t5Zgv+Ipv7T9/81ve038+VTx+fI5S3F/Os6R4zii7ry4eM37++rj4+uY+fzyuHBt/Zt8bSZJ0/crGq6zs2LkByxi0AABoTvZiT7qJXdWgFcUwE8PS+Pa4LUat8e3ReNSaKhuU6uL4Y6PXuHh8XHNcW3bddeX5y/Ue6thAFecYj2FT3x9JknR9ysarrOzYuQHLGLQAAGhO9mJPuold5aAVxVBTj1Mx1kwNPDH+ZLePB59oyaA0Lo6pz1UGrHpEOjaIlecf31Y+jq+x/rrjvvoa5nRsCJMkSQ922XiVlR07N2AZgxbcK7cvurNbZ93F7c3nS1yed7fOLro7OfSujJ739sVZd1Z/Aav7x5/funXeXW4+3dPff6vvfPJBAHBc9mJPuoldxaAVQ0w20GTVo018Xp+nFMPRsUGrvu9Q8dgyRJVjx+eui/vr82dfWxnEsg6du7T0a5AkSdejbLzKyo6dG7CMQQsmXJ7f6m6NVpkYfMbD0/a2B3HQCvHc5+fd+WaIqgep+Nr2h6nL1WNXX+dlfL3DY8bfLwC4U9mLPekmdtXv0CrFEHTs1+iVUacehLJiADo0aMXzTA1J5fgyTB0ao0rlMWV8K88Zf8bncX/2tcX9cwatKM6X3S5Jkq5v2XiVlR07N2AZgxZM2RuZbncXZzHcDEerGL4G72K6E/dz0OrFSLV751V8TeeX5evddPD6hscDwN3KXuxJN7EWB63s9vEwVAat+raojE3j2+cW11iGq6nKwFWuoXyeVa67XFdWuS/7eiRJ0vUtG6+ysmPnBixj0IIpe++4Wo825/3Ys7mpH7nu8F1ZtfsyaK0Hq/XXEl9bNV6tOr+Ir389Ul2ex9e4Gbg2X3z/DrbRMYNWXw8A3KnsxZ50E7vXg9ahcWeqMnTFx+PzxSAU908NWvHn+HzHGp+rLp7r2KBVzlG+1vizfA115frGt2ePj8fV/80tSZJ0/cvGq6zs2LkByxi0YFI9+Kz0v5rvcv0rBsuN/ei1eWdS/XE/EJ11FxerYzYDz/BdXPsD0nDQGt8/fPfU7lzrxw2ucXOe/jqT44fKIBfnGT5HvBPt7Cxui8fs7st+7eL6OqaeAwCWy17sSTexU71Dq4xJ2X2l8f3xeYw82TAUn4/f0RQjUTZGxW1TI1W5rmOVx5cxqn7++Dw7Jpo7aMX1jW+TJEnXu2y8ysqOnRuwjEELDqjHq/Wv4etv7M7KoLMZuXp7g9at0X3lnVyjEWqlH5C2I9H6/sEAFs+zOfdgUFvdfnZ2tn3sduwaXMscm+utiqe4fXG+Hrv2BqyxON6gBcC9k73Yk25ipxi0YtQpI86hdz/FABR/xogVH5d3LM0ZtOLcZUQa356NSlMdu8Zy3/j5S+XrHN9elz0mvtb6OsefS5Kk61c2XmVlx84NWMagBYdsx6vyTqb+xu3Hg3dL7Q1a5fGhOr56F9VWfVt2f398Nahtnmf9qwDL4FRfYxmo6ms4LsayemiLazk7jwY3bsar9TXVI9i2vesHgGU+5lM+T9Kq9TiV3zfVkmPe/JZ3d9/1/f9w+3l8HLfVjymtx6iv2gxbu9vjtvEx8XncXt9W31fGrannmmo9aO2ud6ry/PH48lxTjc+3G7SG54zHrke8+dchSZIe3LLxKis7dm7AMgYtOGgz3myHrc2t/bu16gFp5coHrXK+8vFoyLocXuNa3BcjU30ttfWxZ9kw1Z9rPYyNR671O8Ti2PL11sp1AcCdy17sSTexp774Ld3HfUa80yi/f1w89qkvvkjvq4sxph5o6uK2uG886sRt9eflHFOPzQateFx9TPl47jg0d0jKBrU4Lm4vf9b31dXXFZXHlu/L+t1Z706/d5Ik6fqUjVdZ2bFzA5YxaMER/XgV71KqF6F+1DkfDjdzB629kWgzOm3Ptb5/7/mq54p3UsWvGiy/erB8Xr9b7GJ0/sEotbUbn3bvzqqGqv5rGh67HvPio/mD1h//8R9LkrSo7MWedBP7+Ge+uB+o4l1Xc3rqi3+mPyY7V1TGmjljTHls/Bmfx8fjx9TF/aUyOsWoVN9ezjWujEVTx82pHrDKoBV/lvvrr7k+fzxnVD6fusaofE+i7H5JknR9ysarrOzYuWWvhSRNZ9CCY2JMGr9LaTM6bf9bVmH2oLWyOee61e0Xw8Fqe/5to+FoPDT1n9fPF09RHT+8+J3VdaxHsHqc2ny8PWdcS/111Y+rnqNuNGgBwFLZiz1JkiRJOlXZeJWVHTs3YBmDFtxge786sQxt8e6zeiCLcev8cvXH7l1hwxGsdulXDgJw17IXe5IkSZJ0qrLxKis7dm7AMgYtAACak73YkyRJkqRTlY1XWdmxcwOWMWgBANCc7MWeJEmSJJ2qbLzKyo6dG7CMQQsAgOZkL/YkSZIk6VRl41VWduzcgGUMWgAANCd7sSdJkiRJpyobr7KyY+cGLGPQAgCgOR/zyasXeJIkSZJ0n8rGq6zs2LkByxi0AABoTvZiT5IkSZJOVTZeZWXHzg1YxqAFAEBzshd7kiRJknSqsvEqKzt2bsAyBi0AAJqTvdiTJEmSpFOVjVdZ2bFzA5YxaAEA0JzsxZ4kSZIknapsvMrKjp0bsIxBCwCA5mQv9iRJkiTpVGXjVVZ27NyAZQxaAAA056M/+XMlSZIk6b6VjVdZ2bFzA5YxaAEA0JzsxZ4kSZIknapsvMrKjp0bsIxBCwCA5mQv9iRJkiTpVGXjVVZ27NyAZQxaAAA0J3uxJ0mSJEmnKhuvsrJj5wYsY9ACAKA52Ys9SZIkSTpV2XiVlR07N2AZgxYAAM3JXuxJkiRJ0qnKxqus7Ni5AcsYtKBVty+6s1tn3cXtzedLXJ53t84uujs59O5cdue3bnW3jnRWvqjRdd6+ONvdF1b3jz+/det89SwT+vvXz3E++aDc7cs/7c4u/+vqo//aXbzhj7tb53nn/3b1kH//Z93Zu/5Df9zQf+jOzz8wfX13Kp7v/E+7i3+/+bwJu+9T/z2ZIb7Hg8dOfh83/u0HNn8nldVtt8bHrM5zPnhcXNvU9+vw3+9eo+e6fNfqtjf82cz/ba3+PQweO/4cOCR7sSdJkiRJpyobr7KyY+cGLGPQghO5PL/V3RqtLDHgjIen7W0P5KB1XDZa3To/3xvC4lsVj90fpmI0W31fLuP7Mzxm/P1dajdq5WLMKIPM9rExsGRDyKZ87CmjytToEsPY6v4yfjQ4aMXXvzcsHRRf83Dsq7+fmct37b7m7cfZoLUyOFd8v+5mOJo6/uDfdfnapgez88sjAx4wkL3YkyRJkqRTlY1XWdmxcwOWMWjBqeyNTLe7i7MYYoajVQxfg8HnTtzHQSuu/9CutDdo9WKk2r3zan2O8v3ZdPDrGR6/WP1OoX48KuPEelgqQ8lwgPmv3cW7xqPH3HdorUePszfkA1o/FsUI0vC7eeJ7sbv29dczNU5tv55tMU5tRrtx9Yi3/fqrdzZNDFr1Y/afb9ehAW0rG7TieePva+/vd/N3mQ6h1XWvpNe1uh/IZS/2JEmSJOlUZeNVVnbs3IBlDFpwKnvvuFqPMOeDAShGnDt8V1btgRi01oPV+rH7v6rw/CK+X+uR6vI8viebgWtz8v4db6NjBq2+/tm2g9bUu2vWI0b2jqK4bf/xu/KhYzMAxTt20oHkT7uLyxhQRqNKQ5YMWiHGnPr+4fFr9W39+FOGqwPvjNr//m6+f+N3do2k41I9atbf+/G4tnps/7XE7eXjWna9b/hAdz7+NYiT4xwQshd7kiRJknSqsvEqKzt2bsAyBi04mXrAWel/1d5lP/Bsf1VeP3pt3mlUf7z6v/2v2btYHbMZbIbvctofhIaD1vj+4buhdudaP25wjZvz9NeZHD92dGhatXu+MuDF8w6vKd65dnYWt8Vjdvf117E31g2PX2wwaI0Hphgw6kFrPd7ESLEdU/oBY3zc6lpHI87ObgDaG3b6dwL9WXe7/Bm39cNJff71qFLGkvXx5Zyb+0YDzHZYGV3ncNiZfo76vrjm3e2j6iFoa/N9LcNQPRCtvs7++uvbynNv/06qIWhvBNr9ffS3l/NtHBq0Bt/37b+Bzcfp17ER17D5evO/38T2/LuvZ/3vaX03sC97sSdJkiRJpyobr7KyY+cGLGPQghOqx6vtO5liuCoDzWbk6u0NWrdG95V3co1GqJV+ENqOPuv7BwNYPM/m3INBbXX72dnuVwJux67BtRy2/bomxPMNrqW3+fqq4hy3L87XY9fegDUWx9+rQWszjgxajzn1ALEbRGJ8iYFi8+e/rYaRSevn6c/VjyNlLBrdXkaVuL7tY9Zjz2CM6ZVr3w1P6WPr5xuct3bkuJXhEFddd6Z8f+PP8VC0Ou/4a+m/t+9a3V6Oqb+fcR3Z93fi9nsxaO0NeNXzpPfF8fVt5fZefK/yawKGshd7kiRJknSqsvEqKzt2bsAyBi04pe14Vd6Z1N+4/Xg7IPU3jwet8vhQHV+9i2qrvi27vz++GtQ2z7P+1X5lQKqvsQxO9TXkjg1ah8TYNTg2BrbzaHDjZrxafw31CLZt7+s9YjtmxNjwge5yM7LE6FGPNPmgFapBZzzApOoBaP1xf64YZcqQUn/cDySbMam+faA+50b62Ppx6+Fq/d+06u9cO3rc+nuRfv2J+F4Nxp1V5bH9faPv1+Xl6rmnvo9xbYdujz9HzzVo83UtGbRSq+cZHD/b4e8VsJO92JMkSZKkU5WNV1nZsXMDljFowUltxpjtsLW5tR+B6gFp5coHrXK+8vFoyLocXuNa3BejUX0tQ7MGrfja1mta/1xn2TDVP/d6SBuPXOt3lMWx5ftTK1/HAqPxpAxXu0HrP3Tnb/iz7iIZtPbeoTMuG1/Go8ZmQIrzb0eSzW3913HPB63xO4TWx26HrRnHLRm0tvaGotHz1srfSVxL9n0tlfPF45Lv9T35b2itHP17jjbH54/dXEf/dX2gO0//XQC17MWeJEmSJJ2qbLzKyo6dG7CMQQtOrB984l1H9SLUjzTnwyFm7qDV31ePPpvRaXuu9f17z1c9V/9rAFfnK796sHxev1vsYnT+wchUmTVobUep3fi0e3dWNVT134Ph+Xbnv5pBqx86NmPGYPRY3V+GrvK4/XfoTP06wLHxAFTeKVX9+r96VIrr2963fmx97EX/fNmolFzP6LwX28fXxx85buWOB63+61x/P/vvb3zfR+fuVX8nAxPD1e721bVc7u6f/SsHa/Hc4+sZWz3f9N/z6vvXH7/+8/LyA5triO/T+nqmrgvYyV7sSZIkSdKpysarrOzYuQHLGLTg1GLMGb/rKEaY1W3b/5ZVmD1orWzOuW51+8VwsNqef9toCBoPR/3n9fPFU1THDy9+YO/XBia2o9TqutejWT1ObT7eXkNce/19qB9XXVPdHQ5a/TtrsrFkox4h+kEk/jtPm+GjjF8x6tQf5/YHoO24U9QjTz8EVWNXPQxtb58aldbj1Pqx9ePXBu8mGnztx4+rB53yNe8NUyuD59jcv75td87x53c2aH1gNPbFee9gODr03OXrK4NW3LZ6zvp7cbm6jvXXMRy26nf47f2dAnuyF3uSJEmSdKqy8SorO3ZuwDIGLeDe2oxj6dBU2gxO62GrGufKMBfvVqsHtTjn+WU/lu3GtHoEq13e9a8cHEjHoxgt1uPM5WbIyd6tMx59brz4XpbvWRmGKuV72t9+aFSaun00ZoX5g9Z6EFz/PU+MdfG8m+cZP1d5zPq4agzcXGt8bXtj49TXAvQ++pOfI0mSJEn3rWy8ysqOnRuwjEELgAdeDEp7gxHwQMte7Ek3s5d3b/3Ah7oPfaj0/u7b926r+sAvd88bn+PLfrm7/aEPdm/9stHtE337H4zPuzn2te8f3f6h7vbbX14d+8bu9/vr251rWxybXdumeM7ff212X3yt869dkiTpXpWNV1nZsXMDljFoAQDQnOzFnnQzqwedMhhNjDwxXI1Ho37MGo5Q+w1HqOG4VD1XjFJ/8Mbt45739g8eHLTi/u3jDVqSJOkBKxuvsrJj5wYsY9ACAKA52Ys96Wa2YNAaDU6Dd1RNvnNr/C6re/cOrf1B64PVuHZoRIvzlK/PoCVJku5P2XiVlR07N2AZgxYAAM3JXuxJN7MYdOoRaTRoDd6BVQ0//fhUjUabMWo9GpVz5kPR4Xdo/fL28/odWnsj2B+8cT1o1betWj9+N3zl49mdDlqbr+vAO8EkSZLmlo1XWdmxcwOWMWgBANCc7MWedDOrB50j79A60mBgWjj6DEaufhzLnn83VG2fK/2Vg7vHlWMPv0Nrc82bdo8bZ9CSJEn3rmy8ysqOnRuwjEELAIDmfPQTVy/wJHXTg9Zw5Nk1fX//7qhy3uy/rRVD0OadXEvanrceqlafb3/lYNxXD1r9c+8eF20Hre156kFr8/HmsZIkSacoG6+ysmPnBixj0AIAoDnZiz3pRjY5aMVtwwFpMBqNz7MqRqPBqDWj8k6rGJvWHx8Yl5YMWqPrNGhJkqTWysarrOzYuQHLGLQAAGhO9mJPupHtvduqHrSGQ9BgFNp8vjvuQNW4ND5mbwDbu55VZbQ6Omi9v/v9zbHj8xq0JElSa2XjVVZ27NyAZQxaAAA0J3uxJ93I6kFn7x1aq9vKr+878u6s7Nf89SXH7Q9hm+eKxw5uHw1T5fo25/z2qXdoxeej61kPWuux7Pbbf9mgJUmS7nvZeJWVHTs3YBmDFgAAzfmo1Ys7Sc+pRqz6493IE4+pfxXg+Phofdx6fNq7L4amP3jj4Lbybqn+/npQGj02nrc+53YI2wxX5R1a/XmqQWv8+fr649gyYsX1lo+HX+uh1o/dPX/2GEmSpLll41VWduzcgGUMWgAANCd7sSfdxAbvbEoGrTJm/f4f5KNWGYvKQDUuRqjx0LX0HVpT5xkPYHXl8f1zjQYog5YkSWqhbLzKyo6dG7CMQQsAgOZkL/akm1gMUjFGbUemfqzZDDfxeTUYlXdixW1lfNobmfpf9bc5tm/97q/6MfFcd/IOrXHb60nbf97Dj68yWEmSpBOUjVdZ2bFzA5YxaAEA0JzsxZ4kSZIknapsvMrKjp0bsIxBCwCA5mQv9iRJkiTpVGXjVVZ27NyAZQxaAAA0J3uxJ0mSJEmnKhuvsrJj5wYsY9ACAKA5H/XERyRJkiTpvpWNV1nZsXMDljFoAQDQnOzFniRJkiSdqmy8ysqOnRuwjEELAIDmZC/2JEmSJOlUZeNVVnbs3IBlDFoAADQne7EnSZIkSacqG6+ysmPnBixj0AIAoDnZiz1JkiRJOlXZeJWVHTs3YBmDFtxHty/OurOL25vPMpfd+a1b3a3JzlePAIDrJ3uxJ0mSJEmnKhuvsrJj5wYsY9CCE4nxKh+lsspQddmdn110+eR1u7s4OzxoXZ7fqgazePzU8yxRj2xn3XCPO3RfsX7MYMi7PN8cs3/c3vft/NgV3+n1XcV9mRNfw4Hv7bTNv5XJ7/Wx+8P6msrf89S///1TDI8Dbq7sxZ4kSZIknapsvMrKjp0bsIxBC04ufmA/HhZiIMjGhtVj7/GgNRgQNmPH0Y1oa32O7Tn748s1HLpvpwwbu+safY2j44ZfwzF3en1XcV/m1Ndw+Hs76fZFd7b693g29dhj96/s/z2PxDmS448eB9wY2Ys9SZIkSTpV2XiVlR07N2AZgxbcF5fdebUixWiTj0oxfu2/q2XX4XHi6KAVJoaF1N5jq3Meuq/oh5CL7uLgSBVf827cm/7eJO70+q7ivsx9v4bh93ZKjErx9zP1vT92f39NR/6e02NnHAfcHNmLPUmSJEk6Vdl4lZUdOzdgGYMWnFD8ED8fpkbla8Ri8Xy7YWBq6BiPIwcGj3iHz+gE2+c4dF9v9zzD20eSdx/tvjf1cJO40+u7ivsy9/sa4rHHvof993zzbyAeX7/Dqzfn/iN/z3d6HHCjZC/2JEmSJOlUZeNVVnbs3IBlDFpwQvGD+tH2MK0fl+oxZ3NsP0rUt08PUMNhYDcYDFW3Hxm0+l8HNzpBeY5D9x36eGDzNe9f41r/HHtDyM6dXt9V3Je5r9dw5Hu7NRibknd0Hbm/fu70Oib+HR4/Drhpshd7kiRJknSqsvEqKzt2bsAyBi04ocvz6bFoTwwQ1U/944f8/acxKAxuvxeD1szrGj132D7HsfuqISobLPph5tC7w3r1gBIfj0a9u7m+e31fC9e3kX9vk+uLW0fHLvo8ruXI3/N6WBu9S2zOccCNk73Yk25ij//0r+oeftl7umd+z7/qPv2VvyXd+OJ/Cw+/7L3dY5/+wvR/M1M9+hlf1/3lb/mX3Yf9yH/q/rsf625k8bXH9yC+F9n3SJI0LBuvsrJj5wYsY9CCE2py0BqNCQftPbY65+R96z937yir2jw+rnM8yuT23xE0cEfXt/rwKu7L3IdrmP+9DfXIVVcGqEP3r593/75V1fXtj1WHjwNuruzFnnQTe/hl7+6e8lU/ld4n3dSe8qKf6Z72je9K78t69DNe0n3YD/7H7q987fu6j3jWd3SP+uxvvpHF1x7fg/hexPck+15JknZl41VWduzcgGUMWnAy8YP7Y//9osopBq04Vz0Q9e+eOTS6jc4xGFMO3Tc0uK7sHTtbt7vb1Qn6cWbinGt3en1XcV/mxNdw8HubiGP3Hr8esfrzH7t/ZH+8OjJIbuwfB9xE2Ys96SYW70bJbpduekv+txHvSvorX/er6chzE/vwl/xm/z3JvleSpF3ZeJWVHTs3YBmDFpxKjAHZT/2n9GPE8B0ru1Ghvn3ZoDU4djy+HB20VgbXNRo3Dt1XGVzX3tezbv2tGl3z+Hozd3p9V3Ff5pTXcPB7u68fDJM7y+3H7h8b/D2H/jqPf4/2jgNupOzFnnQTi1+xlt0u3fSW/G8jftXeTX5n1rj4XnzYj6X+cCIAABvVSURBVPyX9HslSdqVjVdZ2bFzA5YxaMGJLPp1gyF++F+NBPFD/v7T0TC2+LwA8AD4qCeeSVr16a/8zfR26aa35H8b8d+PetRnv1xV8T3JvleSpF3ZeJWVHTs3YBmDFgAAzcle7Ek3MYOWlGfQursMWpJ0vGy8ysqOnRuwjEELAIDmZC/2pJuYQUvKM2jdXQYtSTpeNl5lZcfODVjGoAUAQHM+6pNWL/AkrX9on9wu3fSW/G+jH7Se+XJV9YNW8r2SJO3Kxqus7Ni5AcsYtAAAaE72Yk+6iRm0pDyD1t1l0JKk42XjVVZ27NyAZQxaAAA0J3uxJ93E7nbQ+s7X/UT3yZ/+xel997u4tux2aU4tDVqP/vt/0nV/9I70vqx4/O33/PDu82e+o/v97k+6V1ePueoMWpJ0vGy8ysqOnRuwjEELAIDmfOTqxZ2k9Q/ts9vn9prX/UT3xE//4r3b47Zy39TH42PudfE82e3SnJb8byPGm4945suvrs2gFR8/9z1/tvn/ZGN/1v3s1+8eH4PW4PiB6rFXVHxPsu+VJGlXNl5lZcfODVjGoAUAQHOyF3vSTcyg1X7le1b6jEdeNLi/vu8U39ebUquDVimGrd1o9cPdz/679Uj1bX+0+X904d/9XvfcuO+P4s/NsV//e93t/vbdua4ig5YkHS8br7KyY+cGLGPQAgCgOdmLPekmdlWDVgvFtWW3P2jF11FGrPEg+NJX/WD3eX/r5f3H8Zjr8jW3UBuDVgxVm//HtfUn3bet7otB6/f/fv24/B1az33Pn1Tvxho97gozaEnS8bLxKis7dm7AMgYtAACak73Yk25ic35oH4NJDCV1L3zJd/b3xcf1/WVcKcPLoY/rz0tlqBk39bh60Ili1Inb4uN43KHHTF1L+Tw+zr62rDhfeVw0vq+MTeXaovrxce5yX7mO8jXWH9efj683Ks9V36Y7q/V3aMU7sY4PWvHfzppwxe/SMmhJ0vGy8SorO3ZuwDIGLQAAmpO92JNuYkvfoTV+F1B8XMat+r56bJn6OCrHRmVoKp/XTT0uhqD6vvi4DE/lecbnLY8ZX8v48/i4nHv8ddfFueuxqx6nyv3jY8fHxOflmHId8Wd8Xp+vPi6uqf7ao/rr19314A1a63dubR8f/t3vdd9WvZPr2/6ojF7v6H7foCVJ971svMrKjp0bsIxBCwCA5mQv9qSb2NJBK4aWGFLqz8vwUn9ej0NTH487dF/dofPN/TiOGx+bnStum/o8Gh9Tqh87Hq+yY8aj27i4L46pj4tzGrSurrYHrfGvDox3YsWgFbev///c7lcOlkGrHr0MWpLUQtl4lZUdOzdgGYMWAADNyV7sSTexJT+0z8aSeriJYniJz+vRZurjKM4Zn9eV++oOPS6eMwah8TuW6sfE7ePHjK9l/Hl8HLeVz8vXVj6Ppoaock3jj6PsmKnzRPV1lGuMP+OY+uuN4nOD1r2pzUGrDFllwCqPGX2++ZWDMWYddIWjlkFLko6XjVdZ2bFzA5YxaAEA0JzsxZ50E5v7Q/upwWVq9CnDS9w29fH4nPV9dcceV96pVEarcnv9mDL+1I8Zn2f8eXwct5XPy9dWPo/Gx5TqY+O4+rrGX8/UbVO3l9Equ2/8XLrzmhu0NuLdVvHrBss7sNblg9bu/vVtYe/2K8qgJUnHy8arrOzYuQHLGLQAAGhO9mJPuonN/aH9eNyZuj0Glfi8HnqmPo7hpXwcxVAzflz8eehx5bHxvPVtUfb5eACK28oAND5vfBznLp+Pv7ZyX9xevysqPq6fJz4ej0xxfH1MfF6Oqc8/fq7y2HK++tzxZ/28urtaGrT6d1ptfuVg//H4nVVf/3vd7fq20aAVA1g5pj7XVWbQkqTjZeNVVnbs3IBlDFoAADQne7En3cTm/NA+RpIYUepi/In74uN6bInH1kNM3Db1cXl8fB7FwDN+XPx56HH1eco1lcaPifvHjynnys4bH5fnj8Zf2/i+cp74uNxe7hsPWuUcpXqMGp+/vsby2KnzlNt19zX1Dq1SvMtqO1zFu7J21gPW7r+hVd7JVT7eO0+4wmHLoCVJx8vGq6zs2LkByxi0AABozkd+0rMlrVr/0D6/7171xE9/Qfea1705ve+UvfRVr+8+45GvTu+738V1vfAlr0nv0/1pyf82TjZoPUCtB638+yVJWpeNV1nZsXMDljFoAQDQnOzFnnQTO8WgFe8wut9jTSujWinGtfrzuLZWx7abmkHr7jJoSdLxsvEqKzt2bsAyBi0AAJqTvdiTbmJXOWjFQBNDzf0ekmJMi2uIUSu7/35UBrZSjH7Z43T/MmjdXQYtSTpeNl5lZcfODVjGoAUAQHOyF3vSTewU79CSHsQMWneXQUuSjpeNV1nZsXMDljFoAQDQnOzFnnQTM2hJeQatu8ugJUnHy8arrOzYuQHLGLQAAGhO9mJPuokZtKQ8g9bdZdCSpONl41VWduzcgGUMWgAANCd7sSfdxAxaUt6S/2182I/8p+6/f9ar02HnJhbfiw/7kf+Sfq8kSbuy8SorO3ZuwDIGLQAAmpO92JNuYs/8nvent0s3vSX/2/jLr/hfug//2vel485N7MNf8hv99yT7XkmSdmXjVVZ27NyAZQxaAAA0J3uxJ93Envay93RPftFPp/dJN7Unf/Vbuqe99F3pfVmPesaLuw/7wf/YffjX/MqNfqdWfO3xPYjvRXxPsu+VJGlXNl5lZcfODVjGoAUAQHOyF3vSTewxD39599A3vrN/N0r8ijXpphf/W3jaS9/dPeahL0n/NzPVo57xdf27kj7sh/9z/9+PuonF1x7fg/heZN8jSdKwpz/rm9MBq+6vPftb0mPnBixj0AIAoDnZiz1JkiRJOlWf8hlf3T397FvTISt6xiN/t/vUz/ra9Ni5AcsYtAAAaE72Yk+SJEmSTtkzHnlV97TP+abuGWev3BuzPuM5r0qPWRKwjEELAIDmZC/2JEmSJOnU/dWHv7x7+rO/ZTtmxa8ZvNt3ZpWAZQxaAAA0J3uxJ0mSJEn3q4/65EfS2+8mYBmDFgAAzfnIJ6xe4EmSJEnSNQ5YxqAFAEBzshd7kiRJknSdApYxaAEA0JxHP+FZkiRJknStA5YxaAEA0JzsxZ4kSZIkXaeAZQxaAAA0J3uxJ0mSJEnXKWAZgxYAAM3JXuxJkiRJ0nUKWMagBQBAc7IXe5IkSZJ0nQKWMWgBANCc7MWeJEmSJF2ngGUMWgAANCd7sSdJkiRJ1ylgGYMWAADNyV7sSZIkSdJ1CljGoAUAQHOyF3uSJEmSdJ0CljFoAQDQnOzFniRJkiRdp4BlDFoAADQne7EnSZIkSdcpYBmDFgAAzcle7EmSJEnSdQpYxqAFAEBzshd7kiRJknSdApYxaAEA0JzsxZ4kSZIkXaeAZQxaAAA0J3uxJ0mSJEnXKWAZgxYAAM3JXuzdi373d3/3rvr13/jN9LySJEmStDRgGYMWAADNefQT/uaVFKPUq7/7h7pnP//rFvc/ft8/2Axa+bklSZIkaUnAMgYtAACak73YuxfFoPWVL/m73Vd87Su7N/3kW2f3gr/98u4bXvHddzVovfuf/LOjfe6Xvqx/7FM/+8v6z7NzjG8rxTGved2P793+pp/+xf6+8e1R/ZylOMfXfNNrB7fFOco1RvGY+vO6qeeKc47Pe6g4V3a7JEmSdF0CljFoAQDQnOzF3r2oDFrf8urv2/4awan+ya/8Wve9r/+x7qXf+trus57zld3nfsk3dG9569vT896LYiSqx6UYf+qBKoaiGJbK5+PqQWs8QNWVUSl7TDz/+LbynPX543Hl4zhfue547L0atMZfvyRJknTdApYxaAEA0Jzsxd69KIaqY4PWb/7mb3cv+sZv7x7zKWfdM579t7sX/J1v7r78a867v/H5X9N99Cc/Oz3vnGKcGb8bqi67f2pkqivDT31bdr74vAxK8XE0Hsni4zgmG6bGg1b9fHXluOy+rPo5xsX9UwOZJEmS9KAHLGPQAgCgOdmLvXtRDFaHBq14V9anP+uF/Tuy3vrz/2jv/vf+41/pvvgrX5Ge+1jjgWncsfuPjT/14FQqx8R5x/eVYuQq95fnz841HrTKx+X4+LgewsbXG48rg1qpHtPq28o54vHleY59/ZIkSdKDFrCMQQsAgOZkL/buRTFKTQ1av/M7v9M9+/lf1/9qwd/+p/9s7/66l73y76XnP1QMMzHKHKoMQ+WxZQCKz+v7ysd1ZXCKP8fnrSvvwsruy4rHjq89rqv+vO5OB63yddWDVl12vCRJkvQgByxj0AIAoDnZi717UYxRU4PW63/kJ7pPeOjzu/f96q/v3Vf3znf/Uj9+PfPzvip9jqmmhqjS+P74uAw449GorhxThqx6JJoagcq568eOi3PFY+rzxzXGx3Fb+bh+TD1GxfHxZym7lvr5y7H1OerK1ze+XZIkSXpQA5YxaAEA0Jzsxd69KAapqUHr+S/8pu7F3/Sde7eXYsT6upe9pnviX/vC/vMf+gf/MH2OqY4NWuPK6DS+PTtPjEAx9pT74uOpyhAVZffX1c9RD1p19aBVl50vKx5bhqz4eGrQiuL5s++JJEmS9CAGLGPQAgCgOdmLvXtRDFExaD32Ux/pPv6pzx30UU98VvfDP/pT/WNe+/1v7N7y1rcPxqyv/oZXd094+Hndz7/9nf1tv/brv5E+x1TZEDUu7i+jUXxc3tWUDUGl8vjx4DR+vjIY1WW3TVWf/9A1leeMj+vjy9dS31aeP24v554atMq5l1yzJEmS1HLAMgYtAACa8+hPXL3Au4JiiPqt3/rt7ld/7Tf2+oSnfn73pp98a/+YV3/3D3WPf/Lndj/502/rx6y//XWv6p749C/s3v6P3jMYubLnmOo137sZmJL7Sl/zstf2xcf9oLX5uG7qPE995pf195WP64EpRqDsmPKYqeI85bHjc5bb4xqzc4+rv7Zx9fX1g1b1vFF83g9Z1W2SJEnSgx6wjEELAIDmPGr14u4q+sKv+KbJHvupz+m+83t+ZDtYvfI1r+8e+6TP7Z7zgq/vPuUZL+h+8V2/tL0vescvvid9jqle9LLX9mX3lb5jM1Z9WjUexcfZY+rbonhc3FffFs9XzvNjP/2Lg/ui7LZSnKs8dzyuDFnjx8VzZLePm/P1R/Fc4685zj/+2iRJkqQHPWAZgxYAAM3JXuxdRY9/8ud1H/dpz+371M/84n68qker73jtD3dP/5yv6N79nl8e3B69/FXfm55zqnqkmqoMTNmYNFU8NoqPy2hU7qsHpPL89W3lcVONh6Xo2NcxNZKVa8vuq6uvvy67FkmSJOlBDljGoAUAQHOyF3tX0et+6E39rxmMvut739A9+gnP6n74jev/jtah3vuPf6X72Kc8Nz2nJEmSJM0JWMagBQBAc7IXe6cq3rX1o2++SIes6D2/9E+6p/31L0+PlSRJkqS5AcsYtAAAaE72Yu+UxTu1vvxrX9n95M+8rfuV9/1a91u//U+7t/3CO7tv/NbXdo9/yuelx0iSJEnSkoBlDFoAADTnUZ/4OZIkSZJ0rQOWMWgBANCc7MWeJEmSJF2ngGUMWgAANCd7sSdJkiRJ1ylgGYMWAADNyV7sSZIkSdJ1CljGoAUAQHOyF3uSJEmSdJ0CljFoAQDQnOzFniRJkiRdp4BlDFoAADQne7EnSZIkSdcpYBmDFgAAzcle7EmSJEnSdQpYxqAFAAAAAABA0wxaAAAAAAAANM2gBQAAAAAAQNMMWgAAAAAAADTNoAUAAAAAAEDTDFoAAAAAAAA0zaAFAAAAAABA0wxaAAAAAAAANM2gBQAAAAAAQNMMWgAAAAAAADTNoAUAAAAAAEDTDFoAAAAAAAA0zaAFAAAAAABA0wxaAAAAAAAANM2gBQAAAAAAQNMMWgAAAAAAADTNoAUAAAAAAEDTDFoAAAAAAAA0zaAFAAAAAABA0wxaAAAAAAAANM2gBQAAAAAAQNMMWgAAAAAAADTNoAUAAAAAAEDTDFoAAAAAAAA0zaAFAAAAAABA0wxaAAAAAAAANM2gBQAAAAAAQNMMWgAAAAAAADTNoAUAAAAAAEDTDFoAAAAAAAA0zaAFAAAAAABA0wxaAAAAAAAANM2gBQAAAAAAQNMMWgAAAAAAADTNoAUAAAAAAEDTDFoAAAAAAAA0zaAFAAAAAABA0wxaAAAAAAAANM2gBQAAAAAAQNMMWgAAAAAAADTNoAUAAAAAAEDTDFoAAAAAAAA0zaAFAAAAAABA0wxaAAAAAAAANM2gBQAAAAAAQNMMWgAAAAAAADTNoAUAAAAAAEDTDFoAAAAAAAA0zaAFAAAAAABA0wxaAAAAAAAANM2gBQAAAAAAQNMMWgAAAAAAADTNoAUAAAAAAEDTDFoAAAAAAAA0zaAFAAAAAABA0wxaAAAAAAAANM2gBQAAAAAAQNMMWgAAAAAAADTNoAUAAAAAAEDTDFoAAAAAAAA0zaAFAAAAAABA0wxaAAAAAAAANM2gBQAAAAAAQNMMWgAAAAAAADTNoAUAAAAAAEDTDFoAAAAAAAA0zaAFAAAAAABA0wxaAAAAAAAANM2gBQAAAAAAQNMMWgAAAAAAADTNoAUAAAAAAEDTDFoAAAAAAAA0zaAFAAAAAABA0wxaAAAAAAAANM2gBQAAAAAAQNMMWgAAAAAAADTNoAUAAAAAAEDTDFoAAAAAAAA0zaAFAAAAAABA0wxaAAAAAAAANM2gBQAAAAAAQNMMWgAAAAAAADTNoAUAAAAAAEDTDFoAAAAAAAA0zaAFAAAAAABA0wxaAAAAAAAANM2gBQAAAAAAQNMMWgAAAAAAADTNoAUAAAAAAEDTDFoAAAAAAAA0zaAFAAAAAABA0wxaAAAAAAAANM2gBQAAAAAAQNMMWgAAAAAAADTNoAUAAAAAAEDTDFoAAAAAAAA0zaAFAAAAAABA0wxaAAAAAAAANM2gBQAAAAAAQNMMWgAAAAAAADTNoAUAAAAAAEDTDFoAAAAAAAA0zaAFAAAAAABA0wxaAAAAAAAANM2gBQAAAAAAQNMMWgAAAAAAADTNoAUAAAAAAEDTDFoAAAAAAAA0zaAFAAAAAABA0wxaAAAAAAAANM2gBQAAAAAAQNMMWgAAAAAAADTNoAUAAAAAAEDTDFoAAAAAAAA0zaAFAAAAAABA0wxaAAAAAAAANM2gBQAAAAAAQNMMWgAAAAAAADTNoAUAAAAAAEDTDFoAAAAAAAA0zaAFAAAAAABA0wxaAAAAAAAANM2gBQAAAAAAQNMMWgAAAAAAADTNoAUAAAAAAEDTDFoAAAAAAAA0zaAFAAAAAABA0wxaAAAAAAAANM2gBQAAAAAAQNMMWgAAAAAAADTNoAUAAAAAAEDTDFoAAAAAAAA0zaAFAAAAAABA0wxaAAAAAAAANM2gBQAAAAAAQNMMWgAAAAAAADTNoAUAAAAAAEDTDFoAAAAAAAA0zaAFAAAAAABA0wxaAAAAAAAANM2gBQAAAAAAQNMMWgAAAAAAADTNoAUAAAAAAEDTDFoAAAAAAAA0zaAFAAAAAABA0wxaAAAAAAAANM2gBQAAAAAAQNMMWgAAAAAAADTNoAUAAAAAAEDTDFoAAAAAAAA0zaAFAAAAAABA0wxaAAAAAAAANM2gBQAAAAAAQNMMWgAAAAAAADTNoAUAAAAAAEDTDFoAAAAAAAA0zaAFAAAAAABA0wxaAAAAAAAANM2gBQAAAAAAQNMMWgAAAAAAADTNoAUAAAAAAEDTDFoAAAAAAAA0zaAFAAAAAABA0wxaAAAAAAAANM2gBQAAAAAAQNMMWgAAAAAAADTNoAUAAAAAAEDTDFoAAAAAAAA0zaAFAAAAAABA0wxaAAAAAAAANM2gBQAAAAAAQNMMWgAAAAAAADTNoAUAAAAAAEDTDFoAAAAAAAA0zaAFAAAAAABA0wxaAAAAAAAANM2gBQAAAAAAQNMMWgAAAAAAADTNoAUAAAAAAEDTDFoAAAAAAAA0zaAFAAAAAABA0wxaAAAAAAAANM2gBQAAAAAAQNMMWgAAAAAAADTNoAUAAAAAAEDTDFoAAAAAAAA0zaAFAAAAAABA0wxaAAAAAAAANM2gBQAAAAAAQNMMWgAAAAAAADTNoAUAAAAAAEDTDFoAAAAAAAA0zaAFAAAAAABA0wxaAAAAAAAANM2gBQAAAAAAQNMMWgAAAAAAADTNoAUAAAAAAEDTDFoAAAAAAAA0zaAFAAAAAABA0wxaAAAAAAAANM2gBQAAAAAAQNMMWgAAAAAAADTNoAUAAAAAAEDTDFoAAAAAAAA0zaAFAAAAAABA0wxaAAAAAAAANM2gBQAAAAAAQNMMWgAAAAAAADTNoAUAAAAAAEDTDFoAAAAAAAA0zaAFAAAAAABA0wxaAAAAAAAANM2gBQAAAAAAQNMMWgAAAAAAADTNoAUAAAAAAEDTDFoAAAAAAAA0zaAFAAAAAABA0wxaAAAAAAAANM2gBQAAAAAAQNMMWgAAAAAAADTNoAUAAAAAAEDTDFoAAAAAAAA0zaAFAAAAAABA0wxaAAAAAAAANM2gBQAAAAAAQNMMWgAAAAAAADTNoAUAAAAAAEDTDFoAAAAAAAA0zaAFAAAAAABA0wxaAAAAAAAANM2gBQAAAAAAQNMMWgAAAAAAADTNoAUAAAAAAEDTDFoAAAAAAAA0zaAFAAAAAABA0wxaAAAAAAAANM2gBQAAAAAAQNMMWgAAAAAAADTNoAUAAAAAAEDTDFoAAAAAAAA0zaAFAAAAAABA0wxaAAAAAAAANM2gBQAAAAAAQNMMWgAAAAAAADTNoAUAAAAAAEDTDFoAAAAAAAA0zaAFAAAAAABA0wxaAAAAAAAANM2gBQAAAAAAQNMMWgAAAAAAADTNoAUAAAAAAEDTDFoAAAAAAAA0zaAFAAAAAABA0wxaAAAAAAAANM2gBQAAAAAAQNMMWgAAAAAAADTNoAUAAAAAAEDTDFoAAAAAAAA0zaAFAAAAAABA0wxaAAAAAAAANM2gBQAAAAAAQNMMWgAAAAAAADTNoAUAAAAAAEDTDFoAAAAAAAA0zaAFAAAAAABA0wxaAAAAAAAANM2gBQAAAAAAQNMMWgAAAAAAADTNoAUAAAAAAEDTDFoAAAAAAAA0zaAFAAAAAABA0wxaAAAAAAAANM2gBQAAAAAAQNMMWgAAAAAAADTNoAUAAAAAAEDTDFoAAAAAAAA0zaAFAAAAAABA0wxaAAAAAAAANM2gBQAAAAAAQNMMWgAAAAAAADTNoAUAAAAAAEDTDFoAAAAAAAA0zaAFAAAAAABA0wxaAAAAAAAANM2gBQAAAAAAQNMMWgAAAAAAADTNoAUAAAAAAEDTDFoAAAAAAAA0zaAFAAAAAABA0wxaAAAAAAAANM2gBQAAAAAAQNMMWgAAAAAAADTNoAUAAAAAAEDTDFoAAAAAAAA0zaAFAAAAAABA0wxaAAAAAAAANM2gBQAAAAAAQNMMWgAAAAAAADSs6/5/u5zXBwf/w/UAAAAASUVORK5CYII=;" vertex="1" parent="1">
          <mxGeometry width="1716" height="904" as="geometry" />
        </mxCell>
      </root>
    </mxGraphModel>
  </diagram>
</mxfile>
